STARTFONT 2.3
FONT -FontForge-Open Sans-Book-R-Normal-Sans--32-320-72-72-P-185-ISO10646-1
SIZE 32 72 72  2
FONTBOUNDINGBOX 57 43 -18 -9
COMMENT "Generated by fontforge, http://fontforge.sourceforge.net"
COMMENT "Digitized data copyright (c) 2010-2011, Google Corporation."
STARTPROPERTIES 41
FOUNDRY "FontForge"
FAMILY_NAME "Open Sans"
WEIGHT_NAME "Book"
SLANT "R"
SETWIDTH_NAME "Normal"
ADD_STYLE_NAME "Sans"
PIXEL_SIZE 32
POINT_SIZE 320
RESOLUTION_X 72
RESOLUTION_Y 72
SPACING "P"
AVERAGE_WIDTH 185
CHARSET_REGISTRY "ISO10646"
CHARSET_ENCODING "1"
FONTNAME_REGISTRY ""
CHARSET_COLLECTIONS "ISO8859-2 ISO8859-5 ISO8859-7 ISO8859-9 ISO8859-4 ISO10646-1"
BITS_PER_PIXEL 2
FONT_NAME "OpenSans-Regular"
FACE_NAME "Open Sans Regular"
COPYRIGHT "Digitized data copyright (c) 2010-2011, Google Corporation."
FONT_VERSION "1.10"
FONT_ASCENT 26
FONT_DESCENT 6
UNDERLINE_POSITION -3
UNDERLINE_THICKNESS 2
X_HEIGHT 16
CAP_HEIGHT 22
RAW_ASCENT 799
RAW_DESCENT 200
NORM_SPACE 8
RELATIVE_WEIGHT 40
RELATIVE_SETWIDTH 50
SUPERSCRIPT_X 0
SUPERSCRIPT_Y 15
SUPERSCRIPT_SIZE 20
SUBSCRIPT_X 0
SUBSCRIPT_Y 4
SUBSCRIPT_SIZE 20
FIGURE_WIDTH 18
AVG_LOWERCASE_WIDTH 181
AVG_UPPERCASE_WIDTH 213
ENDPROPERTIES
CHARS 938
STARTCHAR space
ENCODING 32
SWIDTH 259 0
DWIDTH 8 0
BBX 1 1 0 0
BITMAP
00
ENDCHAR
STARTCHAR exclam
ENCODING 33
SWIDTH 267 0
DWIDTH 9 0
BBX 4 23 2 0
BITMAP
7F
7E
7E
7E
3E
3E
3E
3E
3D
3D
2D
2D
2D
2D
2C
2C
00
00
04
7E
BF
BF
2D
ENDCHAR
STARTCHAR quotedbl
ENCODING 34
SWIDTH 400 0
DWIDTH 13 0
BBX 9 8 2 15
BITMAP
FC0F80
BC0F80
B80F80
B80F40
B80B40
780B40
740B40
740B00
ENDCHAR
STARTCHAR numbersign
ENCODING 35
SWIDTH 645 0
DWIDTH 21 0
BBX 20 23 0 0
BITMAP
0000F003C0
0001F00780
0001E00B80
0002D00B40
0003D00F40
0003C00F00
0007C01E00
0FFFFFFFFF
0FFFFFFFFE
000B403D00
000F003C00
001F007800
001E00B800
002E00B400
7FFFFFFFF8
7FFFFFFFF8
007C01E000
007802E000
00B802D000
00B403D000
00F403C000
00F007C000
01F0078000
ENDCHAR
STARTCHAR dollar
ENCODING 36
SWIDTH 571 0
DWIDTH 18 0
BBX 14 26 2 -2
BITMAP
000F0000
000F0000
000F0000
01BFFA40
0BFFFFE0
3F9F56C0
7E0F0000
BC0F0000
BC0F0000
7D0F0000
3F8F0000
1FFF0000
06FFE400
006FFE00
000FBFC0
000F0BE0
000F02F0
000F02F0
000F02F0
400F07E0
F95F6FD0
FFFFFE40
1AFFA400
000F0000
000F0000
000F0000
ENDCHAR
STARTCHAR percent
ENCODING 37
SWIDTH 823 0
DWIDTH 26 0
BBX 24 23 1 0
BITMAP
02F900003D00
0FFF40007800
2E07C000F400
3D02D002E000
7C01E003D000
7C01F00B8000
7801F01F0000
7801F02E0000
7C01F07C0000
3C01E0F46F90
3D02D1F1FFF4
2E07C3D2E0B8
0FFF4B87C03D
02F90F47802D
00002E0B802E
00007C0B801E
0000B80B801E
0001F00B802E
0002D007802D
0007C003C03D
000F4002E0BC
001E0001FFF4
003D00006F90
ENDCHAR
STARTCHAR ampersand
ENCODING 38
SWIDTH 729 0
DWIDTH 23 0
BBX 22 23 1 0
BITMAP
001BF9000000
00BFFF800000
01F95BE00000
03F003F00000
03E002F00000
03E002F00000
03E003F00000
01F40BD00000
00FD2F800000
007FFE000000
002FF4000000
00BFF4000000
03FAFD000F80
0FD07F401F40
2F401FD02F00
3E0007F43E00
7E0001FDBC00
7E00007FF400
3E00001FF000
2F80007FF800
1FF95BFEFE00
07FFFFE42F80
006FFA400BE0
ENDCHAR
STARTCHAR quotesingle
ENCODING 39
SWIDTH 221 0
DWIDTH 7 0
BBX 3 8 2 15
BITMAP
FC
BC
B8
B8
B8
78
74
74
ENDCHAR
STARTCHAR parenleft
ENCODING 40
SWIDTH 295 0
DWIDTH 9 0
BBX 8 28 1 -5
BITMAP
007D
00F8
02F0
07D0
0BC0
1F80
2F40
3F00
3E00
7D00
7D00
BC00
BC00
BC00
BC00
BC00
BC00
7D00
7D00
3E00
3F00
2F40
1F80
0BC0
07D0
02F0
01F4
007D
ENDCHAR
STARTCHAR parenright
ENCODING 41
SWIDTH 295 0
DWIDTH 9 0
BBX 8 28 1 -5
BITMAP
B800
3E00
1F40
0F80
07D0
03E0
02F0
01F4
01F8
00F8
00BC
00BC
00BC
00BC
00BD
00BC
00BC
00BC
00F8
00F8
01F4
02F0
03E0
07D0
0F80
1F40
3E00
B800
ENDCHAR
STARTCHAR asterisk
ENCODING 42
SWIDTH 551 0
DWIDTH 18 0
BBX 15 14 1 10
BITMAP
000BD000
000BC000
0007C000
0007C000
14078014
7F9796FC
BFFFFFFC
156FE954
001FF000
007DB800
00F87E00
02F42F40
07F01F80
00900900
ENDCHAR
STARTCHAR plus
ENCODING 43
SWIDTH 571 0
DWIDTH 18 0
BBX 16 16 1 3
BITMAP
00028000
0003D000
0003D000
0003D000
0003D000
0003D000
0003D000
7FFFFFFE
7FFFFFFE
0003D000
0003D000
0003D000
0003D000
0003D000
0003D000
00028000
ENDCHAR
STARTCHAR comma
ENCODING 44
SWIDTH 245 0
DWIDTH 8 0
BBX 5 8 1 -4
BITMAP
1F80
2F40
2F00
3E00
7D00
7C00
B800
F000
ENDCHAR
STARTCHAR hyphen
ENCODING 45
SWIDTH 321 0
DWIDTH 10 0
BBX 8 3 1 7
BITMAP
BFFF
BFFF
5555
ENDCHAR
STARTCHAR period
ENCODING 46
SWIDTH 266 0
DWIDTH 9 0
BBX 4 5 2 0
BITMAP
04
7E
BF
BF
2D
ENDCHAR
STARTCHAR slash
ENCODING 47
SWIDTH 367 0
DWIDTH 12 0
BBX 12 23 0 0
BITMAP
00007D
0000BC
0000F4
0001F0
0003E0
0007D0
000BC0
000F80
001F40
002F00
003E00
007C00
00B800
01F400
02F000
03E000
07D000
0BC000
0F8000
1F4000
2E0000
3D0000
BC0000
ENDCHAR
STARTCHAR zero
ENCODING 48
SWIDTH 571 0
DWIDTH 18 0
BBX 16 23 1 0
BITMAP
002BF900
01FFFF40
07F95FD0
0FD002F0
1F4000F8
2F0000BC
3E00007D
3D00007D
7D00003E
7D00003E
7D00003E
7D00003E
7D00003E
7D00003E
7D00003E
3D00007D
3E00007D
2F0000BC
1F4000F8
0BD002F0
07F95FE0
01FFFF80
001BF900
ENDCHAR
STARTCHAR one
ENCODING 49
SWIDTH 571 0
DWIDTH 18 0
BBX 9 23 3 0
BITMAP
002F40
01FF40
07FF40
2F9F40
BD1F40
201F40
001F40
001F40
001F40
001F40
001F40
001F40
001F40
001F40
001F40
001F40
001F40
001F40
001F40
001F40
001F40
001F40
001F40
ENDCHAR
STARTCHAR two
ENCODING 50
SWIDTH 571 0
DWIDTH 18 0
BBX 16 23 1 0
BITMAP
006FF900
0BFFFF80
2FE56FE0
1E0003F0
000001F4
000000F8
000000F8
000001F4
000001F4
000003E0
00000BD0
00001F80
00007E00
0001F800
0007F000
001FC000
007E0000
01F80000
07E00000
1F800000
7F555555
7FFFFFFE
7FFFFFFE
ENDCHAR
STARTCHAR three
ENCODING 51
SWIDTH 571 0
DWIDTH 18 0
BBX 16 23 1 0
BITMAP
01AFF900
1BFFFF80
3FA55FE0
290002F4
000001F8
000000F8
000000F8
000001F4
000007F0
00006FC0
00FFF900
00FFFE40
00556FE0
000002F8
000000BC
0000007D
0000007D
0000007D
000000BC
500002F8
BE556FF0
7FFFFF80
1AFFE900
ENDCHAR
STARTCHAR four
ENCODING 52
SWIDTH 571 0
DWIDTH 18 0
BBX 18 23 0 0
BITMAP
000002F400
00000BF400
00001FF400
00003DF400
0000B8F400
0001F1F400
0007D1F400
000B81F400
002F01F400
007D01F400
00F801F400
02E001F400
07C001F400
1F4001F400
3E0001F400
7FFFFFFFE0
7FFFFFFFE0
155555F950
000001F400
000001F400
000001F400
000001F400
000001F400
ENDCHAR
STARTCHAR five
ENCODING 53
SWIDTH 571 0
DWIDTH 18 0
BBX 15 23 2 0
BITMAP
2FFFFFC0
2FFFFFC0
2E555540
2E000000
3E000000
3D000000
3D000000
3D000000
7D000000
7EFFE400
7FFFFE00
1955BFC0
00000BE0
000002F0
000001F4
000001F4
000001F4
000001F4
000003F0
40000BD0
F955BF80
FFFFFE00
1BFF9000
ENDCHAR
STARTCHAR six
ENCODING 54
SWIDTH 571 0
DWIDTH 18 0
BBX 15 23 2 0
BITMAP
0006FF80
007FFFC0
02FE5140
0BE00000
1F800000
3F000000
7D000000
BC000000
BC000000
F82BF900
F9FFFF80
FBD41BE0
FE0002F0
FC0001F4
F80000F8
F80000F8
B80000F8
BC0000F8
7D0001F4
2F4007F0
0FE56FD0
02FFFF40
006FE400
ENDCHAR
STARTCHAR seven
ENCODING 55
SWIDTH 571 0
DWIDTH 18 0
BBX 16 23 1 0
BITMAP
BFFFFFFE
BFFFFFFE
555555BD
000000BC
000000F8
000002F0
000003E0
000007D0
00000F80
00001F40
00002F00
00007D00
0000BC00
0001F800
0002F000
0003E000
000BD000
000F8000
001F4000
003F0000
007D0000
00FC0000
01F80000
ENDCHAR
STARTCHAR eight
ENCODING 56
SWIDTH 571 0
DWIDTH 18 0
BBX 16 23 1 0
BITMAP
006FF900
02FFFFD0
0BE51BF0
1F8001F8
2F0000B8
2F0000BC
1F0000F8
1F8001F4
0BD007E0
02F92F80
00BFFD00
007FFD00
02F9BFD0
0FD007F4
2F4001FC
3E00007D
7D00003E
7D00003E
7D00007D
3F4000BC
1FE417F4
07FFFFD0
006FFA00
ENDCHAR
STARTCHAR nine
ENCODING 57
SWIDTH 571 0
DWIDTH 18 0
BBX 16 23 1 0
BITMAP
006FE800
02FFFF40
0BE56FD0
1F8002F0
3E0000F8
3D0000BC
7D00007D
7D00003D
7D00003D
3E0000BE
2F4001FE
1FE41BBD
07FFFE7D
00AFE47D
0000007C
000000BC
000000F8
000001F4
000007E0
00001FC0
0555BF40
0BFFF900
0BFE9000
ENDCHAR
STARTCHAR colon
ENCODING 58
SWIDTH 266 0
DWIDTH 9 0
BBX 4 17 2 0
BITMAP
3E
BF
BF
7E
00
00
00
00
00
00
00
00
04
7E
BF
BF
2D
ENDCHAR
STARTCHAR semicolon
ENCODING 59
SWIDTH 266 0
DWIDTH 9 0
BBX 5 21 1 -4
BITMAP
1F40
2FC0
2FC0
1F80
0000
0000
0000
0000
0000
0000
0000
0000
0000
1F80
2F40
2F00
3E00
7D00
7C00
B800
F000
ENDCHAR
STARTCHAR less
ENCODING 60
SWIDTH 571 0
DWIDTH 18 0
BBX 16 15 1 4
BITMAP
00000006
0000007E
00000BF9
0000BF90
000BF800
01BF4000
1BF40000
7F400000
7F900000
07FE0000
006FE400
0002FF80
00001BF9
000001BE
0000000A
ENDCHAR
STARTCHAR equal
ENCODING 61
SWIDTH 571 0
DWIDTH 18 0
BBX 15 9 2 7
BITMAP
FFFFFFF4
FFFFFFF4
00000000
00000000
00000000
00000000
00000000
FFFFFFF4
FFFFFFF4
ENDCHAR
STARTCHAR greater
ENCODING 62
SWIDTH 571 0
DWIDTH 18 0
BBX 16 15 1 4
BITMAP
60000000
7E000000
2FE40000
02FE4000
001FE400
0001FE40
00001BE4
000001BE
000006FE
00006FE0
001BF900
01BF9000
2FF80000
7E400000
64000000
ENDCHAR
STARTCHAR question
ENCODING 63
SWIDTH 429 0
DWIDTH 14 0
BBX 13 23 0 0
BITMAP
06BFA000
7FFFFD00
3E95BF00
10001F80
00000B80
00000BC0
00000B80
00001F40
00003F00
0001FC00
0007E000
001F8000
003E0000
007C0000
00780000
00780000
00000000
00000000
00100000
00BC0000
01FD0000
00FD0000
00B80000
ENDCHAR
STARTCHAR at
ENCODING 64
SWIDTH 898 0
DWIDTH 29 0
BBX 25 26 2 -3
BITMAP
00006BFE900000
0006FFFFFD0000
002FE4017F8000
00FD000007F000
03E0000000F800
0BC00000003D00
1F000AFE901F00
2E007FFFF00F40
7C00F902E00B40
7802E002E00780
B403D002E00780
F407C002E007C0
F00B8002E00780
F00B8002E00780
F00B8003D00B80
F407C007E00B40
F407D00BE01F00
B802F41EB47D00
7801FFF87FF800
3D002FD01FD000
2F000000000000
0F800000000000
07F40000040000
01FE5005B80000
002FFFFFF80000
0001AFFA400000
ENDCHAR
STARTCHAR A
ENCODING 65
SWIDTH 632 0
DWIDTH 20 0
BBX 20 23 0 0
BITMAP
00003D0000
0000BF0000
0000FF4000
0001FB8000
0002E7C000
0003D3D000
000BC2E000
000F81F400
001F40F800
002E00BC00
003D003D00
007C002E00
00F8001F00
01FFFFFF80
02FFFFFFC0
03E5555BD0
07C00003E0
0F800002F0
1F400001F4
2F000000BC
3E0000007D
7D0000003E
BC0000002F
ENDCHAR
STARTCHAR B
ENCODING 66
SWIDTH 647 0
DWIDTH 21 0
BBX 16 23 3 0
BITMAP
FFFFE900
FFFFFFD0
FD556FF4
F80002F8
F80000FC
F80000BD
F80000BC
F80000BC
F80001F8
F8001BE0
FFFFFE40
FFFFFE40
FD555BF4
F80001FC
F800007E
F800003F
F800003F
F800003F
F800007E
F80001FD
FD555BF8
FFFFFFE0
FFFFFA00
ENDCHAR
STARTCHAR C
ENCODING 67
SWIDTH 630 0
DWIDTH 20 0
BBX 17 23 2 0
BITMAP
0006BFE900
006FFFFFC0
01FFA5AF80
07F8000100
1FD0000000
2F40000000
7F00000000
BD00000000
BC00000000
FC00000000
FC00000000
F800000000
FC00000000
FC00000000
BC00000000
BD00000000
7E00000000
3F40000000
1FD0000000
0BF4000000
02FF956B40
007FFFFF40
0006FFE900
ENDCHAR
STARTCHAR D
ENCODING 68
SWIDTH 729 0
DWIDTH 23 0
BBX 19 23 3 0
BITMAP
FFFFE90000
FFFFFFD000
FD556FF800
F80001FE00
F800002F80
F800000FC0
F8000007E0
F8000003F0
F8000002F0
F8000002F4
F8000001F4
F8000001F4
F8000002F4
F8000002F4
F8000002F0
F8000003E0
F800000BD0
F800001FC0
F800007F40
F80001FE00
FD55AFF800
FFFFFF9000
FFFFE90000
ENDCHAR
STARTCHAR E
ENCODING 69
SWIDTH 556 0
DWIDTH 18 0
BBX 13 23 3 0
BITMAP
FFFFFFC0
FFFFFFC0
FD555540
F8000000
F8000000
F8000000
F8000000
F8000000
F8000000
F8000000
FFFFFF40
FFFFFF40
FD555500
F8000000
F8000000
F8000000
F8000000
F8000000
F8000000
F8000000
FD555540
FFFFFFC0
FFFFFFC0
ENDCHAR
STARTCHAR F
ENCODING 70
SWIDTH 516 0
DWIDTH 17 0
BBX 13 23 3 0
BITMAP
FFFFFFC0
FFFFFFC0
FD555540
F8000000
F8000000
F8000000
F8000000
F8000000
F8000000
F8000000
F8000000
FFFFFF40
FFFFFF40
FD555500
F8000000
F8000000
F8000000
F8000000
F8000000
F8000000
F8000000
F8000000
F8000000
ENDCHAR
STARTCHAR G
ENCODING 71
SWIDTH 728 0
DWIDTH 23 0
BBX 19 23 2 0
BITMAP
0001AFFA40
002FFFFFF4
01FFA56BF0
07F9000050
0FD0000000
2F80000000
3F00000000
7D00000000
BC00000000
FC00000000
FC00000000
F80002FFFC
F80002FFFC
FC000155BC
BC000000BC
BD000000BC
7E000000BC
2F400000BC
1FD00000BC
0BF80000BC
02FFA55AFC
007FFFFFFC
0006BFFA50
ENDCHAR
STARTCHAR H
ENCODING 72
SWIDTH 737 0
DWIDTH 24 0
BBX 18 23 3 0
BITMAP
F8000007D0
F8000007D0
F8000007D0
F8000007D0
F8000007D0
F8000007D0
F8000007D0
F8000007D0
F8000007D0
F8000007D0
FFFFFFFFD0
FFFFFFFFD0
FD555557D0
F8000007D0
F8000007D0
F8000007D0
F8000007D0
F8000007D0
F8000007D0
F8000007D0
F8000007D0
F8000007D0
F8000007D0
ENDCHAR
STARTCHAR I
ENCODING 73
SWIDTH 278 0
DWIDTH 9 0
BBX 3 23 3 0
BITMAP
F8
F8
F8
F8
F8
F8
F8
F8
F8
F8
F8
F8
F8
F8
F8
F8
F8
F8
F8
F8
F8
F8
F8
ENDCHAR
STARTCHAR J
ENCODING 74
SWIDTH 267 0
DWIDTH 9 0
BBX 9 29 -3 -6
BITMAP
000F80
000F80
000F80
000F80
000F80
000F80
000F80
000F80
000F80
000F80
000F80
000F80
000F80
000F80
000F80
000F80
000F80
000F80
000F80
000F80
000F80
000F80
000F80
000F80
001F40
002F40
55BE00
BFFC00
7F9000
ENDCHAR
STARTCHAR K
ENCODING 75
SWIDTH 613 0
DWIDTH 20 0
BBX 17 23 3 0
BITMAP
F800007E00
F80001FC00
F80007F000
F8000FC000
F8003F4000
F800BD0000
F802F40000
F80BD00000
F82F400000
F87E000000
F9FD000000
FFFF400000
FF5FC00000
FD0BE00000
F802F40000
F800FD0000
F8007F0000
F8002F8000
F8000BD000
F80003F000
F80001F800
F80000BE00
F800002F40
ENDCHAR
STARTCHAR L
ENCODING 76
SWIDTH 519 0
DWIDTH 17 0
BBX 13 23 3 0
BITMAP
F8000000
F8000000
F8000000
F8000000
F8000000
F8000000
F8000000
F8000000
F8000000
F8000000
F8000000
F8000000
F8000000
F8000000
F8000000
F8000000
F8000000
F8000000
F8000000
F8000000
FD555540
FFFFFFC0
FFFFFFC0
ENDCHAR
STARTCHAR M
ENCODING 77
SWIDTH 902 0
DWIDTH 29 0
BBX 23 23 3 0
BITMAP
FF40000007F8
FF8000000BF8
FFC000000FF8
FBD000002FB8
F6F000003DB8
F9F400007CB8
F8F80000B8F8
F8BC0000F4F8
F87D0001F0F8
F83E0003E0F8
F82F0007D0F8
F80F800B80F8
F80BC00F40F8
F807D01F00F8
F803E02E00F8
F802F07D00F8
F801F4BC00F8
F800F8F800F8
F8007EF000F8
F8003FE000F8
F8002FD000F8
F8001FC000F8
F8000F8000F8
ENDCHAR
STARTCHAR N
ENCODING 78
SWIDTH 753 0
DWIDTH 24 0
BBX 18 23 3 0
BITMAP
FD000002F0
FF000002F0
FF800002F0
FFD00002F0
F7F00002F0
F5F80002F0
F8BD0002F0
F83F0002F0
F81F8002F0
F80BD002F0
F803F002F0
F801F802F0
F800BD02F0
F8007F02F0
F8002F81F0
F8000FD1F0
F80007E1F0
F80002F5F0
F80000FDF0
F800007FF0
F800002FF0
F800000FF0
F8000007F0
ENDCHAR
STARTCHAR O
ENCODING 79
SWIDTH 778 0
DWIDTH 25 0
BBX 21 23 2 0
BITMAP
0006FFE40000
007FFFFF4000
02FF95BFE000
0BF40007F800
1FC00000FD00
3F4000007E00
7E0000002F40
BD0000001F40
BC0000000F80
FC0000000F80
F80000000FC0
F80000000FC0
F80000000FC0
FC0000000F80
BC0000000F80
BD0000001F40
7E0000002F40
3F4000007E00
1FC00000FD00
0BF40007F800
02FE95AFE000
007FFFFF4000
0006FFE40000
ENDCHAR
STARTCHAR P
ENCODING 80
SWIDTH 602 0
DWIDTH 19 0
BBX 15 23 3 0
BITMAP
FFFFA400
FFFFFF40
FD55BFD0
F8000BF0
F80002F4
F80001F8
F80000F8
F80001F8
F80001F4
F80002F4
F80007E0
F8016FC0
FFFFFE40
FFFFE400
FD540000
F8000000
F8000000
F8000000
F8000000
F8000000
F8000000
F8000000
F8000000
ENDCHAR
STARTCHAR Q
ENCODING 81
SWIDTH 778 0
DWIDTH 25 0
BBX 21 28 2 -5
BITMAP
0006FFE40000
007FFFFF4000
02FF95BFE000
0BF40007F800
1FC00000FD00
3F4000007E00
7E0000002F40
BD0000001F40
BC0000000F80
FC0000000F80
F80000000FC0
F80000000FC0
F80000000FC0
FC0000000FC0
BC0000000F80
BD0000001F40
7E0000002F40
3F4000007E00
1FC00000FD00
0BF40007F800
02FE95AFE000
007FFFFF4000
0006FFF80000
000001FD0000
0000007F4000
0000001FD000
0000000BF400
00000002FD00
ENDCHAR
STARTCHAR R
ENCODING 82
SWIDTH 618 0
DWIDTH 20 0
BBX 16 23 3 0
BITMAP
FFFFE400
FFFFFF40
FD55AFD0
F80007F0
F80002F4
F80001F8
F80000F8
F80001F8
F80001F4
F80003F0
F8006FD0
FFFFFF40
FFFFF400
FD55F800
F800BD00
F8007E00
F8002F40
F8000FC0
F80007E0
F80003F4
F80001F8
F80000BD
F800007F
ENDCHAR
STARTCHAR S
ENCODING 83
SWIDTH 548 0
DWIDTH 18 0
BBX 15 23 1 0
BITMAP
006FFA40
02FFFFF4
0FF95BF0
2F800010
3F000000
3E000000
3E000000
2F000000
1F800000
0BF80000
02FF9000
006FFE00
0002FFD0
00001FF0
000002F8
000000FC
000000BC
000000BC
000000F8
500002F4
7E956FE0
7FFFFF80
1AFFE400
ENDCHAR
STARTCHAR T
ENCODING 84
SWIDTH 553 0
DWIDTH 18 0
BBX 18 23 0 0
BITMAP
BFFFFFFFD0
BFFFFFFFD0
5556F55540
0001F40000
0001F40000
0001F40000
0001F40000
0001F40000
0001F40000
0001F40000
0001F40000
0001F40000
0001F40000
0001F40000
0001F40000
0001F40000
0001F40000
0001F40000
0001F40000
0001F40000
0001F40000
0001F40000
0001F40000
ENDCHAR
STARTCHAR U
ENCODING 85
SWIDTH 728 0
DWIDTH 23 0
BBX 18 23 3 0
BITMAP
F8000007D0
F8000007D0
F8000007D0
F8000007D0
F8000007D0
F8000007D0
F8000007D0
F8000007D0
F8000007D0
F8000007D0
F8000007D0
F8000007D0
F8000007D0
F8000007D0
F8000007D0
F8000007D0
F8000007D0
BC00000BC0
7E00001F80
2F80007F00
0FF95AFD00
02FFFFF400
006BFE4000
ENDCHAR
STARTCHAR V
ENCODING 86
SWIDTH 595 0
DWIDTH 19 0
BBX 19 23 0 0
BITMAP
BC000000FC
7D000001F8
3E000002F0
2F000003E0
1F400007D0
0F80000BC0
0BC0000F80
07D0001F40
03E0002F00
02F0003E00
01F800BD00
00FC00FC00
00BD01F800
007E02F400
003F03F000
001F47D000
000F8BC000
000BCF8000
0007DF4000
0003EF0000
0002FE0000
0001FD0000
0000FC0000
ENDCHAR
STARTCHAR W
ENCODING 87
SWIDTH 925 0
DWIDTH 30 0
BBX 29 23 0 0
BITMAP
7D00003F40000BC0
7E00003F80000F80
3F00007FC0001F80
2F0000BFC0002F40
1F4000F7D0002F00
0F8001F6E0003E00
0FC002F1F0007D00
0BC003E1F400BD00
07D007D0F800BC00
03E00BC0BC00F800
02F00B807D01F400
02F00F403E02F000
01F41F402F02F000
00F82F001F43E000
00BC3E000F47D000
007C7D000B8BC000
007D7C0007CB8000
003EB80007DF8000
002EF40003EF4000
001FF00002FF0000
000FF00001FE0000
000FE00000FD0000
000BD00000BD0000
ENDCHAR
STARTCHAR X
ENCODING 88
SWIDTH 577 0
DWIDTH 18 0
BBX 18 23 0 0
BITMAP
3F000007D0
1F80000F80
0BC0002F40
03E0007E00
01F400FC00
00BC01F400
007E03E000
002F4BC000
000FDF4000
0007FE0000
0002FC0000
0002FC0000
0007FE0000
000F9F4000
002F4BC000
003E07E000
00BC02F400
01F400FC00
03E0007E00
0BC0002F00
1F40001F80
3F00000BD0
BD000003F0
ENDCHAR
STARTCHAR Y
ENCODING 89
SWIDTH 560 0
DWIDTH 18 0
BBX 18 23 0 0
BITMAP
BD000007E0
7E00000BC0
2F40001F80
0F80002F00
0BD0007D00
03E000FC00
02F401F400
00FC03F000
007D07D000
003F0F8000
001F6F4000
000BFE0000
0007FC0000
0002F80000
0001F40000
0001F40000
0001F40000
0001F40000
0001F40000
0001F40000
0001F40000
0001F40000
0001F40000
ENDCHAR
STARTCHAR Z
ENCODING 90
SWIDTH 570 0
DWIDTH 18 0
BBX 16 23 1 0
BITMAP
7FFFFFFE
7FFFFFFE
155555FD
000001F8
000003F0
00000BD0
00001F80
00003F00
0000BD00
0001F800
0003F000
000BD000
001F8000
003F4000
00BE0000
01F80000
02F40000
07E00000
1FC00000
2F400000
7E555555
BFFFFFFF
BFFFFFFF
ENDCHAR
STARTCHAR bracketleft
ENCODING 91
SWIDTH 329 0
DWIDTH 11 0
BBX 8 28 2 -5
BITMAP
7FFE
7FFE
7D54
7D00
7D00
7D00
7D00
7D00
7D00
7D00
7D00
7D00
7D00
7D00
7D00
7D00
7D00
7D00
7D00
7D00
7D00
7D00
7D00
7D00
7D00
7D54
7FFE
7FFE
ENDCHAR
STARTCHAR backslash
ENCODING 92
SWIDTH 367 0
DWIDTH 12 0
BBX 12 23 0 0
BITMAP
7C0000
3D0000
2F0000
1F4000
0F8000
0BC000
07D000
03E000
02F000
00F400
00B800
007D00
003E00
002F00
001F40
000F80
000BC0
0007D0
0002E0
0001F0
0000F8
0000BC
00007D
ENDCHAR
STARTCHAR bracketright
ENCODING 93
SWIDTH 329 0
DWIDTH 11 0
BBX 8 28 0 -5
BITMAP
7FFF
7FFF
156F
002F
002F
002F
002F
002F
002F
002F
002F
002F
002F
002F
002F
002F
002F
002F
002F
002F
002F
002F
002F
002F
002F
156F
7FFF
7FFF
ENDCHAR
STARTCHAR asciicircum
ENCODING 94
SWIDTH 541 0
DWIDTH 17 0
BBX 16 14 1 9
BITMAP
000B4000
001FC000
002FD000
003DF000
00B8B400
00F07C00
02E02E00
03C01F00
0B800B80
0F4003C0
2E0002E0
3D0000F4
B80000B8
F400003D
ENDCHAR
STARTCHAR underscore
ENCODING 95
SWIDTH 448 0
DWIDTH 14 0
BBX 15 2 0 -5
BITMAP
FFFFFFF4
FFFFFFF4
ENDCHAR
STARTCHAR grave
ENCODING 96
SWIDTH 577 0
DWIDTH 18 0
BBX 6 5 6 19
BITMAP
BE00
3F00
0F80
07D0
00F0
ENDCHAR
STARTCHAR a
ENCODING 97
SWIDTH 556 0
DWIDTH 18 0
BBX 15 17 1 0
BITMAP
006FF900
07FFFF80
07E55BE0
010003F0
000002F0
000001F4
000001F4
006AFFF4
07FFFFF4
2FD401F4
7E0001F4
7D0002F4
BD0003F4
7E000BF4
3F917FF4
1FFFF8F4
06FF90B4
ENDCHAR
STARTCHAR b
ENCODING 98
SWIDTH 612 0
DWIDTH 20 0
BBX 16 24 2 0
BITMAP
7D000000
7D000000
7D000000
7D000000
7D000000
7D000000
7D000000
7D1BF900
7DBFFFD0
7FE55BF4
7F8001F8
7F0000BD
7E00007D
7D00003E
7D00003E
7D00003E
7D00003E
7D00003E
7E00007D
7F0000BD
7F8001F8
7EF55BF0
7CBFFFD0
781BF900
ENDCHAR
STARTCHAR c
ENCODING 99
SWIDTH 476 0
DWIDTH 15 0
BBX 13 17 1 0
BITMAP
001BFE40
01FFFFC0
07F95B80
0FD00000
1F400000
2F000000
3E000000
3E000000
7D000000
3E000000
3E000000
3F000000
2F400000
0FD00000
07F956C0
01FFFFC0
001BFA40
ENDCHAR
STARTCHAR d
ENCODING 100
SWIDTH 612 0
DWIDTH 20 0
BBX 16 24 1 0
BITMAP
0000002F
0000002F
0000002F
0000002F
0000002F
0000002F
0000002F
006FE82F
02FFFF6F
07F55BFF
0FC001FF
2F40007F
3F00003F
3E00003F
3E00002F
7D00002F
3E00002F
3E00003F
3F00003F
2F40007F
1FC000FF
0BF55BEF
02FFFF5F
006FE81F
ENDCHAR
STARTCHAR e
ENCODING 101
SWIDTH 561 0
DWIDTH 18 0
BBX 16 17 1 0
BITMAP
001BF900
01FFFF80
07F55BE0
0FC002F4
1F4000F8
2F0000BC
3E0000BD
3FFFFFFD
7FFFFFFD
3E000000
3E000000
2F000000
1F400000
0FD00004
07F956B8
01FFFFF8
001BFE90
ENDCHAR
STARTCHAR f
ENCODING 102
SWIDTH 338 0
DWIDTH 11 0
BBX 12 24 0 0
BITMAP
000BFE
003FFF
00BE55
00F800
01F400
01F000
01F000
1BFFF4
BFFFF4
02F400
01F000
01F000
01F000
01F000
01F000
01F000
01F000
01F000
01F000
01F000
01F000
01F000
01F000
01F000
ENDCHAR
STARTCHAR g
ENCODING 103
SWIDTH 547 0
DWIDTH 18 0
BBX 17 25 0 -8
BITMAP
002BFFFF80
01FFFFFE80
07F407F000
0BC001F400
0F8000F800
0F8000F800
0F8000F800
0BC001F400
07E407E000
01FFFF8000
007FF90000
01F4000000
03D0000000
03D0000000
03E0000000
02FFFFE400
01FFFFFD00
0BE555BF00
2E00001F40
7D00000F80
7C00000F40
7D00002F00
2F9005FD00
0BFFFFF400
01BFFA4000
ENDCHAR
STARTCHAR h
ENCODING 104
SWIDTH 613 0
DWIDTH 20 0
BBX 15 24 2 0
BITMAP
7D000000
7D000000
7D000000
7D000000
7D000000
7D000000
7D000000
7D1BFE40
7DBFFFD0
7EF55BF4
7F8001F8
7F0000BC
7E0000BC
7D0000BC
7D0000BC
7D0000BC
7D0000BC
7D0000BC
7D0000BC
7D0000BC
7D0000BC
7D0000BC
7D0000BC
7D0000BC
ENDCHAR
STARTCHAR i
ENCODING 105
SWIDTH 252 0
DWIDTH 8 0
BBX 4 24 2 0
BITMAP
14
7D
7E
3D
00
00
00
7D
7D
7D
7D
7D
7D
7D
7D
7D
7D
7D
7D
7D
7D
7D
7D
7D
ENDCHAR
STARTCHAR j
ENCODING 106
SWIDTH 252 0
DWIDTH 8 0
BBX 8 32 -2 -8
BITMAP
0014
007D
007E
003D
0000
0000
0000
007D
007D
007D
007D
007D
007D
007D
007D
007D
007D
007D
007D
007D
007D
007D
007D
007D
007D
007D
007D
007D
00BD
55FC
BFF4
BF90
ENDCHAR
STARTCHAR k
ENCODING 107
SWIDTH 524 0
DWIDTH 17 0
BBX 14 24 2 0
BITMAP
7D000000
7D000000
7D000000
7D000000
7D000000
7D000000
7D000000
7D000BD0
7D002F80
7D007E00
7D01F800
7D07E000
7D1F8000
7D7E0000
7DFD0000
7FFF0000
7F9F8000
7E0BE000
7D02F400
7D00FC00
7D007E00
7D002F80
7D000BD0
7D0003F0
ENDCHAR
STARTCHAR l
ENCODING 108
SWIDTH 252 0
DWIDTH 8 0
BBX 4 24 2 0
BITMAP
7D
7D
7D
7D
7D
7D
7D
7D
7D
7D
7D
7D
7D
7D
7D
7D
7D
7D
7D
7D
7D
7D
7D
7D
ENDCHAR
STARTCHAR m
ENCODING 109
SWIDTH 930 0
DWIDTH 30 0
BBX 26 17 2 0
BITMAP
7C1BF9006FE400
7C7FFF82FFFE00
7DE55FDB957F40
7F8003FE001F80
7F0002FC000BC0
7E0001F8000BC0
7D0001F40007D0
7D0001F40007D0
7D0001F40007D0
7D0001F40007D0
7D0001F40007D0
7D0001F40007D0
7D0001F40007D0
7D0001F40007D0
7D0001F40007D0
7D0001F40007D0
7D0001F40007D0
ENDCHAR
STARTCHAR n
ENCODING 110
SWIDTH 613 0
DWIDTH 20 0
BBX 15 17 2 0
BITMAP
7C1BFE40
7CBFFFD0
7EF55BF4
7F8001F8
7F0000BC
7E0000BC
7D0000BC
7D0000BC
7D0000BC
7D0000BC
7D0000BC
7D0000BC
7D0000BC
7D0000BC
7D0000BC
7D0000BC
7D0000BC
ENDCHAR
STARTCHAR o
ENCODING 111
SWIDTH 604 0
DWIDTH 19 0
BBX 17 17 1 0
BITMAP
001BFA0000
01FFFFD000
07F957F800
0FD000BD00
1F40003E00
2F00002F00
3E00001F40
3E00001F40
7D00001F80
3E00001F40
3E00001F40
2F00002F00
1F40003E00
0FD000BD00
07F957F800
01FFFFE000
001BFA0000
ENDCHAR
STARTCHAR p
ENCODING 112
SWIDTH 612 0
DWIDTH 20 0
BBX 16 25 2 -8
BITMAP
7C1BF900
7CBFFFD0
7EE55BF4
7F8001F8
7F0000BD
7E00007D
7D00003E
7D00003E
7D00003E
7D00003E
7D00003E
7E00007D
7F0000BD
7F8001F8
7FF55BF0
7DBFFFD0
7D1BF900
7D000000
7D000000
7D000000
7D000000
7D000000
7D000000
7D000000
7D000000
ENDCHAR
STARTCHAR q
ENCODING 113
SWIDTH 612 0
DWIDTH 20 0
BBX 16 25 1 -8
BITMAP
006FE81F
02FFFF5F
07F55BEF
0FC001FF
2F40007F
3F00003F
3E00003F
3E00002F
7D00002F
3E00002F
3E00003F
3F00003F
2F40007F
1FC000FF
0BF55BEF
02FFFF6F
006FE82F
0000002F
0000002F
0000002F
0000002F
0000002F
0000002F
0000002F
0000002F
ENDCHAR
STARTCHAR r
ENCODING 114
SWIDTH 408 0
DWIDTH 13 0
BBX 11 17 2 0
BITMAP
7C0BF4
7C7FF4
7DF964
7FD000
7F4000
7F0000
7E0000
7D0000
7D0000
7D0000
7D0000
7D0000
7D0000
7D0000
7D0000
7D0000
7D0000
ENDCHAR
STARTCHAR s
ENCODING 115
SWIDTH 477 0
DWIDTH 15 0
BBX 13 17 1 0
BITMAP
01BFE900
0FFFFF40
3F956F00
7D000000
7D000000
3E000000
2FD00000
0BFE4000
00BFF400
0006FE00
00007F40
00000F80
00000B80
00000F80
69557F40
7FFFFD00
1BFF9000
ENDCHAR
STARTCHAR t
ENCODING 116
SWIDTH 353 0
DWIDTH 11 0
BBX 11 21 0 0
BITMAP
00E000
01E000
02E000
03E000
6FFFF8
BFFFF8
03E000
03E000
03E000
03E000
03E000
03E000
03E000
03E000
03E000
03E000
03E000
03F000
02F914
00FFF8
002FF4
ENDCHAR
STARTCHAR u
ENCODING 117
SWIDTH 613 0
DWIDTH 20 0
BBX 15 17 2 0
BITMAP
7D0000BC
7D0000BC
7D0000BC
7D0000BC
7D0000BC
7D0000BC
7D0000BC
7D0000BC
7D0000BC
7D0000BC
7D0000FC
7D0000FC
7D0001FC
3F0007FC
2FD56FBC
0BFFFD7C
01BFA07C
ENDCHAR
STARTCHAR v
ENCODING 118
SWIDTH 500 0
DWIDTH 16 0
BBX 16 17 0 0
BITMAP
BC00003F
7D00007D
3E0000BC
2F0000F8
1F4001F4
0F8002F0
0BC003E0
03E007C0
02F00F80
01F41F40
00F82F00
00BC3E00
007D7D00
003EBC00
001FF400
000FF000
000BE000
ENDCHAR
STARTCHAR w
ENCODING 119
SWIDTH 777 0
DWIDTH 25 0
BBX 25 17 0 0
BITMAP
BD0003F0001F40
7D0007F4002F00
3E000BF8002F00
2F000FBC003E00
1F401F3D007D00
0F402E3E00BC00
0F803D2F00F800
0BC07C1F40F400
07D0B80F81F400
03E0F40BC2F000
02E1F007D3E000
01F2E003D3D000
01F7D002E7C000
00FBD001FB8000
00BFC000FF8000
007F8000BF4000
003F40007F0000
ENDCHAR
STARTCHAR x
ENCODING 120
SWIDTH 523 0
DWIDTH 17 0
BBX 15 17 1 0
BITMAP
BD0001F4
3F0007E0
1F800BC0
0BD02F40
02F07E00
01F8F800
007EF400
002FD000
001FC000
003FE000
00BDF400
01F4BD00
07E03F00
0FC01F80
2F400BD0
7E0002F0
FC0001F8
ENDCHAR
STARTCHAR y
ENCODING 121
SWIDTH 503 0
DWIDTH 16 0
BBX 16 25 0 -8
BITMAP
BC00003F
7D00007E
3E0000BC
2F0000F8
1F8001F4
0BC002F0
07D003E0
03E007D0
02F00BC0
01F40F80
00B81F00
007C2E00
003D3D00
002E7C00
001FB800
000BF400
0007F000
0007E000
000BC000
000F8000
001F4000
003F0000
55FD0000
BFF40000
BF900000
ENDCHAR
STARTCHAR z
ENCODING 122
SWIDTH 467 0
DWIDTH 15 0
BBX 13 17 1 0
BITMAP
3FFFFF40
3FFFFF40
00002F00
00007D00
0000F800
0002F000
000BD000
001F8000
003E0000
00BD0000
01F40000
03E00000
0BC00000
1F400000
7E000000
BFFFFF80
BFFFFF80
ENDCHAR
STARTCHAR braceleft
ENCODING 123
SWIDTH 378 0
DWIDTH 12 0
BBX 10 28 1 -5
BITMAP
0006F0
002FF0
007F50
00FC00
00F800
01F400
01F400
01F400
01F400
01F400
01F400
02F000
1BE000
FE4000
FE4000
5BE000
02F000
01F400
01F400
01F400
01F400
01F400
01F400
00F800
00FC00
00BF50
002FF0
0006F0
ENDCHAR
STARTCHAR bar
ENCODING 124
SWIDTH 550 0
DWIDTH 18 0
BBX 3 32 7 -8
BITMAP
7C
7C
7C
7C
7C
7C
7C
7C
7C
7C
7C
7C
7C
7C
7C
7C
7C
7C
7C
7C
7C
7C
7C
7C
7C
7C
7C
7C
7C
7C
7C
7C
ENDCHAR
STARTCHAR braceright
ENCODING 125
SWIDTH 378 0
DWIDTH 12 0
BBX 11 28 1 -5
BITMAP
F90000
FF8000
5FE000
03F000
01F400
01F400
01F400
01F400
01F400
01F400
01F400
00F800
007E40
001BF4
001BF4
00BE50
00F800
01F400
01F400
01F400
01F400
01F400
01F400
01F400
02F000
5BE000
FF8000
F90000
ENDCHAR
STARTCHAR asciitilde
ENCODING 126
SWIDTH 571 0
DWIDTH 18 0
BBX 16 4 1 9
BITMAP
0BF90001
7FFFE56E
795BFFFD
50006FE4
ENDCHAR
STARTCHAR nonbreakingspace
ENCODING 160
SWIDTH 259 0
DWIDTH 8 0
BBX 1 1 0 0
BITMAP
00
ENDCHAR
STARTCHAR exclamdown
ENCODING 161
SWIDTH 267 0
DWIDTH 9 0
BBX 4 23 2 -6
BITMAP
2D
BF
BF
7E
04
00
00
2C
2C
2D
2D
2D
3D
3D
3D
3D
3E
3E
3E
7E
7E
7E
7F
ENDCHAR
STARTCHAR cent
ENCODING 162
SWIDTH 571 0
DWIDTH 18 0
BBX 13 23 3 0
BITMAP
000F4000
000F4000
000F4000
006FE900
07FFFF40
1FE56B00
3F400000
7E000000
BC000000
FC000000
F8000000
F8000000
F8000000
F8000000
BC000000
7D000000
3F400000
1FE55B40
07FFFF40
006FF900
000F4000
000F4000
000F4000
ENDCHAR
STARTCHAR sterling
ENCODING 163
SWIDTH 571 0
DWIDTH 18 0
BBX 16 23 1 0
BITMAP
0006FF90
002FFFFC
00BE55B8
01F80000
02F00000
02F00000
02E00000
02E00000
02E00000
02E00000
02E00000
FFFFFF40
FFFFFF40
02E00000
02E00000
02E00000
03E00000
03E00000
07D00000
0B800000
6F555555
FFFFFFFF
FFFFFFFF
ENDCHAR
STARTCHAR currency
ENCODING 164
SWIDTH 571 0
DWIDTH 18 0
BBX 14 14 2 5
BITMAP
20000090
B86FE2F0
3FFFFFD0
1F906F40
2E000B80
3D0003D0
3C0002D0
3C0002D0
3D0003D0
2E000BC0
1F906F40
3FFFFFD0
B86FE2F0
20000090
ENDCHAR
STARTCHAR yen
ENCODING 165
SWIDTH 571 0
DWIDTH 18 0
BBX 18 23 0 0
BITMAP
7E000007D0
2F00000BC0
1F80001F40
0BC0002F00
03E0007D00
02F000B800
00F801F400
00BC03E000
003E07D000
001F4F8000
000F9F0000
0007FE0000
03FFFFFD00
03FFFFFD00
0000F40000
0000F40000
0000F40000
03FFFFFD00
03FFFFFD00
0000F40000
0000F40000
0000F40000
0000F40000
ENDCHAR
STARTCHAR brokenbar
ENCODING 166
SWIDTH 550 0
DWIDTH 18 0
BBX 3 32 7 -8
BITMAP
7C
7C
7C
7C
7C
7C
7C
7C
7C
7C
7C
7C
00
00
00
00
00
00
00
00
7C
7C
7C
7C
7C
7C
7C
7C
7C
7C
7C
7C
ENDCHAR
STARTCHAR section
ENCODING 167
SWIDTH 516 0
DWIDTH 17 0
BBX 13 24 2 0
BITMAP
06FFE400
2FFFFF00
7E416D00
BC000000
BC000000
7E000000
2FE40000
0BFF4000
2FAFF400
7D01FD00
B8002F00
B4000F40
B8000F40
7E401F00
2FE47E00
06FFF800
006FF800
0001FE00
00002F00
00001F40
00001F00
E501BE00
FFFFF800
6BFF9000
ENDCHAR
STARTCHAR dieresis
ENCODING 168
SWIDTH 577 0
DWIDTH 18 0
BBX 9 3 5 20
BITMAP
B40B40
F81F80
B40B40
ENDCHAR
STARTCHAR copyright
ENCODING 169
SWIDTH 832 0
DWIDTH 27 0
BBX 24 23 1 0
BITMAP
00006FFA4000
0007FAAFE400
002F4000BE00
01F800000B80
03D0000002E0
0B401BFA00B4
1E007FFF803C
2C01F906001D
3803E000000E
7407D000000B
7407C000000B
7407C000000B
7407C000000B
7407C000000B
3803E000000E
2C01F905001D
1E00BFFF403C
0B401BFA00B4
03D0000002E0
01F800000B80
003E4000BE00
0007FAAFE400
00006FFA4000
ENDCHAR
STARTCHAR ordfeminine
ENCODING 170
SWIDTH 354 0
DWIDTH 11 0
BBX 9 11 1 12
BITMAP
1BF900
3EAF40
100780
000380
0AFF80
7E9780
B40380
F00780
B40B80
7EBF80
2FE380
ENDCHAR
STARTCHAR guillemotleft
ENCODING 171
SWIDTH 497 0
DWIDTH 16 0
BBX 14 13 1 2
BITMAP
00240280
00BC07D0
01F41F40
07D07E00
1F80F800
3E02F000
BD07D000
3E02F000
1F80F800
07D07E00
01F41F40
00BD07D0
00240280
ENDCHAR
STARTCHAR logicalnot
ENCODING 172
SWIDTH 571 0
DWIDTH 18 0
BBX 16 8 1 4
BITMAP
7FFFFFFE
7FFFFFFE
0000002E
0000002E
0000002E
0000002E
0000002E
0000002E
ENDCHAR
STARTCHAR uni00AD
ENCODING 173
SWIDTH 321 0
DWIDTH 10 0
BBX 8 3 1 7
BITMAP
BFFF
BFFF
5555
ENDCHAR
STARTCHAR registered
ENCODING 174
SWIDTH 832 0
DWIDTH 27 0
BBX 24 23 1 0
BITMAP
00006FFA4000
0007FAAFE400
002F4000BE00
01F800000B80
03D0000002E0
0B40FFF900B4
1E00FFFF403C
2C00F41BC01D
3800F407C00E
7400F407C00B
7400F41F800B
7400FFFE000B
7400FFF8000B
7400F47D000B
3800F42F000E
2C00F40F801D
1E00F407D03C
0B40F402F0B4
03D0000002E0
01F800000B80
003E4000BE00
0007FAAFE400
00006FFA4000
ENDCHAR
STARTCHAR overscore
ENCODING 175
SWIDTH 500 0
DWIDTH 16 0
BBX 16 2 0 24
BITMAP
FFFFFFFF
FFFFFFFF
ENDCHAR
STARTCHAR degree
ENCODING 176
SWIDTH 428 0
DWIDTH 14 0
BBX 10 10 2 13
BITMAP
06F900
2FFF40
7D07C0
B401D0
F001E0
F001E0
B401D0
7D07C0
2FFF40
06F900
ENDCHAR
STARTCHAR plusminus
ENCODING 177
SWIDTH 571 0
DWIDTH 18 0
BBX 16 19 1 0
BITMAP
00028000
0003D000
0003D000
0003D000
0003D000
0003D000
0003D000
7FFFFFFE
7FFFFFFE
0003D000
0003D000
0003D000
0003D000
0003D000
0003D000
00028000
00000000
7FFFFFFE
7FFFFFFE
ENDCHAR
STARTCHAR twosuperior
ENCODING 178
SWIDTH 347 0
DWIDTH 11 0
BBX 11 14 0 9
BITMAP
06FE00
2FEFC0
1902E0
0001E0
0001E0
0002D0
000780
001F00
007D00
01F400
07C000
1F0000
7FFFF4
7FFFF4
ENDCHAR
STARTCHAR threesuperior
ENCODING 179
SWIDTH 347 0
DWIDTH 11 0
BBX 10 14 0 9
BITMAP
06FE00
7FAFD0
2802E0
0001E0
0002E0
0007C0
07FF00
06AFD0
0002F0
0000F0
0000F0
5002F0
7FAFD0
1BFA00
ENDCHAR
STARTCHAR acute
ENCODING 180
SWIDTH 577 0
DWIDTH 18 0
BBX 6 5 6 19
BITMAP
03F0
0BD0
1F40
3E00
B400
ENDCHAR
STARTCHAR mu
ENCODING 181
SWIDTH 619 0
DWIDTH 20 0
BBX 15 25 2 -8
BITMAP
7D0000BC
7D0000BC
7D0000BC
7D0000BC
7D0000BC
7D0000BC
7D0000BC
7D0000BC
7D0000BC
7D0000BC
7D0000BC
7D0000FC
7E0001FC
7F4003FC
7FE56FFC
7EFFFE7C
7D6FE43C
7D000000
7D000000
7D000000
7D000000
7D000000
7D000000
7D000000
7D000000
ENDCHAR
STARTCHAR paragraph
ENCODING 182
SWIDTH 654 0
DWIDTH 21 0
BBX 17 29 1 -4
BITMAP
006FFFFF80
03FFFEAB80
0FFFFD0780
1FFFFD0780
2FFFFD0780
3FFFFD0780
3FFFFD0780
7FFFFD0780
7FFFFD0780
3FFFFD0780
3FFFFD0780
3FFFFD0780
2FFFFD0780
0FFFFD0780
07FFFD0780
00AFFD0780
00001D0780
00001D0780
00001D0780
00001D0780
00001D0780
00001D0780
00001D0780
00001D0780
00001D0780
00001D0780
00001D0780
00001D0780
00001D0780
ENDCHAR
STARTCHAR periodcentered
ENCODING 183
SWIDTH 266 0
DWIDTH 9 0
BBX 4 4 2 9
BITMAP
2D
BF
BF
7E
ENDCHAR
STARTCHAR cedilla
ENCODING 184
SWIDTH 227 0
DWIDTH 7 0
BBX 7 8 0 -8
BITMAP
0380
0B40
0FD0
01F4
0078
00B8
6AF4
7F90
ENDCHAR
STARTCHAR onesuperior
ENCODING 185
SWIDTH 347 0
DWIDTH 11 0
BBX 7 14 1 9
BITMAP
01F8
1FF8
7EB8
64B8
00B8
00B8
00B8
00B8
00B8
00B8
00B8
00B8
00B8
00B8
ENDCHAR
STARTCHAR ordmasculine
ENCODING 186
SWIDTH 375 0
DWIDTH 12 0
BBX 10 11 1 12
BITMAP
06F900
2FAF80
7802D0
B401E0
F000F0
F000F0
F000F0
B401E0
7802D0
2FAF80
06F900
ENDCHAR
STARTCHAR guillemotright
ENCODING 187
SWIDTH 497 0
DWIDTH 16 0
BBX 14 13 1 2
BITMAP
28028000
7D07E000
2F41F400
0BC0BD00
03F02F00
00F80FC0
007D07E0
00F80FC0
03F02F00
0BC0BD00
2F41F400
7D07E000
28028000
ENDCHAR
STARTCHAR onequarter
ENCODING 188
SWIDTH 779 0
DWIDTH 25 0
BBX 23 23 1 0
BITMAP
02F800007C00
1FF80000F400
7EB80001E000
64B80003C000
00B8000B8000
00B8001F0000
00B8003D0000
00B800B80000
00B801F00000
00B802D01F40
00B807803F40
00B80F40BF40
00B82E01EF40
00B87C03CF40
0000B40B4F40
0001E01E0F40
0003D03C0F40
000B80B40F40
001F01FFFFF4
003D01AAAFE4
00B800000F40
00F000000F40
02D000000F40
ENDCHAR
STARTCHAR onehalf
ENCODING 189
SWIDTH 779 0
DWIDTH 25 0
BBX 23 23 1 0
BITMAP
06F00001F000
2FF00003D000
FDF0000B8000
A0F0001F0000
00F0002D0000
00F000780000
00F000F40000
00F002E00000
00F007C00000
00F00B46FE40
00F01E1FEFD0
00F03D1D02E0
00F0B80001F0
00F1F00001F0
0003D00002E0
000B800007C0
000F00000F40
002D00003D00
007C0000F400
00F40007D000
02E0001F4000
07C0003FFFF4
0B40003FFFF4
ENDCHAR
STARTCHAR threequarters
ENCODING 190
SWIDTH 779 0
DWIDTH 25 0
BBX 25 23 0 0
BITMAP
0AFA000002D000
7FAFC000078000
2403E0000F4000
0002E0002E0000
0002E0007C0000
000BC000F40000
0BFE0002E00000
06AFC003C00000
0002E00B800000
0000F01F00F800
0001F03D02F800
5002E0B807F800
BFAFC1F00EB800
1BFA02D02DB800
0000078078B800
00000F40E0B800
00002E02D0B800
00007C0780B800
0000F40FFFFF80
0001E00AAAFE40
0003C00000B800
000B800000B800
001F000000B800
ENDCHAR
STARTCHAR questiondown
ENCODING 191
SWIDTH 429 0
DWIDTH 14 0
BBX 13 23 0 -6
BITMAP
0007D000
000BF000
000BF000
0007E000
00000000
00000000
00000000
0003D000
0003C000
0007C000
000F8000
003F0000
01FC0000
07E00000
1F800000
2F000000
3D000000
7D000000
3D000000
3F000140
1FE56BC0
0BFFFFC0
01BFE900
ENDCHAR
STARTCHAR Agrave
ENCODING 192
SWIDTH 632 0
DWIDTH 20 0
BBX 20 30 0 0
BITMAP
002F800000
000FD00000
0003E00000
0000F40000
00003D0000
0000000000
0000000000
00003D0000
0000BF0000
0000FF4000
0001FB8000
0002E7C000
0003D3D000
000BC2E000
000F81F400
001F40F800
002E00BC00
003D003D00
007C002E00
00F8001F00
01FFFFFF80
02FFFFFFC0
03E5555BD0
07C00003E0
0F800002F0
1F400001F4
2F000000BC
3E0000007D
7D0000003E
BC0000002F
ENDCHAR
STARTCHAR Aacute
ENCODING 193
SWIDTH 632 0
DWIDTH 20 0
BBX 20 30 0 0
BITMAP
000003F400
00000BD000
00001F8000
00003E0000
0000B80000
0000000000
0000000000
00003D0000
0000BF0000
0000FF4000
0001FB8000
0002E7C000
0003D3D000
000BC2E000
000F81F400
001F40F800
002E00BC00
003D003D00
007C002E00
00F8001F00
01FFFFFF80
02FFFFFFC0
03E5555BD0
07C00003E0
0F800002F0
1F400001F4
2F000000BC
3E0000007D
7D0000003E
BC0000002F
ENDCHAR
STARTCHAR Acircumflex
ENCODING 194
SWIDTH 632 0
DWIDTH 20 0
BBX 20 30 0 0
BITMAP
0000BE0000
0001FF4000
0007EBD000
001F82F400
003D007C00
0000000000
0000000000
00003D0000
0000BF0000
0000FF4000
0001FB8000
0002E7C000
0003D3D000
000BC2E000
000F81F400
001F40F800
002E00BC00
003D003D00
007C002E00
00F8001F00
01FFFFFF80
02FFFFFFC0
03E5555BD0
07C00003E0
0F800002F0
1F400001F4
2F000000BC
3E0000007D
7D0000003E
BC0000002F
ENDCHAR
STARTCHAR Atilde
ENCODING 195
SWIDTH 632 0
DWIDTH 20 0
BBX 20 29 0 0
BITMAP
001BD00E00
003FFD6D00
00797FFC00
00B007E400
0000000000
0000000000
00003D0000
0000BF0000
0000FF4000
0001FB8000
0002E7C000
0003D3D000
000BC2E000
000F81F400
001F40F800
002E00BC00
003D003D00
007C002E00
00F8001F00
01FFFFFF80
02FFFFFFC0
03E5555BD0
07C00003E0
0F800002F0
1F400001F4
2F000000BC
3E0000007D
7D0000003E
BC0000002F
ENDCHAR
STARTCHAR Adieresis
ENCODING 196
SWIDTH 632 0
DWIDTH 20 0
BBX 20 28 0 0
BITMAP
000F40F400
001F81F400
000B40F000
0000000000
0000000000
00003D0000
0000BF0000
0000FF4000
0001FB8000
0002E7C000
0003D3D000
000BC2E000
000F81F400
001F40F800
002E00BC00
003D003D00
007C002E00
00F8001F00
01FFFFFF80
02FFFFFFC0
03E5555BD0
07C00003E0
0F800002F0
1F400001F4
2F000000BC
3E0000007D
7D0000003E
BC0000002F
ENDCHAR
STARTCHAR Aring
ENCODING 197
SWIDTH 632 0
DWIDTH 20 0
BBX 20 28 0 0
BITMAP
0000BE0000
0002EBC000
000741D000
000740E000
000741D000
0002FFC000
0000FF0000
0000FF4000
0001FB8000
0002E7C000
0003D3D000
000BC2E000
000F81F400
001F40F800
002E00BC00
003D003D00
007C002E00
00F8001F00
01FFFFFF80
02FFFFFFC0
03E5555BD0
07C00003E0
0F800002F0
1F400001F4
2F000000BC
3E0000007D
7D0000003E
BC0000002F
ENDCHAR
STARTCHAR AE
ENCODING 198
SWIDTH 873 0
DWIDTH 28 0
BBX 26 23 0 0
BITMAP
000007FFFFFFF0
00000BFFFFFFF0
00001F9BD55550
00002F0BC00000
00007D0BC00000
0000BC0BC00000
0001F40BC00000
0002F00BC00000
0003D00BC00000
000BC00BC00000
000F800BFFFFD0
002F000BFFFFD0
003E000BD55540
00BFFFFFC00000
00FFFFFFC00000
01F5555BC00000
03E0000BC00000
07D0000BC00000
0F80000BC00000
1F40000BC00000
3F00000BD55550
7D00000BFFFFF0
BC00000BFFFFF0
ENDCHAR
STARTCHAR Ccedilla
ENCODING 199
SWIDTH 630 0
DWIDTH 20 0
BBX 17 31 2 -8
BITMAP
0006BFE900
006FFFFFC0
01FFA5AF80
07F8000100
1FD0000000
2F40000000
7F00000000
BD00000000
BC00000000
FC00000000
FC00000000
F800000000
FC00000000
FC00000000
BC00000000
BD00000000
7E00000000
3F40000000
1FD0000000
0BF4000000
02FF956B40
007FFFFF40
0006FFE900
0000380000
0000B40000
0000FD0000
00001F4000
0000078000
0000078000
0006AF4000
0007F90000
ENDCHAR
STARTCHAR Egrave
ENCODING 200
SWIDTH 556 0
DWIDTH 18 0
BBX 13 30 3 0
BITMAP
0BD00000
03F00000
01F80000
007D0000
001F0000
00000000
00000000
FFFFFFC0
FFFFFFC0
FD555540
F8000000
F8000000
F8000000
F8000000
F8000000
F8000000
F8000000
FFFFFF40
FFFFFF40
FD555500
F8000000
F8000000
F8000000
F8000000
F8000000
F8000000
F8000000
FD555540
FFFFFFC0
FFFFFFC0
ENDCHAR
STARTCHAR Eacute
ENCODING 201
SWIDTH 556 0
DWIDTH 18 0
BBX 13 30 3 0
BITMAP
0007F000
000BD000
001F4000
003D0000
00B40000
00000000
00000000
FFFFFFC0
FFFFFFC0
FD555540
F8000000
F8000000
F8000000
F8000000
F8000000
F8000000
F8000000
FFFFFF40
FFFFFF40
FD555500
F8000000
F8000000
F8000000
F8000000
F8000000
F8000000
F8000000
FD555540
FFFFFFC0
FFFFFFC0
ENDCHAR
STARTCHAR Ecircumflex
ENCODING 202
SWIDTH 556 0
DWIDTH 18 0
BBX 13 30 3 0
BITMAP
007F0000
00FF8000
02F7E000
0B81F800
2E002D00
00000000
00000000
FFFFFFC0
FFFFFFC0
FD555540
F8000000
F8000000
F8000000
F8000000
F8000000
F8000000
F8000000
FFFFFF40
FFFFFF40
FD555500
F8000000
F8000000
F8000000
F8000000
F8000000
F8000000
F8000000
FD555540
FFFFFFC0
FFFFFFC0
ENDCHAR
STARTCHAR Edieresis
ENCODING 203
SWIDTH 556 0
DWIDTH 18 0
BBX 13 28 3 0
BITMAP
0B80B800
0FC0FC00
0780B400
00000000
00000000
FFFFFFC0
FFFFFFC0
FD555540
F8000000
F8000000
F8000000
F8000000
F8000000
F8000000
F8000000
FFFFFF40
FFFFFF40
FD555500
F8000000
F8000000
F8000000
F8000000
F8000000
F8000000
F8000000
FD555540
FFFFFFC0
FFFFFFC0
ENDCHAR
STARTCHAR Igrave
ENCODING 204
SWIDTH 278 0
DWIDTH 9 0
BBX 6 30 0 0
BITMAP
BE00
3F00
1F80
07D0
01F0
0000
0000
03E0
03E0
03E0
03E0
03E0
03E0
03E0
03E0
03E0
03E0
03E0
03E0
03E0
03E0
03E0
03E0
03E0
03E0
03E0
03E0
03E0
03E0
03E0
ENDCHAR
STARTCHAR Iacute
ENCODING 205
SWIDTH 278 0
DWIDTH 9 0
BBX 6 30 3 0
BITMAP
07E0
0FC0
2F40
7D00
F400
0000
0000
F800
F800
F800
F800
F800
F800
F800
F800
F800
F800
F800
F800
F800
F800
F800
F800
F800
F800
F800
F800
F800
F800
F800
ENDCHAR
STARTCHAR Icircumflex
ENCODING 206
SWIDTH 278 0
DWIDTH 9 0
BBX 11 30 -1 0
BITMAP
01FC00
03FE00
0BDF80
2E07E0
B800B4
000000
000000
00F800
00F800
00F800
00F800
00F800
00F800
00F800
00F800
00F800
00F800
00F800
00F800
00F800
00F800
00F800
00F800
00F800
00F800
00F800
00F800
00F800
00F800
00F800
ENDCHAR
STARTCHAR Idieresis
ENCODING 207
SWIDTH 278 0
DWIDTH 9 0
BBX 9 28 0 0
BITMAP
B80B40
FC0FC0
B80B40
000000
000000
03E000
03E000
03E000
03E000
03E000
03E000
03E000
03E000
03E000
03E000
03E000
03E000
03E000
03E000
03E000
03E000
03E000
03E000
03E000
03E000
03E000
03E000
03E000
ENDCHAR
STARTCHAR Eth
ENCODING 208
SWIDTH 722 0
DWIDTH 23 0
BBX 21 23 0 0
BITMAP
03FFFFA40000
03FFFFFE4000
03F555BFE000
03E00007F800
03E00000FD00
03E000007F00
03E000002F40
03E000001F80
03E000000FC0
03E000000FC0
7FFFFE000BC0
7FFFFE000BC0
17F555000BC0
03E000000FC0
03E000000F80
03E000001F80
03E000002F40
03E000007E00
03E00001FD00
03E0000BF400
03F556BFD000
03FFFFFE4000
03FFFF900000
ENDCHAR
STARTCHAR Ntilde
ENCODING 209
SWIDTH 753 0
DWIDTH 24 0
BBX 18 29 3 0
BITMAP
002F802C00
00BFF97800
01E5BFF400
01C01BD000
0000000000
0000000000
FD000002F0
FF000002F0
FF800002F0
FFD00002F0
F7F00002F0
F5F80002F0
F8BD0002F0
F83F0002F0
F81F8002F0
F80BD002F0
F803F002F0
F801F802F0
F800BD02F0
F8007F02F0
F8002F81F0
F8000FD1F0
F80007E1F0
F80002F5F0
F80000FDF0
F800007FF0
F800002FF0
F800000FF0
F8000007F0
ENDCHAR
STARTCHAR Ograve
ENCODING 210
SWIDTH 778 0
DWIDTH 25 0
BBX 21 30 2 0
BITMAP
000BD0000000
0003F0000000
0001F8000000
00007D000000
00001F000000
000000000000
000000000000
0006FFE40000
007FFFFF4000
02FF95BFE000
0BF40007F800
1FC00000FD00
3F4000007E00
7E0000002F40
BD0000001F40
BC0000000F80
FC0000000F80
F80000000FC0
F80000000FC0
F80000000FC0
FC0000000F80
BC0000000F80
BD0000001F40
7E0000002F40
3F4000007E00
1FC00000FD00
0BF40007F800
02FE95AFE000
007FFFFF4000
0006FFE40000
ENDCHAR
STARTCHAR Oacute
ENCODING 211
SWIDTH 778 0
DWIDTH 25 0
BBX 21 30 2 0
BITMAP
000003F40000
00000BE00000
00001F800000
00003E000000
0000B8000000
000000000000
000000000000
0006FFE40000
007FFFFF4000
02FF95BFE000
0BF40007F800
1FC00000FD00
3F4000007E00
7E0000002F40
BD0000001F40
BC0000000F80
FC0000000F80
F80000000FC0
F80000000FC0
F80000000FC0
FC0000000F80
BC0000000F80
BD0000001F40
7E0000002F40
3F4000007E00
1FC00000FD00
0BF40007F800
02FE95AFE000
007FFFFF4000
0006FFE40000
ENDCHAR
STARTCHAR Ocircumflex
ENCODING 212
SWIDTH 778 0
DWIDTH 25 0
BBX 21 30 2 0
BITMAP
00007E000000
0001FF800000
0003EBD00000
000F81F40000
002E007D0000
000000000000
000000000000
0006FFE40000
007FFFFF4000
02FF95BFE000
0BF40007F800
1FC00000FD00
3F4000007E00
7E0000002F40
BD0000001F40
BC0000000F80
FC0000000F80
F80000000FC0
F80000000FC0
F80000000FC0
FC0000000F80
BC0000000F80
BD0000001F40
7E0000002F40
3F4000007E00
1FC00000FD00
0BF40007F800
02FE95AFE000
007FFFFF4000
0006FFE40000
ENDCHAR
STARTCHAR Otilde
ENCODING 213
SWIDTH 778 0
DWIDTH 25 0
BBX 21 29 2 0
BITMAP
000BE00B0000
002FFE5E0000
00396FFD0000
007406F40000
000000000000
000000000000
0006FFE40000
007FFFFF4000
02FF95BFE000
0BF40007F800
1FC00000FD00
3F4000007E00
7E0000002F40
BD0000001F40
BC0000000F80
FC0000000F80
F80000000FC0
F80000000FC0
F80000000FC0
FC0000000F80
BC0000000F80
BD0000001F40
7E0000002F40
3F4000007E00
1FC00000FD00
0BF40007F800
02FE95AFE000
007FFFFF4000
0006FFE40000
ENDCHAR
STARTCHAR Odieresis
ENCODING 214
SWIDTH 778 0
DWIDTH 25 0
BBX 21 28 2 0
BITMAP
000780B80000
000BC0FC0000
000780780000
000000000000
000000000000
0006FFE40000
007FFFFF4000
02FF95BFE000
0BF40007F800
1FC00000FD00
3F4000007E00
7E0000002F40
BD0000001F40
BC0000000F80
FC0000000F80
F80000000FC0
F80000000FC0
F80000000FC0
FC0000000F80
BC0000000F80
BD0000001F40
7E0000002F40
3F4000007E00
1FC00000FD00
0BF40007F800
02FE95AFE000
007FFFFF4000
0006FFE40000
ENDCHAR
STARTCHAR multiply
ENCODING 215
SWIDTH 571 0
DWIDTH 18 0
BBX 14 15 2 4
BITMAP
10000040
780001E0
7E0007E0
1F801F80
07E07E00
01F9F800
007FE000
002FC000
007FE000
01F9F800
07E07E00
1F801F80
7E0007E0
780001E0
10000040
ENDCHAR
STARTCHAR Oslash
ENCODING 216
SWIDTH 778 0
DWIDTH 25 0
BBX 21 25 2 -1
BITMAP
000000002400
0006FFE47D00
007FFFFFFC00
02FF95BFF400
0BF4000BF400
1FC0000FFD00
3F40002F7E00
7E00007D2F00
BD0001F81F40
BC0002F00F80
FC000BD00F80
F8001F400FC0
F8003E000FC0
F800BC000FC0
FC02F4000F80
BC07E0000F80
BD0F80001F40
7E2F00002F40
3FBD00007E00
1FF80000FD00
0BF40007F800
0BFE95AFE000
1FBFFFFF4000
2F06FFE40000
090000000000
ENDCHAR
STARTCHAR Ugrave
ENCODING 217
SWIDTH 728 0
DWIDTH 23 0
BBX 18 30 3 0
BITMAP
00BE000000
002F400000
000F800000
0003E00000
0000B40000
0000000000
0000000000
F8000007D0
F8000007D0
F8000007D0
F8000007D0
F8000007D0
F8000007D0
F8000007D0
F8000007D0
F8000007D0
F8000007D0
F8000007D0
F8000007D0
F8000007D0
F8000007D0
F8000007D0
F8000007D0
F8000007D0
BC00000BC0
7E00001F80
2F80007F00
0FF95AFD00
02FFFFF400
006BFE4000
ENDCHAR
STARTCHAR Uacute
ENCODING 218
SWIDTH 728 0
DWIDTH 23 0
BBX 18 30 3 0
BITMAP
00003F4000
0000BE0000
0000F80000
0002E00000
0007800000
0000000000
0000000000
F8000007D0
F8000007D0
F8000007D0
F8000007D0
F8000007D0
F8000007D0
F8000007D0
F8000007D0
F8000007D0
F8000007D0
F8000007D0
F8000007D0
F8000007D0
F8000007D0
F8000007D0
F8000007D0
F8000007D0
BC00000BC0
7E00001F80
2F80007F00
0FF95AFD00
02FFFFF400
006BFE4000
ENDCHAR
STARTCHAR Ucircumflex
ENCODING 219
SWIDTH 728 0
DWIDTH 23 0
BBX 18 30 3 0
BITMAP
0007F00000
000FF80000
002F7E0000
00B81F8000
02E002D000
0000000000
0000000000
F8000007D0
F8000007D0
F8000007D0
F8000007D0
F8000007D0
F8000007D0
F8000007D0
F8000007D0
F8000007D0
F8000007D0
F8000007D0
F8000007D0
F8000007D0
F8000007D0
F8000007D0
F8000007D0
F8000007D0
BC00000BC0
7E00001F80
2F80007F00
0FF95AFD00
02FFFFF400
006BFE4000
ENDCHAR
STARTCHAR Udieresis
ENCODING 220
SWIDTH 728 0
DWIDTH 23 0
BBX 18 28 3 0
BITMAP
0078078000
00BC0BC000
0078078000
0000000000
0000000000
F8000007D0
F8000007D0
F8000007D0
F8000007D0
F8000007D0
F8000007D0
F8000007D0
F8000007D0
F8000007D0
F8000007D0
F8000007D0
F8000007D0
F8000007D0
F8000007D0
F8000007D0
F8000007D0
F8000007D0
BC00000BC0
7E00001F80
2F80007F00
0FF95AFD00
02FFFFF400
006BFE4000
ENDCHAR
STARTCHAR Yacute
ENCODING 221
SWIDTH 560 0
DWIDTH 18 0
BBX 18 30 0 0
BITMAP
00001FC000
00003F4000
0000BD0000
0001F40000
0003D00000
0000000000
0000000000
BD000007E0
7E00000BC0
2F40001F80
0F80002F00
0BD0007D00
03E000FC00
02F401F400
00FC03F000
007D07D000
003F0F8000
001F6F4000
000BFE0000
0007FC0000
0002F80000
0001F40000
0001F40000
0001F40000
0001F40000
0001F40000
0001F40000
0001F40000
0001F40000
0001F40000
ENDCHAR
STARTCHAR Thorn
ENCODING 222
SWIDTH 610 0
DWIDTH 20 0
BBX 15 23 3 0
BITMAP
F8000000
F8000000
F8000000
F8000000
FFFFE400
FFFFFF40
FD55BFE0
F80007F4
F80001F8
F80000F8
F80000FC
F80000F8
F80000F8
F80001F4
F80007F0
F8006FD0
FFFFFF40
FFFFE400
FD550000
F8000000
F8000000
F8000000
F8000000
ENDCHAR
STARTCHAR germandbls
ENCODING 223
SWIDTH 622 0
DWIDTH 20 0
BBX 17 24 2 0
BITMAP
01AFF90000
0BFFFFC000
1FE55BE000
3F0002F400
3E0001F400
7D0001F400
7D0003E000
7D001FC000
7D007E0000
7D01F80000
7D02F00000
7D02F00000
7D01F80000
7D00BF4000
7D001FE000
7D0002FC00
7D00007E00
7D00002F40
7D00001F40
7D00000F40
7D00001F40
7D0E51BF00
7D0FFFFD00
7D06FFA000
ENDCHAR
STARTCHAR agrave
ENCODING 224
SWIDTH 556 0
DWIDTH 18 0
BBX 15 24 1 0
BITMAP
01F80000
00BD0000
002F0000
000B8000
0002D000
00000000
00000000
006FF900
07FFFF80
07E55BE0
010003F0
000002F0
000001F4
000001F4
006AFFF4
07FFFFF4
2FD401F4
7E0001F4
7D0002F4
BD0003F4
7E000BF4
3F917FF4
1FFFF8F4
06FF90B4
ENDCHAR
STARTCHAR aacute
ENCODING 225
SWIDTH 556 0
DWIDTH 18 0
BBX 15 24 1 0
BITMAP
00007E00
0000FC00
0002F400
0007D000
000F4000
00000000
00000000
006FF900
07FFFF80
07E55BE0
010003F0
000002F0
000001F4
000001F4
006AFFF4
07FFFFF4
2FD401F4
7E0001F4
7D0002F4
BD0003F4
7E000BF4
3F917FF4
1FFFF8F4
06FF90B4
ENDCHAR
STARTCHAR acircumflex
ENCODING 226
SWIDTH 556 0
DWIDTH 18 0
BBX 15 24 1 0
BITMAP
000BD000
002FF400
007EBC00
01F42F00
07D00BC0
00000000
00000000
006FF900
07FFFF80
07E55BE0
010003F0
000002F0
000001F4
000001F4
006AFFF4
07FFFFF4
2FD401F4
7E0001F4
7D0002F4
BD0003F4
7E000BF4
3F917FF4
1FFFF8F4
06FF90B4
ENDCHAR
STARTCHAR atilde
ENCODING 227
SWIDTH 556 0
DWIDTH 18 0
BBX 15 23 1 0
BITMAP
01B900E0
03FFD6D0
0B57FFC0
0A007E00
00000000
00000000
006FF900
07FFFF80
07E55BE0
010003F0
000002F0
000001F4
000001F4
006AFFF4
07FFFFF4
2FD401F4
7E0001F4
7D0002F4
BD0003F4
7E000BF4
3F917FF4
1FFFF8F4
06FF90B4
ENDCHAR
STARTCHAR adieresis
ENCODING 228
SWIDTH 556 0
DWIDTH 18 0
BBX 15 23 1 0
BITMAP
01E01E00
02F42F00
01E01E00
00000000
00000000
00000000
006FF900
07FFFF80
07E55BE0
010003F0
000002F0
000001F4
000001F4
006AFFF4
07FFFFF4
2FD401F4
7E0001F4
7D0002F4
BD0003F4
7E000BF4
3F917FF4
1FFFF8F4
06FF90B4
ENDCHAR
STARTCHAR aring
ENCODING 229
SWIDTH 556 0
DWIDTH 18 0
BBX 15 26 1 0
BITMAP
000BE000
002EBC00
00741D00
00740E00
00741D00
002EBC00
000BE000
00000000
00000000
006FF900
07FFFF80
07E55BE0
010003F0
000002F0
000001F4
000001F4
006AFFF4
07FFFFF4
2FD401F4
7E0001F4
7D0002F4
BD0003F4
7E000BF4
3F917FF4
1FFFF8F4
06FF90B4
ENDCHAR
STARTCHAR ae
ENCODING 230
SWIDTH 857 0
DWIDTH 27 0
BBX 25 17 1 0
BITMAP
01AFE801BF9000
0BFFFF0BFFF400
0B946FAF55FD00
000007FD003F00
000003F8001F40
000003F0000F80
000002F0000F80
006BFFFFFFFF80
07FFFFFFFFFF80
2FD403F0000000
7E0003F0000000
7D0003F4000000
BD0007F8000000
7E000FFD000100
3F91BE3F956B00
1FFFF80BFFFF00
06FF9001BFE400
ENDCHAR
STARTCHAR ccedilla
ENCODING 231
SWIDTH 476 0
DWIDTH 15 0
BBX 13 25 1 -8
BITMAP
001BFE40
01FFFFC0
07F95B80
0FD00000
1F400000
2F000000
3E000000
3E000000
7D000000
3E000000
3E000000
3F000000
2F400000
0FD00000
07F956C0
01FFFFC0
001BFA40
00038000
00074000
000FD000
0001F800
00007C00
00007800
006AF400
007F9000
ENDCHAR
STARTCHAR egrave
ENCODING 232
SWIDTH 561 0
DWIDTH 18 0
BBX 16 24 1 0
BITMAP
00FD0000
007F0000
001F8000
0007D000
0001F000
00000000
00000000
001BF900
01FFFF80
07F55BE0
0FC002F4
1F4000F8
2F0000BC
3E0000BD
3FFFFFFD
7FFFFFFD
3E000000
3E000000
2F000000
1F400000
0FD00004
07F956B8
01FFFFF8
001BFE90
ENDCHAR
STARTCHAR eacute
ENCODING 233
SWIDTH 561 0
DWIDTH 18 0
BBX 16 24 1 0
BITMAP
00003F40
0000BE00
0001F800
0002E000
00078000
00000000
00000000
001BF900
01FFFF80
07F55BE0
0FC002F4
1F4000F8
2F0000BC
3E0000BD
3FFFFFFD
7FFFFFFD
3E000000
3E000000
2F000000
1F400000
0FD00004
07F956B8
01FFFFF8
001BFE90
ENDCHAR
STARTCHAR ecircumflex
ENCODING 234
SWIDTH 561 0
DWIDTH 18 0
BBX 16 24 1 0
BITMAP
0007F000
000FF800
003F7E00
00B81F40
02E006D0
00000000
00000000
001BF900
01FFFF80
07F55BE0
0FC002F4
1F4000F8
2F0000BC
3E0000BD
3FFFFFFD
7FFFFFFD
3E000000
3E000000
2F000000
1F400000
0FD00004
07F956B8
01FFFFF8
001BFE90
ENDCHAR
STARTCHAR edieresis
ENCODING 235
SWIDTH 561 0
DWIDTH 18 0
BBX 16 23 1 0
BITMAP
00B40B40
00F80F80
00B40B40
00000000
00000000
00000000
001BF900
01FFFF80
07F55BE0
0FC002F4
1F4000F8
2F0000BC
3E0000BD
3FFFFFFD
7FFFFFFD
3E000000
3E000000
2F000000
1F400000
0FD00004
07F956B8
01FFFFF8
001BFE90
ENDCHAR
STARTCHAR igrave
ENCODING 236
SWIDTH 252 0
DWIDTH 8 0
BBX 7 24 -1 0
BITMAP
7E00
2F40
0BC0
02E0
00B4
0000
0000
01F4
01F4
01F4
01F4
01F4
01F4
01F4
01F4
01F4
01F4
01F4
01F4
01F4
01F4
01F4
01F4
01F4
ENDCHAR
STARTCHAR iacute
ENCODING 237
SWIDTH 252 0
DWIDTH 8 0
BBX 7 24 2 0
BITMAP
02F8
07E0
0FC0
2F00
7800
0000
0000
7D00
7D00
7D00
7D00
7D00
7D00
7D00
7D00
7D00
7D00
7D00
7D00
7D00
7D00
7D00
7D00
7D00
ENDCHAR
STARTCHAR icircumflex
ENCODING 238
SWIDTH 252 0
DWIDTH 8 0
BBX 10 24 -1 0
BITMAP
02F800
07FD00
1FAF40
7E0BD0
F401F0
000000
000000
01F400
01F400
01F400
01F400
01F400
01F400
01F400
01F400
01F400
01F400
01F400
01F400
01F400
01F400
01F400
01F400
01F400
ENDCHAR
STARTCHAR idieresis
ENCODING 239
SWIDTH 252 0
DWIDTH 8 0
BBX 10 23 -1 0
BITMAP
3D03D0
7E07D0
2D03C0
000000
000000
000000
01F400
01F400
01F400
01F400
01F400
01F400
01F400
01F400
01F400
01F400
01F400
01F400
01F400
01F400
01F400
01F400
01F400
ENDCHAR
STARTCHAR eth
ENCODING 240
SWIDTH 596 0
DWIDTH 19 0
BBX 17 24 1 0
BITMAP
0019006000
003F82F800
000BFFD000
0002FF0000
001FFF8000
00BE4BD000
006402F000
000000F800
0000007C00
002BF93E00
02FFFFEF00
0BF556FF00
1F80007F40
2F00002F40
3E00001F40
3D00000F80
7D00000F40
3D00001F40
3E00001F00
2F00003E00
1F8000BD00
07F956F800
01FFFFE000
001BFA4000
ENDCHAR
STARTCHAR ntilde
ENCODING 241
SWIDTH 613 0
DWIDTH 20 0
BBX 15 23 2 0
BITMAP
00BE00B0
02FFD5E0
0796FFC0
0B006F40
00000000
00000000
7C1BFE40
7CBFFFD0
7EF55BF4
7F8001F8
7F0000BC
7E0000BC
7D0000BC
7D0000BC
7D0000BC
7D0000BC
7D0000BC
7D0000BC
7D0000BC
7D0000BC
7D0000BC
7D0000BC
7D0000BC
ENDCHAR
STARTCHAR ograve
ENCODING 242
SWIDTH 604 0
DWIDTH 19 0
BBX 17 24 1 0
BITMAP
007F000000
002F400000
000BC00000
0002E00000
0000B40000
0000000000
0000000000
001BFA0000
01FFFFD000
07F957F800
0FD000BD00
1F40003E00
2F00002F00
3E00001F40
3E00001F40
7D00001F80
3E00001F40
3E00001F40
2F00002F00
1F40003E00
0FD000BD00
07F957F800
01FFFFE000
001BFA0000
ENDCHAR
STARTCHAR oacute
ENCODING 243
SWIDTH 604 0
DWIDTH 19 0
BBX 17 24 1 0
BITMAP
00002F4000
00007E0000
0000F80000
0002E00000
0007800000
0000000000
0000000000
001BFA0000
01FFFFD000
07F957F800
0FD000BD00
1F40003E00
2F00002F00
3E00001F40
3E00001F40
7D00001F80
3E00001F40
3E00001F40
2F00002F00
1F40003E00
0FD000BD00
07F957F800
01FFFFE000
001BFA0000
ENDCHAR
STARTCHAR ocircumflex
ENCODING 244
SWIDTH 604 0
DWIDTH 19 0
BBX 17 24 1 0
BITMAP
0003F40000
000BFC0000
002F7E0000
00BD0B8000
01E002E000
0000000000
0000000000
001BFA0000
01FFFFD000
07F957F800
0FD000BD00
1F40003E00
2F00002F00
3E00001F40
3E00001F40
7D00001F80
3E00001F40
3E00001F40
2F00002F00
1F40003E00
0FD000BD00
07F957F800
01FFFFE000
001BFA0000
ENDCHAR
STARTCHAR otilde
ENCODING 245
SWIDTH 604 0
DWIDTH 19 0
BBX 17 23 1 0
BITMAP
007E407400
01FFE5B000
02D6FFE000
03802F8000
0000000000
0000000000
001BFA0000
01FFFFD000
07F957F800
0FD000BD00
1F40003E00
2F00002F00
3E00001F40
3E00001F40
7D00001F80
3E00001F40
3E00001F40
2F00002F00
1F40003E00
0FD000BD00
07F957F800
01FFFFE000
001BFA0000
ENDCHAR
STARTCHAR odieresis
ENCODING 246
SWIDTH 604 0
DWIDTH 19 0
BBX 17 23 1 0
BITMAP
0078078000
00BC0BC000
0078078000
0000000000
0000000000
0000000000
001BFA0000
01FFFFD000
07F957F800
0FD000BD00
1F40003E00
2F00002F00
3E00001F40
3E00001F40
7D00001F80
3E00001F40
3E00001F40
2F00002F00
1F40003E00
0FD000BD00
07F957F800
01FFFFE000
001BFA0000
ENDCHAR
STARTCHAR divide
ENCODING 247
SWIDTH 571 0
DWIDTH 18 0
BBX 16 14 1 4
BITMAP
0007D000
000BE000
000BE000
00029000
00000000
00000000
7FFFFFFE
7FFFFFFE
00000000
00000000
00029000
000BE000
000BE000
0007D000
ENDCHAR
STARTCHAR oslash
ENCODING 248
SWIDTH 604 0
DWIDTH 19 0
BBX 17 19 1 -1
BITMAP
0000000800
001BFA2E00
01FFFFFD00
07F95BF800
0FD002FD00
1F400BFE00
2F001F6F00
3E003E1F40
3E00B81F40
7D02F01F80
3E07D01F40
3E1F801F40
2F3E002F00
1FFC003E00
0FF400BD00
07F957F800
0BFFFFE000
1F5BFA0000
0900000000
ENDCHAR
STARTCHAR ugrave
ENCODING 249
SWIDTH 613 0
DWIDTH 20 0
BBX 15 24 2 0
BITMAP
02F80000
00BD0000
003E0000
000F4000
0002D000
00000000
00000000
7D0000BC
7D0000BC
7D0000BC
7D0000BC
7D0000BC
7D0000BC
7D0000BC
7D0000BC
7D0000BC
7D0000BC
7D0000FC
7D0000FC
7D0001FC
3F0007FC
2FD56FBC
0BFFFD7C
01BFA07C
ENDCHAR
STARTCHAR uacute
ENCODING 250
SWIDTH 613 0
DWIDTH 20 0
BBX 15 24 2 0
BITMAP
00007F00
0000FD00
0002F400
0007D000
000F4000
00000000
00000000
7D0000BC
7D0000BC
7D0000BC
7D0000BC
7D0000BC
7D0000BC
7D0000BC
7D0000BC
7D0000BC
7D0000BC
7D0000FC
7D0000FC
7D0001FC
3F0007FC
2FD56FBC
0BFFFD7C
01BFA07C
ENDCHAR
STARTCHAR ucircumflex
ENCODING 251
SWIDTH 613 0
DWIDTH 20 0
BBX 15 24 2 0
BITMAP
000FD000
002FF000
00BDFC00
01F42E00
07800B80
00000000
00000000
7D0000BC
7D0000BC
7D0000BC
7D0000BC
7D0000BC
7D0000BC
7D0000BC
7D0000BC
7D0000BC
7D0000BC
7D0000FC
7D0000FC
7D0001FC
3F0007FC
2FD56FBC
0BFFFD7C
01BFA07C
ENDCHAR
STARTCHAR udieresis
ENCODING 252
SWIDTH 613 0
DWIDTH 20 0
BBX 15 23 2 0
BITMAP
01E01E00
02F02F00
01E01E00
00000000
00000000
00000000
7D0000BC
7D0000BC
7D0000BC
7D0000BC
7D0000BC
7D0000BC
7D0000BC
7D0000BC
7D0000BC
7D0000BC
7D0000FC
7D0000FC
7D0001FC
3F0007FC
2FD56FBC
0BFFFD7C
01BFA07C
ENDCHAR
STARTCHAR yacute
ENCODING 253
SWIDTH 503 0
DWIDTH 16 0
BBX 16 32 0 -8
BITMAP
00003F40
00007E00
0000F800
0002E000
00078000
00000000
00000000
BC00003F
7D00007E
3E0000BC
2F0000F8
1F8001F4
0BC002F0
07D003E0
03E007D0
02F00BC0
01F40F80
00B81F00
007C2E00
003D3D00
002E7C00
001FB800
000BF400
0007F000
0007E000
000BC000
000F8000
001F4000
003F0000
55FD0000
BFF40000
BF900000
ENDCHAR
STARTCHAR thorn
ENCODING 254
SWIDTH 612 0
DWIDTH 20 0
BBX 16 32 2 -8
BITMAP
7D000000
7D000000
7D000000
7D000000
7D000000
7D000000
7D000000
7D1BF900
7DBFFFD0
7EF55BF0
7F8001F8
7F0000BD
7E00007D
7D00003E
7D00003E
7D00003E
7D00003E
7D00003E
7E00007D
7F0000BD
7F8001F8
7FF55BF0
7DBFFFD0
7D1BF900
7D000000
7D000000
7D000000
7D000000
7D000000
7D000000
7D000000
7D000000
ENDCHAR
STARTCHAR ydieresis
ENCODING 255
SWIDTH 503 0
DWIDTH 16 0
BBX 16 31 0 -8
BITMAP
00F40F00
01F41F40
00F40F00
00000000
00000000
00000000
BC00003F
7D00007E
3E0000BC
2F0000F8
1F8001F4
0BC002F0
07D003E0
03E007D0
02F00BC0
01F40F80
00B81F00
007C2E00
003D3D00
002E7C00
001FB800
000BF400
0007F000
0007E000
000BC000
000F8000
001F4000
003F0000
55FD0000
BFF40000
BF900000
ENDCHAR
STARTCHAR Amacron
ENCODING 256
SWIDTH 632 0
DWIDTH 20 0
BBX 20 27 0 0
BITMAP
001FFFFC00
001FFFFC00
0000000000
0000000000
00003D0000
0000BF0000
0000FF4000
0001FB8000
0002E7C000
0003D3D000
000BC2E000
000F81F400
001F40F800
002E00BC00
003D003D00
007C002E00
00F8001F00
01FFFFFF80
02FFFFFFC0
03E5555BD0
07C00003E0
0F800002F0
1F400001F4
2F000000BC
3E0000007D
7D0000003E
BC0000002F
ENDCHAR
STARTCHAR amacron
ENCODING 257
SWIDTH 556 0
DWIDTH 18 0
BBX 15 21 1 0
BITMAP
01FFFFC0
01FFFFC0
00000000
00000000
006FF900
07FFFF80
07E55BE0
010003F0
000002F0
000001F4
000001F4
006AFFF4
07FFFFF4
2FD401F4
7E0001F4
7D0002F4
BD0003F4
7E000BF4
3F917FF4
1FFFF8F4
06FF90B4
ENDCHAR
STARTCHAR Abreve
ENCODING 258
SWIDTH 632 0
DWIDTH 20 0
BBX 20 29 0 0
BITMAP
002C003C00
001E45B800
000BFFE000
0002FF8000
0000000000
0000000000
00003D0000
0000BF0000
0000FF4000
0001FB8000
0002E7C000
0003D3D000
000BC2E000
000F81F400
001F40F800
002E00BC00
003D003D00
007C002E00
00F8001F00
01FFFFFF80
02FFFFFFC0
03E5555BD0
07C00003E0
0F800002F0
1F400001F4
2F000000BC
3E0000007D
7D0000003E
BC0000002F
ENDCHAR
STARTCHAR abreve
ENCODING 259
SWIDTH 556 0
DWIDTH 18 0
BBX 15 23 1 0
BITMAP
02C00380
02E45B40
00FFFE00
002FE400
00000000
00000000
006FF900
07FFFF80
07E55BE0
010003F0
000002F0
000001F4
000001F4
006AFFF4
07FFFFF4
2FD401F4
7E0001F4
7D0002F4
BD0003F4
7E000BF4
3F917FF4
1FFFF8F4
06FF90B4
ENDCHAR
STARTCHAR Aogonek
ENCODING 260
SWIDTH 632 0
DWIDTH 20 0
BBX 21 30 0 -7
BITMAP
00003D000000
0000BF000000
0000FF400000
0001FB800000
0002E7C00000
0003D3D00000
000BC2E00000
000F81F40000
001F40F80000
002E00BC0000
003D003D0000
007C002E0000
00F8001F0000
01FFFFFF8000
02FFFFFFC000
03E5555BD000
07C00003E000
0F800002F000
1F400001F400
2F000000BC00
3E0000007D00
7D0000003E00
BC0000002F00
000000003C00
00000000F400
00000002E000
00000003D000
00000003D000
00000002FB40
00000000BF40
ENDCHAR
STARTCHAR aogonek
ENCODING 261
SWIDTH 556 0
DWIDTH 18 0
BBX 15 24 1 -7
BITMAP
006FF900
07FFFF80
07E55BE0
010003F0
000002F0
000001F4
000001F4
006AFFF4
07FFFFF4
2FD401F4
7E0001F4
7D0002F4
BD0003F4
7E000BF4
3F917FF4
1FFFF8F4
06FF90B4
000001E0
00000780
00000B40
00000F00
00000F40
00000FEC
000002F8
ENDCHAR
STARTCHAR Cacute
ENCODING 262
SWIDTH 630 0
DWIDTH 20 0
BBX 17 30 2 0
BITMAP
000003F400
00000BD000
00001F8000
00003E0000
0000B80000
0000000000
0000000000
0006BFE900
006FFFFFC0
01FFA5AF80
07F8000100
1FD0000000
2F40000000
7F00000000
BD00000000
BC00000000
FC00000000
FC00000000
F800000000
FC00000000
FC00000000
BC00000000
BD00000000
7E00000000
3F40000000
1FD0000000
0BF4000000
02FF956B40
007FFFFF40
0006FFE900
ENDCHAR
STARTCHAR cacute
ENCODING 263
SWIDTH 476 0
DWIDTH 15 0
BBX 13 24 1 0
BITMAP
00003F40
0000BD00
0001F800
0003E000
000B8000
00000000
00000000
001BFE40
01FFFFC0
07F95B80
0FD00000
1F400000
2F000000
3E000000
3E000000
7D000000
3E000000
3E000000
3F000000
2F400000
0FD00000
07F956C0
01FFFFC0
001BFA40
ENDCHAR
STARTCHAR Ccircumflex
ENCODING 264
SWIDTH 630 0
DWIDTH 20 0
BBX 17 30 2 0
BITMAP
0000BE0000
0001FF4000
0007EBD000
000F81F400
003D007D00
0000000000
0000000000
0006BFE900
006FFFFFC0
01FFA5AF80
07F8000100
1FD0000000
2F40000000
7F00000000
BD00000000
BC00000000
FC00000000
FC00000000
F800000000
FC00000000
FC00000000
BC00000000
BD00000000
7E00000000
3F40000000
1FD0000000
0BF4000000
02FF956B40
007FFFFF40
0006FFE900
ENDCHAR
STARTCHAR ccircumflex
ENCODING 265
SWIDTH 476 0
DWIDTH 15 0
BBX 13 24 1 0
BITMAP
000FD000
002FF000
007DFC00
01F42E00
07D00B80
00000000
00000000
001BFE40
01FFFFC0
07F95B80
0FD00000
1F400000
2F000000
3E000000
3E000000
7D000000
3E000000
3E000000
3F000000
2F400000
0FD00000
07F956C0
01FFFFC0
001BFA40
ENDCHAR
STARTCHAR Cdot
ENCODING 266
SWIDTH 630 0
DWIDTH 20 0
BBX 17 28 2 0
BITMAP
00002E0000
00003F0000
00002E0000
0000000000
0000000000
0006BFE900
006FFFFFC0
01FFA5AF80
07F8000100
1FD0000000
2F40000000
7F00000000
BD00000000
BC00000000
FC00000000
FC00000000
F800000000
FC00000000
FC00000000
BC00000000
BD00000000
7E00000000
3F40000000
1FD0000000
0BF4000000
02FF956B40
007FFFFF40
0006FFE900
ENDCHAR
STARTCHAR cdot
ENCODING 267
SWIDTH 476 0
DWIDTH 15 0
BBX 13 23 1 0
BITMAP
0002D000
0007E000
0002D000
00000000
00000000
00000000
001BFE40
01FFFFC0
07F95B80
0FD00000
1F400000
2F000000
3E000000
3E000000
7D000000
3E000000
3E000000
3F000000
2F400000
0FD00000
07F956C0
01FFFFC0
001BFA40
ENDCHAR
STARTCHAR Ccaron
ENCODING 268
SWIDTH 630 0
DWIDTH 20 0
BBX 17 30 2 0
BITMAP
002E002E00
000BC1F800
0002F7E000
0000FF8000
00007F0000
0000000000
0000000000
0006BFE900
006FFFFFC0
01FFA5AF80
07F8000100
1FD0000000
2F40000000
7F00000000
BD00000000
BC00000000
FC00000000
FC00000000
F800000000
FC00000000
FC00000000
BC00000000
BD00000000
7E00000000
3F40000000
1FD0000000
0BF4000000
02FF956B40
007FFFFF40
0006FFE900
ENDCHAR
STARTCHAR ccaron
ENCODING 269
SWIDTH 476 0
DWIDTH 15 0
BBX 14 24 1 0
BITMAP
02D007D0
00F81F40
003E7D00
001FF800
0007E000
00000000
00000000
001BFE40
01FFFFC0
07F95B80
0FD00000
1F400000
2F000000
3E000000
3E000000
7D000000
3E000000
3E000000
3F000000
2F400000
0FD00000
07F956C0
01FFFFC0
001BFA40
ENDCHAR
STARTCHAR Dcaron
ENCODING 270
SWIDTH 729 0
DWIDTH 23 0
BBX 19 30 3 0
BITMAP
07D007C000
01F42F0000
007DBC0000
002FF40000
000BD00000
0000000000
0000000000
FFFFE90000
FFFFFFD000
FD556FF800
F80001FE00
F800002F80
F800000FC0
F8000007E0
F8000003F0
F8000002F0
F8000002F4
F8000001F4
F8000001F4
F8000002F4
F8000002F4
F8000002F0
F8000003E0
F800000BD0
F800001FC0
F800007F40
F80001FE00
FD55AFF800
FFFFFF9000
FFFFE90000
ENDCHAR
STARTCHAR dcaron
ENCODING 271
SWIDTH 612 0
DWIDTH 20 0
BBX 21 24 1 0
BITMAP
0000002F0BC0
0000002F0F80
0000002F0F00
0000002F1E00
0000002F2C00
0000002F0000
0000002F0000
006FE82F0000
02FFFF6F0000
07F55BFF0000
0FC001FF0000
2F40007F0000
3F00003F0000
3E00003F0000
3E00002F0000
7D00002F0000
3E00002F0000
3E00003F0000
3F00003F0000
2F40007F0000
1FC000FF0000
0BF55BEF0000
02FFFF5F0000
006FE81F0000
ENDCHAR
STARTCHAR Dcroat
ENCODING 272
SWIDTH 722 0
DWIDTH 23 0
BBX 21 23 0 0
BITMAP
03FFFFA40000
03FFFFFE4000
03F555BFE000
03E00007F800
03E00000FD00
03E000007F00
03E000002F40
03E000001F80
03E000000FC0
03E000000FC0
7FFFFE000BC0
7FFFFE000BC0
17F555000BC0
03E000000FC0
03E000000F80
03E000001F80
03E000002F40
03E000007E00
03E00001FD00
03E0000BF400
03F556BFD000
03FFFFFE4000
03FFFF900000
ENDCHAR
STARTCHAR dcroat
ENCODING 273
SWIDTH 612 0
DWIDTH 20 0
BBX 19 24 1 0
BITMAP
0000002F00
0000002F00
0000002F00
000BFFFFF4
000BFFFFF4
0000002F00
0000002F00
006FE82F00
02FFFF6F00
07F55BFF00
0FC001FF00
2F40007F00
3F00003F00
3E00003F00
3E00002F00
7D00002F00
3E00002F00
3E00003F00
3F00003F00
2F40007F00
1FC000FF00
0BF55BEF00
02FFFF5F00
006FE81F00
ENDCHAR
STARTCHAR Emacron
ENCODING 274
SWIDTH 556 0
DWIDTH 18 0
BBX 13 27 3 0
BITMAP
0FFFFD00
0FFFFD00
00000000
00000000
FFFFFFC0
FFFFFFC0
FD555540
F8000000
F8000000
F8000000
F8000000
F8000000
F8000000
F8000000
FFFFFF40
FFFFFF40
FD555500
F8000000
F8000000
F8000000
F8000000
F8000000
F8000000
F8000000
FD555540
FFFFFFC0
FFFFFFC0
ENDCHAR
STARTCHAR emacron
ENCODING 275
SWIDTH 561 0
DWIDTH 18 0
BBX 16 21 1 0
BITMAP
00FFFFD0
00FFFFD0
00000000
00000000
001BF900
01FFFF80
07F55BE0
0FC002F4
1F4000F8
2F0000BC
3E0000BD
3FFFFFFD
7FFFFFFD
3E000000
3E000000
2F000000
1F400000
0FD00004
07F956B8
01FFFFF8
001BFE90
ENDCHAR
STARTCHAR Ebreve
ENCODING 276
SWIDTH 556 0
DWIDTH 18 0
BBX 13 29 3 0
BITMAP
0E001D00
0B917C00
07FFF400
01BF9000
00000000
00000000
FFFFFFC0
FFFFFFC0
FD555540
F8000000
F8000000
F8000000
F8000000
F8000000
F8000000
F8000000
FFFFFF40
FFFFFF40
FD555500
F8000000
F8000000
F8000000
F8000000
F8000000
F8000000
F8000000
FD555540
FFFFFFC0
FFFFFFC0
ENDCHAR
STARTCHAR ebreve
ENCODING 277
SWIDTH 561 0
DWIDTH 18 0
BBX 16 23 1 0
BITMAP
01D002C0
00F51B80
00BFFF40
001BF800
00000000
00000000
001BF900
01FFFF80
07F55BE0
0FC002F4
1F4000F8
2F0000BC
3E0000BD
3FFFFFFD
7FFFFFFD
3E000000
3E000000
2F000000
1F400000
0FD00004
07F956B8
01FFFFF8
001BFE90
ENDCHAR
STARTCHAR Edotaccent
ENCODING 278
SWIDTH 556 0
DWIDTH 18 0
BBX 13 28 3 0
BITMAP
001E0000
002F4000
001E0000
00000000
00000000
FFFFFFC0
FFFFFFC0
FD555540
F8000000
F8000000
F8000000
F8000000
F8000000
F8000000
F8000000
FFFFFF40
FFFFFF40
FD555500
F8000000
F8000000
F8000000
F8000000
F8000000
F8000000
F8000000
FD555540
FFFFFFC0
FFFFFFC0
ENDCHAR
STARTCHAR edotaccent
ENCODING 279
SWIDTH 561 0
DWIDTH 18 0
BBX 16 23 1 0
BITMAP
0002D000
0003F000
0002D000
00000000
00000000
00000000
001BF900
01FFFF80
07F55BE0
0FC002F4
1F4000F8
2F0000BC
3E0000BD
3FFFFFFD
7FFFFFFD
3E000000
3E000000
2F000000
1F400000
0FD00004
07F956B8
01FFFFF8
001BFE90
ENDCHAR
STARTCHAR Eogonek
ENCODING 280
SWIDTH 556 0
DWIDTH 18 0
BBX 13 30 3 -7
BITMAP
FFFFFFC0
FFFFFFC0
FD555540
F8000000
F8000000
F8000000
F8000000
F8000000
F8000000
F8000000
FFFFFF40
FFFFFF40
FD555500
F8000000
F8000000
F8000000
F8000000
F8000000
F8000000
F8000000
FD555540
FFFFFFC0
FFFFFFC0
00002D00
0000B400
0001F000
0002E000
0002E000
0001FF80
00007F40
ENDCHAR
STARTCHAR eogonek
ENCODING 281
SWIDTH 561 0
DWIDTH 18 0
BBX 16 24 1 -7
BITMAP
001BF900
01FFFF80
07F55BE0
0FC002F4
1F4000F8
2F0000BC
3E0000BD
3FFFFFFD
7FFFFFFD
3E000000
3E000000
2F000000
1F400000
0FD00004
07F956B8
01FFFFF8
001BFE90
000002C0
00000B40
00001E00
00002D00
00002E00
00001FF4
00000BF4
ENDCHAR
STARTCHAR Ecaron
ENCODING 282
SWIDTH 556 0
DWIDTH 18 0
BBX 13 30 3 0
BITMAP
1E002E00
0BD0B800
02F7F000
00BFC000
003F4000
00000000
00000000
FFFFFFC0
FFFFFFC0
FD555540
F8000000
F8000000
F8000000
F8000000
F8000000
F8000000
F8000000
FFFFFF40
FFFFFF40
FD555500
F8000000
F8000000
F8000000
F8000000
F8000000
F8000000
F8000000
FD555540
FFFFFFC0
FFFFFFC0
ENDCHAR
STARTCHAR ecaron
ENCODING 283
SWIDTH 561 0
DWIDTH 18 0
BBX 16 24 1 0
BITMAP
02E002D0
00B81F80
003F7E00
000FF800
0007F000
00000000
00000000
001BF900
01FFFF80
07F55BE0
0FC002F4
1F4000F8
2F0000BC
3E0000BD
3FFFFFFD
7FFFFFFD
3E000000
3E000000
2F000000
1F400000
0FD00004
07F956B8
01FFFFF8
001BFE90
ENDCHAR
STARTCHAR Gcircumflex
ENCODING 284
SWIDTH 728 0
DWIDTH 23 0
BBX 19 30 2 0
BITMAP
00002F8000
00007FD000
0001FAF400
0003E0BD00
000F401F40
0000000000
0000000000
0001AFFA40
002FFFFFF4
01FFA56BF0
07F9000050
0FD0000000
2F80000000
3F00000000
7D00000000
BC00000000
FC00000000
FC00000000
F80002FFFC
F80002FFFC
FC000155BC
BC000000BC
BD000000BC
7E000000BC
2F400000BC
1FD00000BC
0BF80000BC
02FFA55AFC
007FFFFFFC
0006BFFA50
ENDCHAR
STARTCHAR gcircumflex
ENCODING 285
SWIDTH 547 0
DWIDTH 18 0
BBX 17 32 0 -8
BITMAP
0003F40000
000BFC0000
002F7E0000
00BD0F8000
01E002E000
0000000000
0000000000
002BFFFF80
01FFFFFE80
07F407F000
0BC001F400
0F8000F800
0F8000F800
0F8000F800
0BC001F400
07E407E000
01FFFF8000
007FF90000
01F4000000
03D0000000
03D0000000
03E0000000
02FFFFE400
01FFFFFD00
0BE555BF00
2E00001F40
7D00000F80
7C00000F40
7D00002F00
2F9005FD00
0BFFFFF400
01BFFA4000
ENDCHAR
STARTCHAR Gbreve
ENCODING 286
SWIDTH 728 0
DWIDTH 23 0
BBX 19 29 2 0
BITMAP
0007400B40
0003D46F00
0001FFFD00
00006FE000
0000000000
0000000000
0001AFFA40
002FFFFFF4
01FFA56BF0
07F9000050
0FD0000000
2F80000000
3F00000000
7D00000000
BC00000000
FC00000000
FC00000000
F80002FFFC
F80002FFFC
FC000155BC
BC000000BC
BD000000BC
7E000000BC
2F400000BC
1FD00000BC
0BF80000BC
02FFA55AFC
007FFFFFFC
0006BFFA50
ENDCHAR
STARTCHAR gbreve
ENCODING 287
SWIDTH 547 0
DWIDTH 18 0
BBX 17 31 0 -8
BITMAP
00E001D000
00F517C000
007FFF4000
001BF90000
0000000000
0000000000
002BFFFF80
01FFFFFE80
07F407F000
0BC001F400
0F8000F800
0F8000F800
0F8000F800
0BC001F400
07E407E000
01FFFF8000
007FF90000
01F4000000
03D0000000
03D0000000
03E0000000
02FFFFE400
01FFFFFD00
0BE555BF00
2E00001F40
7D00000F80
7C00000F40
7D00002F00
2F9005FD00
0BFFFFF400
01BFFA4000
ENDCHAR
STARTCHAR Gdot
ENCODING 288
SWIDTH 728 0
DWIDTH 23 0
BBX 19 28 2 0
BITMAP
0000078000
00000FC000
0000078000
0000000000
0000000000
0001AFFA40
002FFFFFF4
01FFA56BF0
07F9000050
0FD0000000
2F80000000
3F00000000
7D00000000
BC00000000
FC00000000
FC00000000
F80002FFFC
F80002FFFC
FC000155BC
BC000000BC
BD000000BC
7E000000BC
2F400000BC
1FD00000BC
0BF80000BC
02FFA55AFC
007FFFFFFC
0006BFFA50
ENDCHAR
STARTCHAR gdot
ENCODING 289
SWIDTH 547 0
DWIDTH 18 0
BBX 17 31 0 -8
BITMAP
0002E00000
0003F00000
0002E00000
0000000000
0000000000
0000000000
002BFFFF80
01FFFFFE80
07F407F000
0BC001F400
0F8000F800
0F8000F800
0F8000F800
0BC001F400
07E407E000
01FFFF8000
007FF90000
01F4000000
03D0000000
03D0000000
03E0000000
02FFFFE400
01FFFFFD00
0BE555BF00
2E00001F40
7D00000F80
7C00000F40
7D00002F00
2F9005FD00
0BFFFFF400
01BFFA4000
ENDCHAR
STARTCHAR Gcommaaccent
ENCODING 290
SWIDTH 728 0
DWIDTH 23 0
BBX 19 30 2 -7
BITMAP
0001AFFA40
002FFFFFF4
01FFA56BF0
07F9000050
0FD0000000
2F80000000
3F00000000
7D00000000
BC00000000
FC00000000
FC00000000
F80002FFFC
F80002FFFC
FC000155BC
BC000000BC
BD000000BC
7E000000BC
2F400000BC
1FD00000BC
0BF80000BC
02FFA55AFC
007FFFFFFC
0006BFFA50
0000000000
0000000000
00001F4000
00002F0000
00003D0000
0000780000
0000B40000
ENDCHAR
STARTCHAR gcommaaccent
ENCODING 291
SWIDTH 547 0
DWIDTH 18 0
BBX 17 32 0 -8
BITMAP
00002C0000
0000780000
0000F40000
0001F00000
0003E00000
0000000000
0000000000
002BFFFF80
01FFFFFE80
07F407F000
0BC001F400
0F8000F800
0F8000F800
0F8000F800
0BC001F400
07E407E000
01FFFF8000
007FF90000
01F4000000
03D0000000
03D0000000
03E0000000
02FFFFE400
01FFFFFD00
0BE555BF00
2E00001F40
7D00000F80
7C00000F40
7D00002F00
2F9005FD00
0BFFFFF400
01BFFA4000
ENDCHAR
STARTCHAR Hcircumflex
ENCODING 292
SWIDTH 737 0
DWIDTH 24 0
BBX 18 30 3 0
BITMAP
0003F40000
000BFD0000
001FBF0000
007D0BC000
01F402E000
0000000000
0000000000
F8000007D0
F8000007D0
F8000007D0
F8000007D0
F8000007D0
F8000007D0
F8000007D0
F8000007D0
F8000007D0
F8000007D0
FFFFFFFFD0
FFFFFFFFD0
FD555557D0
F8000007D0
F8000007D0
F8000007D0
F8000007D0
F8000007D0
F8000007D0
F8000007D0
F8000007D0
F8000007D0
F8000007D0
ENDCHAR
STARTCHAR hcircumflex
ENCODING 293
SWIDTH 613 0
DWIDTH 20 0
BBX 15 30 2 0
BITMAP
000BE000
001FF400
007EBD00
01F42F00
07D007C0
00000000
7D000000
7D000000
7D000000
7D000000
7D000000
7D000000
7D000000
7D1BFE40
7DBFFFD0
7EF55BF4
7F8001F8
7F0000BC
7E0000BC
7D0000BC
7D0000BC
7D0000BC
7D0000BC
7D0000BC
7D0000BC
7D0000BC
7D0000BC
7D0000BC
7D0000BC
7D0000BC
ENDCHAR
STARTCHAR Hbar
ENCODING 294
SWIDTH 737 0
DWIDTH 24 0
BBX 24 23 0 0
BITMAP
03E000001F40
03E000001F40
03E000001F40
03E000001F40
FFFFFFFFFFFE
FFFFFFFFFFFE
57F555555F94
03E000001F40
03E000001F40
03E000001F40
03FFFFFFFF40
03FFFFFFFF40
03F555555F40
03E000001F40
03E000001F40
03E000001F40
03E000001F40
03E000001F40
03E000001F40
03E000001F40
03E000001F40
03E000001F40
03E000001F40
ENDCHAR
STARTCHAR hbar
ENCODING 295
SWIDTH 613 0
DWIDTH 20 0
BBX 17 24 0 0
BITMAP
07D0000000
07D0000000
07D0000000
BFFFFF4000
BFFFFF4000
07D0000000
07D0000000
07D0BFE400
07D7FFFD00
07EF55BF40
07F8001F80
07F0000BC0
07E0000BC0
07D0000BC0
07D0000BC0
07D0000BC0
07D0000BC0
07D0000BC0
07D0000BC0
07D0000BC0
07D0000BC0
07D0000BC0
07D0000BC0
07D0000BC0
ENDCHAR
STARTCHAR Itilde
ENCODING 296
SWIDTH 278 0
DWIDTH 9 0
BBX 13 29 -2 0
BITMAP
0BE40740
1FFE5F00
3D6FFD00
7406F800
00000000
00000000
003E0000
003E0000
003E0000
003E0000
003E0000
003E0000
003E0000
003E0000
003E0000
003E0000
003E0000
003E0000
003E0000
003E0000
003E0000
003E0000
003E0000
003E0000
003E0000
003E0000
003E0000
003E0000
003E0000
ENDCHAR
STARTCHAR itilde
ENCODING 297
SWIDTH 252 0
DWIDTH 8 0
BBX 12 23 -2 0
BITMAP
0BD00E
3FFD5E
797FFC
B007E4
000000
000000
007D00
007D00
007D00
007D00
007D00
007D00
007D00
007D00
007D00
007D00
007D00
007D00
007D00
007D00
007D00
007D00
007D00
ENDCHAR
STARTCHAR Imacron
ENCODING 298
SWIDTH 278 0
DWIDTH 9 0
BBX 11 27 -1 0
BITMAP
7FFFF4
7FFFF4
000000
000000
00F800
00F800
00F800
00F800
00F800
00F800
00F800
00F800
00F800
00F800
00F800
00F800
00F800
00F800
00F800
00F800
00F800
00F800
00F800
00F800
00F800
00F800
00F800
ENDCHAR
STARTCHAR imacron
ENCODING 299
SWIDTH 252 0
DWIDTH 8 0
BBX 10 21 -1 0
BITMAP
BFFFE0
BFFFE0
000000
000000
01F400
01F400
01F400
01F400
01F400
01F400
01F400
01F400
01F400
01F400
01F400
01F400
01F400
01F400
01F400
01F400
01F400
ENDCHAR
STARTCHAR Ibreve
ENCODING 300
SWIDTH 278 0
DWIDTH 9 0
BBX 11 29 -1 0
BITMAP
7400B4
3D46F0
1FFFD0
06FE40
000000
000000
00F800
00F800
00F800
00F800
00F800
00F800
00F800
00F800
00F800
00F800
00F800
00F800
00F800
00F800
00F800
00F800
00F800
00F800
00F800
00F800
00F800
00F800
00F800
ENDCHAR
STARTCHAR ibreve
ENCODING 301
SWIDTH 252 0
DWIDTH 8 0
BBX 10 23 -1 0
BITMAP
B000E0
7916D0
3FFF80
0BF900
000000
000000
01F400
01F400
01F400
01F400
01F400
01F400
01F400
01F400
01F400
01F400
01F400
01F400
01F400
01F400
01F400
01F400
01F400
ENDCHAR
STARTCHAR Iogonek
ENCODING 302
SWIDTH 278 0
DWIDTH 9 0
BBX 6 30 1 -7
BITMAP
0F80
0F80
0F80
0F80
0F80
0F80
0F80
0F80
0F80
0F80
0F80
0F80
0F80
0F80
0F80
0F80
0F80
0F80
0F80
0F80
0F80
0F80
0F80
0B40
2D00
7800
B800
B800
7FE0
1FD0
ENDCHAR
STARTCHAR iogonek
ENCODING 303
SWIDTH 252 0
DWIDTH 8 0
BBX 5 31 1 -7
BITMAP
0500
1F40
1F80
0F40
0000
0000
0000
1F40
1F40
1F40
1F40
1F40
1F40
1F40
1F40
1F40
1F40
1F40
1F40
1F40
1F40
1F40
1F40
1F40
1E00
7C00
B400
F000
F400
FEC0
2F80
ENDCHAR
STARTCHAR Idotaccent
ENCODING 304
SWIDTH 278 0
DWIDTH 9 0
BBX 3 28 3 0
BITMAP
B8
FC
B8
00
00
F8
F8
F8
F8
F8
F8
F8
F8
F8
F8
F8
F8
F8
F8
F8
F8
F8
F8
F8
F8
F8
F8
F8
ENDCHAR
STARTCHAR dotlessi
ENCODING 305
SWIDTH 252 0
DWIDTH 8 0
BBX 4 17 2 0
BITMAP
7D
7D
7D
7D
7D
7D
7D
7D
7D
7D
7D
7D
7D
7D
7D
7D
7D
ENDCHAR
STARTCHAR IJ
ENCODING 306
SWIDTH 545 0
DWIDTH 17 0
BBX 12 29 3 -6
BITMAP
F8003E
F8003E
F8003E
F8003E
F8003E
F8003E
F8003E
F8003E
F8003E
F8003E
F8003E
F8003E
F8003E
F8003E
F8003E
F8003E
F8003E
F8003E
F8003E
F8003E
F8003E
F8003E
F8003E
00007D
00007D
0000BC
015BF8
02FFE0
01FE40
ENDCHAR
STARTCHAR ij
ENCODING 307
SWIDTH 505 0
DWIDTH 16 0
BBX 12 32 2 -8
BITMAP
140014
7D007E
7E007E
3D002D
000000
000000
000000
7D003D
7D003D
7D003D
7D003D
7D003D
7D003D
7D003D
7D003D
7D003D
7D003D
7D003D
7D003D
7D003D
7D003D
7D003D
7D003D
7D003D
00003D
00003D
00003D
00007D
00007D
0055FC
00BFF4
007F90
ENDCHAR
STARTCHAR Jcircumflex
ENCODING 308
SWIDTH 267 0
DWIDTH 9 0
BBX 13 36 -3 -6
BITMAP
001FC000
003FE000
00FDF800
02E07D00
0B801B40
00000000
00000000
000F8000
000F8000
000F8000
000F8000
000F8000
000F8000
000F8000
000F8000
000F8000
000F8000
000F8000
000F8000
000F8000
000F8000
000F8000
000F8000
000F8000
000F8000
000F8000
000F8000
000F8000
000F8000
000F8000
000F8000
001F4000
002F4000
55BE0000
BFFC0000
7F900000
ENDCHAR
STARTCHAR jcircumflex
ENCODING 309
SWIDTH 252 0
DWIDTH 8 0
BBX 11 32 -2 -8
BITMAP
00BE00
01FF40
07EBD0
1F42F4
3D007C
000000
000000
007D00
007D00
007D00
007D00
007D00
007D00
007D00
007D00
007D00
007D00
007D00
007D00
007D00
007D00
007D00
007D00
007D00
007D00
007D00
007D00
007D00
00BD00
55FC00
BFF400
BF9000
ENDCHAR
STARTCHAR Kcommaaccent
ENCODING 310
SWIDTH 613 0
DWIDTH 20 0
BBX 17 30 3 -7
BITMAP
F800007E00
F80001FC00
F80007F000
F8000FC000
F8003F4000
F800BD0000
F802F40000
F80BD00000
F82F400000
F87E000000
F9FD000000
FFFF400000
FF5FC00000
FD0BE00000
F802F40000
F800FD0000
F8007F0000
F8002F8000
F8000BD000
F80003F000
F80001F800
F80000BE00
F800002F40
0000000000
0000000000
000F800000
000F400000
001F000000
002D000000
0038000000
ENDCHAR
STARTCHAR kcommaaccent
ENCODING 311
SWIDTH 524 0
DWIDTH 17 0
BBX 14 31 2 -7
BITMAP
7D000000
7D000000
7D000000
7D000000
7D000000
7D000000
7D000000
7D000BD0
7D002F80
7D007E00
7D01F800
7D07E000
7D1F8000
7D7E0000
7DFD0000
7FFF0000
7F9F8000
7E0BE000
7D02F400
7D00FC00
7D007E00
7D002F80
7D000BD0
7D0003F0
00000000
00000000
001F4000
002F0000
002D0000
003C0000
00740000
ENDCHAR
STARTCHAR kgreenlandic
ENCODING 312
SWIDTH 518 0
DWIDTH 17 0
BBX 14 17 2 0
BITMAP
7E000BE0
7E002F80
7E007E00
7E01FC00
7E03F000
7E0FD000
7D2F4000
7DBE0000
7EFF4000
7FDFC000
7F47E000
7E02F400
7E00FD00
7E007F00
7E002F80
7E000BD0
7E0003F0
ENDCHAR
STARTCHAR Lacute
ENCODING 313
SWIDTH 519 0
DWIDTH 17 0
BBX 13 30 3 0
BITMAP
02F80000
07F00000
0BC00000
1F000000
7C000000
00000000
00000000
F8000000
F8000000
F8000000
F8000000
F8000000
F8000000
F8000000
F8000000
F8000000
F8000000
F8000000
F8000000
F8000000
F8000000
F8000000
F8000000
F8000000
F8000000
F8000000
F8000000
FD555540
FFFFFFC0
FFFFFFC0
ENDCHAR
STARTCHAR lacute
ENCODING 314
SWIDTH 252 0
DWIDTH 8 0
BBX 7 30 2 0
BITMAP
02F8
07E0
0F80
2E00
7800
0000
7D00
7D00
7D00
7D00
7D00
7D00
7D00
7D00
7D00
7D00
7D00
7D00
7D00
7D00
7D00
7D00
7D00
7D00
7D00
7D00
7D00
7D00
7D00
7D00
ENDCHAR
STARTCHAR Lcommaaccent
ENCODING 315
SWIDTH 519 0
DWIDTH 17 0
BBX 13 30 3 -7
BITMAP
F8000000
F8000000
F8000000
F8000000
F8000000
F8000000
F8000000
F8000000
F8000000
F8000000
F8000000
F8000000
F8000000
F8000000
F8000000
F8000000
F8000000
F8000000
F8000000
F8000000
FD555540
FFFFFFC0
FFFFFFC0
00000000
00000000
007D0000
007C0000
00B80000
00F00000
01D00000
ENDCHAR
STARTCHAR lcommaaccent
ENCODING 316
SWIDTH 252 0
DWIDTH 8 0
BBX 5 31 1 -7
BITMAP
1F40
1F40
1F40
1F40
1F40
1F40
1F40
1F40
1F40
1F40
1F40
1F40
1F40
1F40
1F40
1F40
1F40
1F40
1F40
1F40
1F40
1F40
1F40
1F40
0000
0000
1F40
2F00
3D00
7C00
B400
ENDCHAR
STARTCHAR Lcaron
ENCODING 317
SWIDTH 519 0
DWIDTH 17 0
BBX 13 23 3 0
BITMAP
F8007D00
F800BC00
F800B400
F800F000
F801D000
F8000000
F8000000
F8000000
F8000000
F8000000
F8000000
F8000000
F8000000
F8000000
F8000000
F8000000
F8000000
F8000000
F8000000
F8000000
FD555540
FFFFFFC0
FFFFFFC0
ENDCHAR
STARTCHAR lcaron
ENCODING 318
SWIDTH 252 0
DWIDTH 8 0
BBX 9 24 2 0
BITMAP
7D1F40
7D1F00
7D2E00
7D3C00
7D3800
7D0000
7D0000
7D0000
7D0000
7D0000
7D0000
7D0000
7D0000
7D0000
7D0000
7D0000
7D0000
7D0000
7D0000
7D0000
7D0000
7D0000
7D0000
7D0000
ENDCHAR
STARTCHAR Ldot
ENCODING 319
SWIDTH 519 0
DWIDTH 17 0
BBX 13 23 3 0
BITMAP
F8000000
F8000000
F8000000
F8000000
F8000000
F8000000
F8000000
F8000000
F8000000
F8000000
F800F400
F801F800
F800F400
F8000000
F8000000
F8000000
F8000000
F8000000
F8000000
F8000000
FD555540
FFFFFFC0
FFFFFFC0
ENDCHAR
STARTCHAR ldot
ENCODING 320
SWIDTH 313 0
DWIDTH 10 0
BBX 9 24 2 0
BITMAP
7D0000
7D0000
7D0000
7D0000
7D0000
7D0000
7D0000
7D0000
7D0000
7D0000
7D0000
7D0000
7D0F40
7D1F80
7D0F40
7D0000
7D0000
7D0000
7D0000
7D0000
7D0000
7D0000
7D0000
7D0000
ENDCHAR
STARTCHAR Lslash
ENCODING 321
SWIDTH 522 0
DWIDTH 17 0
BBX 16 23 0 0
BITMAP
03E00000
03E00000
03E00000
03E00000
03E00000
03E00000
03E00000
03E00000
03E01800
03E1BD00
03FBF800
03FF9000
03FD0000
2FF00000
7FE00000
27E00000
03E00000
03E00000
03E00000
03E00000
03F55555
03FFFFFF
03FFFFFF
ENDCHAR
STARTCHAR lslash
ENCODING 322
SWIDTH 261 0
DWIDTH 8 0
BBX 9 24 0 0
BITMAP
07D000
07D000
07D000
07D000
07D000
07D000
07D000
07D000
07D000
07D600
07EF40
07FE00
0BF400
7FD000
FFD000
67D000
07D000
07D000
07D000
07D000
07D000
07D000
07D000
07D000
ENDCHAR
STARTCHAR Nacute
ENCODING 323
SWIDTH 753 0
DWIDTH 24 0
BBX 18 30 3 0
BITMAP
00000FC000
00002F4000
00007D0000
0000F80000
0002D00000
0000000000
0000000000
FD000002F0
FF000002F0
FF800002F0
FFD00002F0
F7F00002F0
F5F80002F0
F8BD0002F0
F83F0002F0
F81F8002F0
F80BD002F0
F803F002F0
F801F802F0
F800BD02F0
F8007F02F0
F8002F81F0
F8000FD1F0
F80007E1F0
F80002F5F0
F80000FDF0
F800007FF0
F800002FF0
F800000FF0
F8000007F0
ENDCHAR
STARTCHAR nacute
ENCODING 324
SWIDTH 613 0
DWIDTH 20 0
BBX 15 24 2 0
BITMAP
00007F00
0000BD00
0001F400
0007D000
000B4000
00000000
00000000
7C1BFE40
7CBFFFD0
7EF55BF4
7F8001F8
7F0000BC
7E0000BC
7D0000BC
7D0000BC
7D0000BC
7D0000BC
7D0000BC
7D0000BC
7D0000BC
7D0000BC
7D0000BC
7D0000BC
7D0000BC
ENDCHAR
STARTCHAR Ncommaaccent
ENCODING 325
SWIDTH 753 0
DWIDTH 24 0
BBX 18 30 3 -7
BITMAP
FD000002F0
FF000002F0
FF800002F0
FFD00002F0
F7F00002F0
F5F80002F0
F8BD0002F0
F83F0002F0
F81F8002F0
F80BD002F0
F803F002F0
F801F802F0
F800BD02F0
F8007F02F0
F8002F81F0
F8000FD1F0
F80007E1F0
F80002F5F0
F80000FDF0
F800007FF0
F800002FF0
F800000FF0
F8000007F0
0000000000
0000000000
0002F00000
0003D00000
0007C00000
000B400000
000E000000
ENDCHAR
STARTCHAR ncommaaccent
ENCODING 326
SWIDTH 613 0
DWIDTH 20 0
BBX 15 24 2 -7
BITMAP
7C1BFE40
7CBFFFD0
7EF55BF4
7F8001F8
7F0000BC
7E0000BC
7D0000BC
7D0000BC
7D0000BC
7D0000BC
7D0000BC
7D0000BC
7D0000BC
7D0000BC
7D0000BC
7D0000BC
7D0000BC
00000000
00000000
000BC000
000F8000
000F0000
001E0000
002C0000
ENDCHAR
STARTCHAR Ncaron
ENCODING 327
SWIDTH 753 0
DWIDTH 24 0
BBX 18 30 3 0
BITMAP
00F401F000
007E0BD000
001FAF4000
0007FD0000
0002F80000
0000000000
0000000000
FD000002F0
FF000002F0
FF800002F0
FFD00002F0
F7F00002F0
F5F80002F0
F8BD0002F0
F83F0002F0
F81F8002F0
F80BD002F0
F803F002F0
F801F802F0
F800BD02F0
F8007F02F0
F8002F81F0
F8000FD1F0
F80007E1F0
F80002F5F0
F80000FDF0
F800007FF0
F800002FF0
F800000FF0
F8000007F0
ENDCHAR
STARTCHAR ncaron
ENCODING 328
SWIDTH 613 0
DWIDTH 20 0
BBX 15 24 2 0
BITMAP
07D007C0
01F42F40
007EBD00
001FF400
000BE000
00000000
00000000
7C1BFE40
7CBFFFD0
7EF55BF4
7F8001F8
7F0000BC
7E0000BC
7D0000BC
7D0000BC
7D0000BC
7D0000BC
7D0000BC
7D0000BC
7D0000BC
7D0000BC
7D0000BC
7D0000BC
7D0000BC
ENDCHAR
STARTCHAR napostrophe
ENCODING 329
SWIDTH 681 0
DWIDTH 22 0
BBX 20 23 0 0
BITMAP
1F80000000
2F40000000
2F00000000
3E00000000
7D00000000
7C00000000
B83C0BFE40
F03D7FFFE0
003EF95BF4
003F8001F8
003F4000BC
003E00007C
003E00007D
003D00007D
003D00007D
003D00007D
003D00007D
003D00007D
003D00007D
003D00007D
003D00007D
003D00007D
003D00007D
ENDCHAR
STARTCHAR Eng
ENCODING 330
SWIDTH 753 0
DWIDTH 24 0
BBX 18 29 3 -6
BITMAP
FD000002F0
FF000002F0
FF800002F0
FFD00002F0
F7F00002F0
F5F80002F0
F4BD0002F0
F83F0002F0
F81F8002F0
F80BD002F0
F803F002F0
F801F802F0
F800BD02F0
F8003F01F0
F8001F81F0
F8000BD1F0
F80003F1F0
F80001F9F0
F80000BEF0
F800003FF0
F800001FF0
F800000BF0
F8000002F0
00000002F0
00000002E0
00000007E0
0000096FC0
00001FFF40
00000BF900
ENDCHAR
STARTCHAR eng
ENCODING 331
SWIDTH 613 0
DWIDTH 20 0
BBX 15 25 2 -8
BITMAP
7C1BFE40
7CBFFFD0
7FF55BF4
7F8001F8
7F0000BC
7E0000BC
7D0000BC
7D0000BC
7D0000BC
7D0000BC
7D0000BC
7D0000BC
7D0000BC
7D0000BC
7D0000BC
7D0000BC
7D0000BC
000000BC
000000BC
000000BC
000000BC
000000BC
000056F8
0000BFF0
00007F80
ENDCHAR
STARTCHAR Omacron
ENCODING 332
SWIDTH 778 0
DWIDTH 25 0
BBX 21 27 2 0
BITMAP
001FFFFD0000
001FFFFD0000
000000000000
000000000000
0006FFE40000
007FFFFF4000
02FF95BFE000
0BF40007F800
1FC00000FD00
3F4000007E00
7E0000002F40
BD0000001F40
BC0000000F80
FC0000000F80
F80000000FC0
F80000000FC0
F80000000FC0
FC0000000F80
BC0000000F80
BD0000001F40
7E0000002F40
3F4000007E00
1FC00000FD00
0BF40007F800
02FE95AFE000
007FFFFF4000
0006FFE40000
ENDCHAR
STARTCHAR omacron
ENCODING 333
SWIDTH 604 0
DWIDTH 19 0
BBX 17 21 1 0
BITMAP
00FFFFD000
00FFFFD000
0000000000
0000000000
001BFA0000
01FFFFD000
07F957F800
0FD000BD00
1F40003E00
2F00002F00
3E00001F40
3E00001F40
7D00001F80
3E00001F40
3E00001F40
2F00002F00
1F40003E00
0FD000BD00
07F957F800
01FFFFE000
001BFA0000
ENDCHAR
STARTCHAR Obreve
ENCODING 334
SWIDTH 778 0
DWIDTH 25 0
BBX 21 29 2 0
BITMAP
001D002D0000
000F51BC0000
0007FFF40000
0001BF900000
000000000000
000000000000
0006FFE40000
007FFFFF4000
02FF95BFE000
0BF40007F800
1FC00000FD00
3F4000007E00
7E0000002F40
BD0000001F40
BC0000000F80
FC0000000F80
F80000000FC0
F80000000FC0
F80000000FC0
FC0000000F80
BC0000000F80
BD0000001F40
7E0000002F40
3F4000007E00
1FC00000FD00
0BF40007F800
02FE95AFE000
007FFFFF4000
0006FFE40000
ENDCHAR
STARTCHAR obreve
ENCODING 335
SWIDTH 604 0
DWIDTH 19 0
BBX 17 23 1 0
BITMAP
00E001D000
00F517C000
007FFF4000
001BF90000
0000000000
0000000000
001BFA0000
01FFFFD000
07F957F800
0FD000BD00
1F40003E00
2F00002F00
3E00001F40
3E00001F40
7D00001F80
3E00001F40
3E00001F40
2F00002F00
1F40003E00
0FD000BD00
07F957F800
01FFFFE000
001BFA0000
ENDCHAR
STARTCHAR Ohungarumlaut
ENCODING 336
SWIDTH 778 0
DWIDTH 25 0
BBX 21 30 2 0
BITMAP
0000BD0FC000
0000F82F4000
0002F03D0000
0007C0B80000
000F01E00000
000000000000
000000000000
0006FFE40000
007FFFFF4000
02FF95BFE000
0BF40007F800
1FC00000FD00
3F4000007E00
7E0000002F40
BD0000001F40
BC0000000F80
FC0000000F80
F80000000FC0
F80000000FC0
F80000000FC0
FC0000000F80
BC0000000F80
BD0000001F40
7E0000002F40
3F4000007E00
1FC00000FD00
0BF40007F800
02FE95AFE000
007FFFFF4000
0006FFE40000
ENDCHAR
STARTCHAR ohungarumlaut
ENCODING 337
SWIDTH 604 0
DWIDTH 19 0
BBX 17 24 1 0
BITMAP
0007E0FC00
000F81F400
002F03E000
007C0B8000
00F41E0000
0000000000
0000000000
001BFA0000
01FFFFD000
07F957F800
0FD000BD00
1F40003E00
2F00002F00
3E00001F40
3E00001F40
7D00001F80
3E00001F40
3E00001F40
2F00002F00
1F40003E00
0FD000BD00
07F957F800
01FFFFE000
001BFA0000
ENDCHAR
STARTCHAR OE
ENCODING 338
SWIDTH 922 0
DWIDTH 30 0
BBX 26 23 2 0
BITMAP
0006FFFFFFFFE0
007FFFFFFFFFE0
02FF95AF955550
0BF4001F400000
1FC0001F400000
3F40001F400000
7E00001F400000
BD00001F400000
BC00001F400000
FC00001F400000
F800001FFFFFC0
F800001FFFFFC0
F800001F955540
FC00001F400000
BC00001F400000
BD00001F400000
7E00001F400000
3F40001F400000
1FC0001F400000
0BF4001F400000
02FF95AF955550
007FFFFFFFFFE0
0006FFFFFFFFE0
ENDCHAR
STARTCHAR oe
ENCODING 339
SWIDTH 941 0
DWIDTH 30 0
BBX 28 17 1 0
BITMAP
001BF9001BF900
01FFFF80BFFFC0
07F55BF2F95BF0
0FC000FBD001F8
2F40007F8000BC
3F00003F40007D
3E00002F40007D
7E00002FFFFFFD
7D00002FFFFFFD
3E00002F400000
3E00002F400000
3F00003F400000
1F40007FC00000
0FC000FFE00004
07F55BF1FE55B8
01FFFFD07FFFF8
001BF9000AFF90
ENDCHAR
STARTCHAR Racute
ENCODING 340
SWIDTH 618 0
DWIDTH 20 0
BBX 16 30 3 0
BITMAP
0001FC00
0002F400
0007D000
001F4000
002D0000
00000000
00000000
FFFFE400
FFFFFF40
FD55AFD0
F80007F0
F80002F4
F80001F8
F80000F8
F80001F8
F80001F4
F80003F0
F8006FD0
FFFFFF40
FFFFF400
FD55F800
F800BD00
F8007E00
F8002F40
F8000FC0
F80007E0
F80003F4
F80001F8
F80000BD
F800007F
ENDCHAR
STARTCHAR racute
ENCODING 341
SWIDTH 408 0
DWIDTH 13 0
BBX 11 24 2 0
BITMAP
000BE0
001F80
003F00
00BC00
01E000
000000
000000
7C0BF4
7C7FF4
7DF964
7FD000
7F4000
7F0000
7E0000
7D0000
7D0000
7D0000
7D0000
7D0000
7D0000
7D0000
7D0000
7D0000
7D0000
ENDCHAR
STARTCHAR Rcommaaccent
ENCODING 342
SWIDTH 618 0
DWIDTH 20 0
BBX 16 30 3 -7
BITMAP
FFFFE400
FFFFFF40
FD55AFD0
F80007F0
F80002F4
F80001F8
F80000F8
F80001F8
F80001F4
F80003F0
F8006FD0
FFFFFF40
FFFFF400
FD55F800
F800BD00
F8007E00
F8002F40
F8000FC0
F80007E0
F80003F4
F80001F8
F80000BD
F800007F
00000000
00000000
000F8000
001F4000
002E0000
003D0000
00740000
ENDCHAR
STARTCHAR rcommaaccent
ENCODING 343
SWIDTH 408 0
DWIDTH 13 0
BBX 12 24 1 -7
BITMAP
1F02FD
1F1FFD
1F7E59
1FF400
1FD000
1FC000
1F8000
1F4000
1F4000
1F4000
1F4000
1F4000
1F4000
1F4000
1F4000
1F4000
1F4000
000000
000000
1F4000
1F0000
2E0000
3C0000
740000
ENDCHAR
STARTCHAR Rcaron
ENCODING 344
SWIDTH 618 0
DWIDTH 20 0
BBX 16 30 3 0
BITMAP
1F401F00
07D0BC00
01FAF000
00BFD000
002F4000
00000000
00000000
FFFFE400
FFFFFF40
FD55AFD0
F80007F0
F80002F4
F80001F8
F80000F8
F80001F8
F80001F4
F80003F0
F8006FD0
FFFFFF40
FFFFF400
FD55F800
F800BD00
F8007E00
F8002F40
F8000FC0
F80007E0
F80003F4
F80001F8
F80000BD
F800007F
ENDCHAR
STARTCHAR rcaron
ENCODING 345
SWIDTH 408 0
DWIDTH 13 0
BBX 11 24 2 0
BITMAP
B801B4
3E07D0
0F9F80
07FE00
01FC00
000000
000000
7C0BF4
7C7FF4
7DF964
7FD000
7F4000
7F0000
7E0000
7D0000
7D0000
7D0000
7D0000
7D0000
7D0000
7D0000
7D0000
7D0000
7D0000
ENDCHAR
STARTCHAR Sacute
ENCODING 346
SWIDTH 548 0
DWIDTH 18 0
BBX 15 30 1 0
BITMAP
00003F40
00007E00
0000F800
0002E000
00078000
00000000
00000000
006FFA40
02FFFFF4
0FF95BF0
2F800010
3F000000
3E000000
3E000000
2F000000
1F800000
0BF80000
02FF9000
006FFE00
0002FFD0
00001FF0
000002F8
000000FC
000000BC
000000BC
000000F8
500002F4
7E956FE0
7FFFFF80
1AFFE400
ENDCHAR
STARTCHAR sacute
ENCODING 347
SWIDTH 477 0
DWIDTH 15 0
BBX 13 24 1 0
BITMAP
0001F800
0003F000
000BD000
001F4000
003D0000
00000000
00000000
01BFE900
0FFFFF40
3F956F00
7D000000
7D000000
3E000000
2FD00000
0BFE4000
00BFF400
0006FE00
00007F40
00000F80
00000B80
00000F80
69557F40
7FFFFD00
1BFF9000
ENDCHAR
STARTCHAR Scircumflex
ENCODING 348
SWIDTH 548 0
DWIDTH 18 0
BBX 15 30 1 0
BITMAP
000BE000
001FF400
007EBD00
00F81F40
03D007D0
00000000
00000000
006FFA40
02FFFFF4
0FF95BF0
2F800010
3F000000
3E000000
3E000000
2F000000
1F800000
0BF80000
02FF9000
006FFE00
0002FFD0
00001FF0
000002F8
000000FC
000000BC
000000BC
000000F8
500002F4
7E956FE0
7FFFFF80
1AFFE400
ENDCHAR
STARTCHAR scircumflex
ENCODING 349
SWIDTH 477 0
DWIDTH 15 0
BBX 13 24 1 0
BITMAP
002F4000
00BFD000
01FAF000
07D0BC00
1F402F00
00000000
00000000
01BFE900
0FFFFF40
3F956F00
7D000000
7D000000
3E000000
2FD00000
0BFE4000
00BFF400
0006FE00
00007F40
00000F80
00000B80
00000F80
69557F40
7FFFFD00
1BFF9000
ENDCHAR
STARTCHAR Scedilla
ENCODING 350
SWIDTH 548 0
DWIDTH 18 0
BBX 15 31 1 -8
BITMAP
006FFA40
02FFFFF4
0FF95BF0
2F800010
3F000000
3E000000
3E000000
2F000000
1F800000
0BF80000
02FF9000
006FFE00
0002FFD0
00001FF0
000002F8
000000FC
000000BC
000000BC
000000F8
500002F4
7E956FE0
7FFFFF80
1AFFE400
00074000
000E0000
001F9000
0006F000
0000B400
0000F400
00ABE000
00BE8000
ENDCHAR
STARTCHAR scedilla
ENCODING 351
SWIDTH 477 0
DWIDTH 15 0
BBX 13 25 1 -8
BITMAP
01BFE900
0FFFFF40
3F956F00
7D000000
7D000000
3E000000
2FD00000
0BFE4000
00BFF400
0006FE00
00007F40
00000F80
00000B80
00000F80
69557F40
7FFFFD00
1BFF9000
002C0000
00780000
00BE0000
001B8000
0003C000
0007C000
02AF8000
03F90000
ENDCHAR
STARTCHAR Scaron
ENCODING 352
SWIDTH 548 0
DWIDTH 18 0
BBX 15 30 1 0
BITMAP
03D007C0
01F82F40
007EBD00
001FF400
000BE000
00000000
00000000
006FFA40
02FFFFF4
0FF95BF0
2F800010
3F000000
3E000000
3E000000
2F000000
1F800000
0BF80000
02FF9000
006FFE00
0002FFD0
00001FF0
000002F8
000000FC
000000BC
000000BC
000000F8
500002F4
7E956FE0
7FFFFF80
1AFFE400
ENDCHAR
STARTCHAR scaron
ENCODING 353
SWIDTH 477 0
DWIDTH 15 0
BBX 13 24 1 0
BITMAP
1F401F00
07D0BC00
01F6F000
00BFD000
002F4000
00000000
00000000
01BFE900
0FFFFF40
3F956F00
7D000000
7D000000
3E000000
2FD00000
0BFE4000
00BFF400
0006FE00
00007F40
00000F80
00000B80
00000F80
69557F40
7FFFFD00
1BFF9000
ENDCHAR
STARTCHAR Tcedilla
ENCODING 354
SWIDTH 553 0
DWIDTH 18 0
BBX 18 31 0 -8
BITMAP
BFFFFFFFD0
BFFFFFFFD0
5556F55540
0001F40000
0001F40000
0001F40000
0001F40000
0001F40000
0001F40000
0001F40000
0001F40000
0001F40000
0001F40000
0001F40000
0001F40000
0001F40000
0001F40000
0001F40000
0001F40000
0001F40000
0001F40000
0001F40000
0001F40000
0000E00000
0002D00000
0003E40000
00007D0000
00001E0000
00002E0000
001ABD0000
001FE40000
ENDCHAR
STARTCHAR tcedilla
ENCODING 355
SWIDTH 353 0
DWIDTH 11 0
BBX 11 29 0 -8
BITMAP
00E000
01E000
02E000
03E000
6FFFF8
BFFFF8
03E000
03E000
03E000
03E000
03E000
03E000
03E000
03E000
03E000
03E000
03E000
03F000
02F914
00FFF8
002FF4
000E00
001D00
003F40
0007E0
0001F0
0001E0
01ABD0
01FE40
ENDCHAR
STARTCHAR Tcaron
ENCODING 356
SWIDTH 553 0
DWIDTH 18 0
BBX 18 30 0 0
BITMAP
01F401F000
007D0BC000
001FAF0000
000BFD0000
0002F40000
0000000000
0000000000
BFFFFFFFD0
BFFFFFFFD0
5556F55540
0001F40000
0001F40000
0001F40000
0001F40000
0001F40000
0001F40000
0001F40000
0001F40000
0001F40000
0001F40000
0001F40000
0001F40000
0001F40000
0001F40000
0001F40000
0001F40000
0001F40000
0001F40000
0001F40000
0001F40000
ENDCHAR
STARTCHAR tcaron
ENCODING 357
SWIDTH 353 0
DWIDTH 11 0
BBX 12 24 0 0
BITMAP
00007D
0000BC
0000B4
00E0F0
01E1D0
02E000
03E000
6FFFF8
BFFFF8
03E000
03E000
03E000
03E000
03E000
03E000
03E000
03E000
03E000
03E000
03E000
03F000
02F914
00FFF8
002FF4
ENDCHAR
STARTCHAR Tbar
ENCODING 358
SWIDTH 553 0
DWIDTH 18 0
BBX 18 23 0 0
BITMAP
BFFFFFFFD0
BFFFFFFFD0
5556F55540
0001F40000
0001F40000
0001F40000
0001F40000
0001F40000
0001F40000
0001F40000
07FFFFFC00
07FFFFFC00
0156F55400
0001F40000
0001F40000
0001F40000
0001F40000
0001F40000
0001F40000
0001F40000
0001F40000
0001F40000
0001F40000
ENDCHAR
STARTCHAR tbar
ENCODING 359
SWIDTH 353 0
DWIDTH 11 0
BBX 11 21 0 0
BITMAP
00E000
01E000
02E000
03E000
6FFFF8
BFFFF8
03E000
03E000
03E000
03E000
7FFFF4
7FFFF4
03E000
03E000
03E000
03E000
03E000
03F000
02F914
00FFF8
002FE4
ENDCHAR
STARTCHAR Utilde
ENCODING 360
SWIDTH 728 0
DWIDTH 23 0
BBX 18 29 3 0
BITMAP
007E407400
01FFE5B000
02D6FFE000
03802F8000
0000000000
0000000000
F8000007D0
F8000007D0
F8000007D0
F8000007D0
F8000007D0
F8000007D0
F8000007D0
F8000007D0
F8000007D0
F8000007D0
F8000007D0
F8000007D0
F8000007D0
F8000007D0
F8000007D0
F8000007D0
F8000007D0
BC00000BC0
7E00001F80
2F80007F00
0FF95AFD00
02FFFFF400
006BFE4000
ENDCHAR
STARTCHAR utilde
ENCODING 361
SWIDTH 613 0
DWIDTH 20 0
BBX 15 23 2 0
BITMAP
01F900D0
07FF96D0
0B5BFF80
0E00BE00
00000000
00000000
7D0000BC
7D0000BC
7D0000BC
7D0000BC
7D0000BC
7D0000BC
7D0000BC
7D0000BC
7D0000BC
7D0000BC
7D0000FC
7D0000FC
7D0001FC
3F0007FC
2FD56FBC
0BFFFD7C
01BFA07C
ENDCHAR
STARTCHAR Umacron
ENCODING 362
SWIDTH 728 0
DWIDTH 23 0
BBX 18 27 3 0
BITMAP
00FFFFD000
00FFFFD000
0000000000
0000000000
F8000007D0
F8000007D0
F8000007D0
F8000007D0
F8000007D0
F8000007D0
F8000007D0
F8000007D0
F8000007D0
F8000007D0
F8000007D0
F8000007D0
F8000007D0
F8000007D0
F8000007D0
F8000007D0
F8000007D0
BC00000BC0
7E00001F80
2F80007F00
0FF95AFD00
02FFFFF400
006BFE4000
ENDCHAR
STARTCHAR umacron
ENCODING 363
SWIDTH 613 0
DWIDTH 20 0
BBX 15 21 2 0
BITMAP
03FFFF40
03FFFF40
00000000
00000000
7D0000BC
7D0000BC
7D0000BC
7D0000BC
7D0000BC
7D0000BC
7D0000BC
7D0000BC
7D0000BC
7D0000BC
7D0000FC
7D0000FC
7D0001FC
3F0007FC
2FD56FBC
0BFFFD7C
01BFA07C
ENDCHAR
STARTCHAR Ubreve
ENCODING 364
SWIDTH 728 0
DWIDTH 23 0
BBX 18 29 3 0
BITMAP
01E001D000
00F517C000
007FFF4000
001BF90000
0000000000
0000000000
F8000007D0
F8000007D0
F8000007D0
F8000007D0
F8000007D0
F8000007D0
F8000007D0
F8000007D0
F8000007D0
F8000007D0
F8000007D0
F8000007D0
F8000007D0
F8000007D0
F8000007D0
F8000007D0
F8000007D0
BC00000BC0
7E00001F80
2F80007F00
0FF95AFD00
02FFFFF400
006BFE4000
ENDCHAR
STARTCHAR ubreve
ENCODING 365
SWIDTH 613 0
DWIDTH 20 0
BBX 15 23 2 0
BITMAP
03800740
02E45F00
01FFFD00
006FE400
00000000
00000000
7D0000BC
7D0000BC
7D0000BC
7D0000BC
7D0000BC
7D0000BC
7D0000BC
7D0000BC
7D0000BC
7D0000BC
7D0000FC
7D0000FC
7D0001FC
3F0007FC
2FD56FBC
0BFFFD7C
01BFA07C
ENDCHAR
STARTCHAR Uring
ENCODING 366
SWIDTH 728 0
DWIDTH 23 0
BBX 18 32 3 0
BITMAP
0006F40000
001FAE0000
002C0B0000
002C0B0000
002C0B0000
001FAE0000
0006F40000
0000000000
0000000000
F8000007D0
F8000007D0
F8000007D0
F8000007D0
F8000007D0
F8000007D0
F8000007D0
F8000007D0
F8000007D0
F8000007D0
F8000007D0
F8000007D0
F8000007D0
F8000007D0
F8000007D0
F8000007D0
F8000007D0
BC00000BC0
7E00001F80
2F80007F00
0FF95AFD00
02FFFFF400
006BFE4000
ENDCHAR
STARTCHAR uring
ENCODING 367
SWIDTH 613 0
DWIDTH 20 0
BBX 15 26 2 0
BITMAP
001BE000
003EB800
00B02C00
00B01D00
00B02C00
003EB800
001BE000
00000000
00000000
7D0000BC
7D0000BC
7D0000BC
7D0000BC
7D0000BC
7D0000BC
7D0000BC
7D0000BC
7D0000BC
7D0000BC
7D0000FC
7D0000FC
7D0001FC
3F0007FC
2FD56FBC
0BFFFD7C
01BFA07C
ENDCHAR
STARTCHAR Uhungarumlaut
ENCODING 368
SWIDTH 728 0
DWIDTH 23 0
BBX 18 30 3 0
BITMAP
0007E0BD00
000FC1F800
001F43E000
003D0B8000
00B41E0000
0000000000
0000000000
F8000007D0
F8000007D0
F8000007D0
F8000007D0
F8000007D0
F8000007D0
F8000007D0
F8000007D0
F8000007D0
F8000007D0
F8000007D0
F8000007D0
F8000007D0
F8000007D0
F8000007D0
F8000007D0
F8000007D0
BC00000BC0
7E00001F80
2F80007F00
0FF95AFD00
02FFFFF400
006BFE4000
ENDCHAR
STARTCHAR uhungarumlaut
ENCODING 369
SWIDTH 613 0
DWIDTH 20 0
BBX 15 24 2 0
BITMAP
001F82F4
002F07E0
007D0B80
00F41E00
02D03800
00000000
00000000
7D0000BC
7D0000BC
7D0000BC
7D0000BC
7D0000BC
7D0000BC
7D0000BC
7D0000BC
7D0000BC
7D0000BC
7D0000FC
7D0000FC
7D0001FC
3F0007FC
2FD56FBC
0BFFFD7C
01BFA07C
ENDCHAR
STARTCHAR Uogonek
ENCODING 370
SWIDTH 728 0
DWIDTH 23 0
BBX 18 30 3 -7
BITMAP
F8000007D0
F8000007D0
F8000007D0
F8000007D0
F8000007D0
F8000007D0
F8000007D0
F8000007D0
F8000007D0
F8000007D0
F8000007D0
F8000007D0
F8000007D0
F8000007D0
F8000007D0
F8000007D0
F8000007D0
BC00000BC0
7E00001F80
2F80007F00
0FF95AFD00
02FFFFF400
006BFE4000
0000B00000
0003D00000
000B800000
000B400000
000F400000
000BED0000
0002FD0000
ENDCHAR
STARTCHAR uogonek
ENCODING 371
SWIDTH 613 0
DWIDTH 20 0
BBX 16 24 2 -7
BITMAP
7D0000BC
7D0000BC
7D0000BC
7D0000BC
7D0000BC
7D0000BC
7D0000BC
7D0000BC
7D0000BC
7D0000BC
7D0000FC
7D0000FC
7D0001FC
3F0007FC
2FD56FBC
0BFFFD7C
01BFA07C
000000B4
000002D0
000007C0
00000B80
00000B80
000007FE
000001FD
ENDCHAR
STARTCHAR Wcircumflex
ENCODING 372
SWIDTH 925 0
DWIDTH 30 0
BBX 29 30 0 0
BITMAP
0000003F40000000
000000BFC0000000
000001F7F0000000
000007D0B8000000
00001F402E000000
0000000000000000
0000000000000000
7D00003F40000BC0
7E00003F80000F80
3F00007FC0001F80
2F0000BFC0002F40
1F4000F7D0002F00
0F8001F6E0003E00
0FC002F1F0007D00
0BC003E1F400BD00
07D007D0F800BC00
03E00BC0BC00F800
02F00B807D01F400
02F00F403E02F000
01F41F402F02F000
00F82F001F43E000
00BC3E000F47D000
007C7D000B8BC000
007D7C0007CB8000
003EB80007DF8000
002EF40003EF4000
001FF00002FF0000
000FF00001FE0000
000FE00000FD0000
000BD00000BD0000
ENDCHAR
STARTCHAR wcircumflex
ENCODING 373
SWIDTH 777 0
DWIDTH 25 0
BBX 25 24 0 0
BITMAP
000007F0000000
00000FF8000000
00002F7E000000
0000BC1F800000
0002E002E00000
00000000000000
00000000000000
BD0003F0001F40
7D0007F4002F00
3E000BF8002F00
2F000FBC003E00
1F401F3D007D00
0F402E3E00BC00
0F803D2F00F800
0BC07C1F40F400
07D0B80F81F400
03E0F40BC2F000
02E1F007D3E000
01F2E003D3D000
01F7D002E7C000
00FBD001FB8000
00BFC000FF8000
007F8000BF4000
003F40007F0000
ENDCHAR
STARTCHAR Ycircumflex
ENCODING 374
SWIDTH 560 0
DWIDTH 18 0
BBX 18 30 0 0
BITMAP
0002F80000
0007FD0000
001FAF4000
007D0BD000
00F401F000
0000000000
0000000000
BD000007E0
7E00000BC0
2F40001F80
0F80002F00
0BD0007D00
03E000FC00
02F401F400
00FC03F000
007D07D000
003F0F8000
001F6F4000
000BFE0000
0007FC0000
0002F80000
0001F40000
0001F40000
0001F40000
0001F40000
0001F40000
0001F40000
0001F40000
0001F40000
0001F40000
ENDCHAR
STARTCHAR ycircumflex
ENCODING 375
SWIDTH 503 0
DWIDTH 16 0
BBX 16 32 0 -8
BITMAP
000BE000
001FF400
007EBD00
00F81F40
03D007D0
00000000
00000000
BC00003F
7D00007E
3E0000BC
2F0000F8
1F8001F4
0BC002F0
07D003E0
03E007D0
02F00BC0
01F40F80
00B81F00
007C2E00
003D3D00
002E7C00
001FB800
000BF400
0007F000
0007E000
000BC000
000F8000
001F4000
003F0000
55FD0000
BFF40000
BF900000
ENDCHAR
STARTCHAR Ydieresis
ENCODING 376
SWIDTH 560 0
DWIDTH 18 0
BBX 18 28 0 0
BITMAP
003C03C000
007D07D000
003C03C000
0000000000
0000000000
BD000007E0
7E00000BC0
2F40001F80
0F80002F00
0BD0007D00
03E000FC00
02F401F400
00FC03F000
007D07D000
003F0F8000
001F6F4000
000BFE0000
0007FC0000
0002F80000
0001F40000
0001F40000
0001F40000
0001F40000
0001F40000
0001F40000
0001F40000
0001F40000
0001F40000
ENDCHAR
STARTCHAR Zacute
ENCODING 377
SWIDTH 570 0
DWIDTH 18 0
BBX 16 30 1 0
BITMAP
00003F00
0000BD00
0001F400
0003E000
000B4000
00000000
00000000
7FFFFFFE
7FFFFFFE
155555FD
000001F8
000003F0
00000BD0
00001F80
00003F00
0000BD00
0001F800
0003F000
000BD000
001F8000
003F4000
00BE0000
01F80000
02F40000
07E00000
1FC00000
2F400000
7E555555
BFFFFFFF
BFFFFFFF
ENDCHAR
STARTCHAR zacute
ENCODING 378
SWIDTH 467 0
DWIDTH 15 0
BBX 13 24 1 0
BITMAP
0002F800
0003F000
000BC000
001F4000
003D0000
00000000
00000000
3FFFFF40
3FFFFF40
00002F00
00007D00
0000F800
0002F000
000BD000
001F8000
003E0000
00BD0000
01F40000
03E00000
0BC00000
1F400000
7E000000
BFFFFF80
BFFFFF80
ENDCHAR
STARTCHAR Zdotaccent
ENCODING 379
SWIDTH 570 0
DWIDTH 18 0
BBX 16 28 1 0
BITMAP
0003D000
0007E000
0003D000
00000000
00000000
7FFFFFFE
7FFFFFFE
155555FD
000001F8
000003F0
00000BD0
00001F80
00003F00
0000BD00
0001F800
0003F000
000BD000
001F8000
003F4000
00BE0000
01F80000
02F40000
07E00000
1FC00000
2F400000
7E555555
BFFFFFFF
BFFFFFFF
ENDCHAR
STARTCHAR zdotaccent
ENCODING 380
SWIDTH 467 0
DWIDTH 15 0
BBX 13 23 1 0
BITMAP
002E0000
003F0000
002E0000
00000000
00000000
00000000
3FFFFF40
3FFFFF40
00002F00
00007D00
0000F800
0002F000
000BD000
001F8000
003E0000
00BD0000
01F40000
03E00000
0BC00000
1F400000
7E000000
BFFFFF80
BFFFFF80
ENDCHAR
STARTCHAR Zcaron
ENCODING 381
SWIDTH 570 0
DWIDTH 18 0
BBX 16 30 1 0
BITMAP
03D007D0
00F81F40
007EBD00
001FF400
000BE000
00000000
00000000
7FFFFFFE
7FFFFFFE
155555FD
000001F8
000003F0
00000BD0
00001F80
00003F00
0000BD00
0001F800
0003F000
000BD000
001F8000
003F4000
00BE0000
01F80000
02F40000
07E00000
1FC00000
2F400000
7E555555
BFFFFFFF
BFFFFFFF
ENDCHAR
STARTCHAR zcaron
ENCODING 382
SWIDTH 467 0
DWIDTH 15 0
BBX 13 24 1 0
BITMAP
2E002E00
0BD0F800
02F7E000
00BF8000
003F0000
00000000
00000000
3FFFFF40
3FFFFF40
00002F00
00007D00
0000F800
0002F000
000BD000
001F8000
003E0000
00BD0000
01F40000
03E00000
0BC00000
1F400000
7E000000
BFFFFF80
BFFFFF80
ENDCHAR
STARTCHAR longs
ENCODING 383
SWIDTH 319 0
DWIDTH 10 0
BBX 10 24 2 0
BITMAP
01BF90
0BFFC0
2F9540
3F0000
3E0000
7D0000
7D0000
7D0000
7D0000
7D0000
7D0000
7D0000
7D0000
7D0000
7D0000
7D0000
7D0000
7D0000
7D0000
7D0000
7D0000
7D0000
7D0000
7D0000
ENDCHAR
STARTCHAR florin
ENCODING 402
SWIDTH 577 0
DWIDTH 18 0
BBX 13 31 3 -8
BITMAP
0002BF80
000FFFC0
002F9540
003E0000
003D0000
007D0000
007D0000
007D0000
06FFFE00
2FFFFE00
007D0000
007D0000
007D0000
007D0000
007D0000
007D0000
007D0000
007D0000
007D0000
007D0000
007D0000
007D0000
007D0000
007D0000
007D0000
007D0000
007D0000
00BD0000
56FC0000
FFF40000
BF900000
ENDCHAR
STARTCHAR Ohorn
ENCODING 416
SWIDTH 779 0
DWIDTH 25 0
BBX 24 24 2 0
BITMAP
0000000000BD
0006FFA400BD
007FFFFF40BC
02FF95BFE1F4
0BF40007FFE0
1FC00000FF40
3F4000007E00
7E0000002F00
BD0000001F40
BC0000001F80
FC0000000F80
F80000000FC0
F80000000FC0
F80000000FC0
FC0000000F80
BC0000001F80
BD0000001F40
7E0000002F00
3F4000007E00
1F800000FD00
0BF40007F400
02FE95AFE000
007FFFFF4000
0006FFE40000
ENDCHAR
STARTCHAR ohorn
ENCODING 417
SWIDTH 608 0
DWIDTH 19 0
BBX 20 19 1 0
BITMAP
00000000BD
00000000BC
001BFA00F8
01FFFFD2F0
07F957FFD0
0FC000BE00
1F40003E00
2F00002F00
3E00001F40
3E00001F40
7D00001F80
3E00001F40
3E00001F40
2F00002F00
1F40003E00
0FC000BD00
07F957F800
01FFFFE000
001BFA0000
ENDCHAR
STARTCHAR Uhorn
ENCODING 431
SWIDTH 768 0
DWIDTH 25 0
BBX 23 24 3 0
BITMAP
0000000000F8
F8000007D1F8
F8000007D1F4
F8000007D7E0
F8000007FF80
F8000007F900
F8000007D000
F8000007D000
F8000007D000
F8000007D000
F8000007D000
F8000007D000
F8000007D000
F8000007D000
F8000007D000
F8000007D000
F8000007D000
F8000007D000
BC00000BC000
7E00001F8000
2F80007F4000
0FF956FD0000
02FFFFF40000
006BFE400000
ENDCHAR
STARTCHAR uhorn
ENCODING 432
SWIDTH 665 0
DWIDTH 21 0
BBX 21 20 2 0
BITMAP
000000002F40
000000002F00
000000003E00
7D0000BC7D00
7D0000BDF800
7D0000BFE000
7D0000BE4000
7D0000BC0000
7D0000BC0000
7D0000BC0000
7D0000BC0000
7D0000BC0000
7D0000BC0000
7D0000FC0000
7D0000FC0000
7D0001FC0000
3F0007FC0000
2FD56FFC0000
0BFFFDBC0000
01BFE07C0000
ENDCHAR
STARTCHAR uni01F0
ENCODING 496
SWIDTH 252 0
DWIDTH 8 0
BBX 12 32 -2 -8
BITMAP
3D007D
1F81F4
07EBD0
01FF40
00BE00
000000
000000
007D00
007D00
007D00
007D00
007D00
007D00
007D00
007D00
007D00
007D00
007D00
007D00
007D00
007D00
007D00
007D00
007D00
007D00
007D00
007D00
007D00
00BD00
55FC00
BFF400
BF9000
ENDCHAR
STARTCHAR Aringacute
ENCODING 506
SWIDTH 634 0
DWIDTH 20 0
BBX 20 31 0 0
BITMAP
000003F400
00000BD000
00001F4000
00007D0000
0000000000
0000BE4000
0002EBC000
000781D000
000740E000
000381D000
0002FFC000
0000FF0000
0001FB8000
0002E7C000
0003D3D000
0007C2E000
000F81F400
001F00B800
002E007C00
003D003D00
00BC002F00
00F4000F40
01FFFFFF80
03FFFFFFC0
07E55557E0
0BC00002F0
0F400001F4
2F000000FC
3E0000007D
7D0000003E
BC0000002F
ENDCHAR
STARTCHAR aringacute
ENCODING 507
SWIDTH 556 0
DWIDTH 18 0
BBX 15 31 1 0
BITMAP
00007F80
0000FE00
0002F400
00079000
00000000
000BE000
003EBC00
00741D00
00741E00
00741D00
003EBC00
000BE000
00000000
00000000
01AFF900
0FFFFF80
0F945FE0
040003F0
000002F0
000001F4
000001F4
006AFFF4
07FFFFF4
2FD401F4
7E0001F4
7D0002F4
BD0003F4
7E000BF4
3F917EF4
1FFFF8F4
06FF90B4
ENDCHAR
STARTCHAR AEacute
ENCODING 508
SWIDTH 873 0
DWIDTH 28 0
BBX 26 30 0 0
BITMAP
000000000FD000
000000002F8000
000000007E0000
00000000B80000
00000002E00000
00000000000000
00000000000000
000007FFFFFFF0
00000BFFFFFFF0
00001F9BD55550
00002F0BC00000
00007D0BC00000
0000BC0BC00000
0001F40BC00000
0002F00BC00000
0003D00BC00000
000BC00BC00000
000F800BFFFFD0
002F000BFFFFD0
003E000BD55540
00BFFFFFC00000
00FFFFFFC00000
01F5555BC00000
03E0000BC00000
07D0000BC00000
0F80000BC00000
1F40000BC00000
3F00000BD55550
7D00000BFFFFF0
BC00000BFFFFF0
ENDCHAR
STARTCHAR aeacute
ENCODING 509
SWIDTH 857 0
DWIDTH 27 0
BBX 25 24 1 0
BITMAP
0000000FD00000
0000002F400000
0000007E000000
000000F8000000
000002E0000000
00000000000000
00000000000000
01AFE801BF9000
0BFFFF0BFFF400
0B946FAF55FD00
000007FD003F00
000003F8001F40
000003F0000F80
000002F0000F80
006BFFFFFFFF80
07FFFFFFFFFF80
2FD403F0000000
7E0003F0000000
7D0003F4000000
BD0007F8000000
7E000FFD000100
3F91BE3F956B00
1FFFF80BFFFF00
06FF9001BFE400
ENDCHAR
STARTCHAR Oslashacute
ENCODING 510
SWIDTH 778 0
DWIDTH 25 0
BBX 21 31 2 -1
BITMAP
000002F40000
000007E00000
00000F800000
00002E000000
000078000000
000000000000
000000002400
0006FFE47D00
007FFFFFFC00
02FF95BFF400
0BF4000BF400
1FC0000FFD00
3F40002F7E00
7E00007D2F00
BD0001F81F40
BC0002F00F80
FC000BD00F80
F8001F400FC0
F8003E000FC0
F800BC000FC0
FC02F4000F80
BC07E0000F80
BD0F80001F40
7E2F00002F40
3FBD00007E00
1FF80000FD00
0BF40007F800
0BFE95AFE000
1FBFFFFF4000
2F06FFE40000
090000000000
ENDCHAR
STARTCHAR oslashacute
ENCODING 511
SWIDTH 604 0
DWIDTH 19 0
BBX 17 25 1 -1
BITMAP
00002F4000
00007E0000
0000F80000
0002E00000
0007800000
0000000000
0000000800
001BFA2E00
01FFFFFD00
07F95BF800
0FD002FD00
1F400BFE00
2F001F6F00
3E003E1F40
3E00B81F40
7D02F01F80
3E07D01F40
3E1F801F40
2F3E002F00
1FFC003E00
0FF400BD00
07F957F800
0BFFFFE000
1F5BFA0000
0900000000
ENDCHAR
STARTCHAR Scommaaccent
ENCODING 536
SWIDTH 548 0
DWIDTH 18 0
BBX 15 30 1 -7
BITMAP
006FFA40
02FFFFF4
0FF95BF0
2F800010
3F000000
3E000000
3E000000
2F000000
1F800000
0BF80000
02FF9000
006FFE00
0002FFD0
00001FF0
000002F8
000000FC
000000BC
000000BC
000000F8
500002F4
7E956FE0
7FFFFF80
1AFFE400
00000000
00000000
000F8000
000F4000
001F0000
002D0000
00380000
ENDCHAR
STARTCHAR scommaaccent
ENCODING 537
SWIDTH 477 0
DWIDTH 15 0
BBX 13 24 1 -7
BITMAP
01BFE900
0FFFFF40
3F956F00
7D000000
7D000000
3E000000
2FD00000
0BFE4000
00BFF400
0006FE00
00007F40
00000F80
00000B80
00000F80
69557F40
7FFFFD00
1BFF9000
00000000
00000000
003E0000
007D0000
00B80000
00F00000
01D00000
ENDCHAR
STARTCHAR Tcommaaccent
ENCODING 538
SWIDTH 553 0
DWIDTH 18 0
BBX 18 30 0 -7
BITMAP
BFFFFFFFD0
BFFFFFFFD0
5556F55540
0001F40000
0001F40000
0001F40000
0001F40000
0001F40000
0001F40000
0001F40000
0001F40000
0001F40000
0001F40000
0001F40000
0001F40000
0001F40000
0001F40000
0001F40000
0001F40000
0001F40000
0001F40000
0001F40000
0001F40000
0000000000
0000000000
0002F00000
0002E00000
0003D00000
0007800000
000B000000
ENDCHAR
STARTCHAR tcommaaccent
ENCODING 539
SWIDTH 353 0
DWIDTH 11 0
BBX 11 28 0 -7
BITMAP
00E000
01E000
02E000
03E000
6FFFF8
BFFFF8
03E000
03E000
03E000
03E000
03E000
03E000
03E000
03E000
03E000
03E000
03E000
03F000
02F914
00FFF8
002FF4
000000
000000
003E00
007D00
007800
00B400
00E000
ENDCHAR
STARTCHAR dotlessj
ENCODING 567
SWIDTH 252 0
DWIDTH 8 0
BBX 8 25 -2 -8
BITMAP
007D
007D
007D
007D
007D
007D
007D
007D
007D
007D
007D
007D
007D
007D
007D
007D
007D
007D
007D
007D
007D
00BD
55FC
BFF4
BF90
ENDCHAR
STARTCHAR uni02BC
ENCODING 700
SWIDTH 169 0
DWIDTH 5 0
BBX 5 8 0 15
BITMAP
0FC0
1F80
1F40
2F00
2E00
3D00
7C00
7800
ENDCHAR
STARTCHAR circumflex
ENCODING 710
SWIDTH 591 0
DWIDTH 19 0
BBX 11 5 4 19
BITMAP
01FC00
03FE00
0BDF80
2F07E0
B800B8
ENDCHAR
STARTCHAR caron
ENCODING 711
SWIDTH 591 0
DWIDTH 19 0
BBX 11 5 4 19
BITMAP
B800B8
2F07E0
0BDF80
03FE00
01FC00
ENDCHAR
STARTCHAR macron
ENCODING 713
SWIDTH 586 0
DWIDTH 19 0
BBX 10 2 4 19
BITMAP
7FFFF0
7FFFF0
ENDCHAR
STARTCHAR breve
ENCODING 728
SWIDTH 591 0
DWIDTH 19 0
BBX 11 4 4 19
BITMAP
7400B4
3D46F0
1FFFD0
06FE00
ENDCHAR
STARTCHAR dotaccent
ENCODING 729
SWIDTH 252 0
DWIDTH 8 0
BBX 4 3 2 20
BITMAP
3D
7E
3D
ENDCHAR
STARTCHAR ring
ENCODING 730
SWIDTH 577 0
DWIDTH 18 0
BBX 8 7 5 19
BITMAP
0BE4
2EBC
381E
740E
381E
2EBC
0BE4
ENDCHAR
STARTCHAR ogonek
ENCODING 731
SWIDTH 196 0
DWIDTH 6 0
BBX 6 7 0 -7
BITMAP
0740
1E00
3C00
7800
7C00
3FA0
1BE0
ENDCHAR
STARTCHAR tilde
ENCODING 732
SWIDTH 591 0
DWIDTH 19 0
BBX 12 4 4 19
BITMAP
1BD00E
3FFD6D
B57FFC
A007E0
ENDCHAR
STARTCHAR hungarumlaut
ENCODING 733
SWIDTH 577 0
DWIDTH 18 0
BBX 12 5 3 19
BITMAP
03F07E
07D0FC
0F81F4
2E03D0
780B40
ENDCHAR
STARTCHAR uni02F3
ENCODING 755
SWIDTH 333 0
DWIDTH 11 0
BBX 7 7 2 -9
BITMAP
2F90
BAF4
E038
D038
E038
BAF4
2F90
ENDCHAR
STARTCHAR uni0300
ENCODING 768
SWIDTH 0 0
DWIDTH 0 0
BBX 7 5 -15 19
BITMAP
BE00
2F40
0FC0
03E0
00B4
ENDCHAR
STARTCHAR uni0301
ENCODING 769
SWIDTH 0 0
DWIDTH 0 0
BBX 7 5 -12 19
BITMAP
03F4
0BD0
1F80
3E00
B800
ENDCHAR
STARTCHAR uni0303
ENCODING 771
SWIDTH 0 0
DWIDTH 0 0
BBX 12 4 -16 19
BITMAP
0BE00B
2FFE5E
796FFD
7006F4
ENDCHAR
STARTCHAR hook
ENCODING 777
SWIDTH 0 0
DWIDTH 0 0
BBX 6 7 -12 19
BITMAP
BE40
ABD0
01E0
02E0
2F80
2D00
2C00
ENDCHAR
STARTCHAR uni030F
ENCODING 783
SWIDTH 0 0
DWIDTH 0 0
BBX 12 5 -17 19
BITMAP
7E0BD0
2F43E0
0B81F4
02D07C
00B01E
ENDCHAR
STARTCHAR dotbelow
ENCODING 803
SWIDTH 0 0
DWIDTH 0 0
BBX 3 3 -11 -5
BITMAP
B8
FC
B8
ENDCHAR
STARTCHAR tonos
ENCODING 900
SWIDTH 577 0
DWIDTH 18 0
BBX 5 6 8 19
BITMAP
2F40
3F00
3D00
7C00
B400
E000
ENDCHAR
STARTCHAR dieresistonos
ENCODING 901
SWIDTH 577 0
DWIDTH 18 0
BBX 10 7 4 20
BITMAP
002F40
003E00
007C00
00B400
78E1E0
BD02F0
7801E0
ENDCHAR
STARTCHAR Alphatonos
ENCODING 902
SWIDTH 632 0
DWIDTH 20 0
BBX 20 24 0 0
BITMAP
1F80000000
1F403D0000
2F00BF0000
3D00FF4000
7C01FB8000
B402E7C000
0003D3D000
000BC2E000
000F81F400
001F40F800
002E00BC00
003D003D00
007C002E00
00F8001F00
01FFFFFF80
02FFFFFFC0
03E5555BD0
07C00003E0
0F800002F0
1F400001F4
2F000000BC
3E0000007D
7D0000003E
BC0000002F
ENDCHAR
STARTCHAR anoteleia
ENCODING 903
SWIDTH 266 0
DWIDTH 9 0
BBX 4 4 2 9
BITMAP
2D
BF
BF
7E
ENDCHAR
STARTCHAR Epsilontonos
ENCODING 904
SWIDTH 618 0
DWIDTH 20 0
BBX 19 24 -1 0
BITMAP
1F80000000
2F4FFFFFF8
2E0FFFFFF8
3D0FD55554
780F800000
B40F800000
000F800000
000F800000
000F800000
000F800000
000F800000
000FFFFFF4
000FFFFFF4
000FD55550
000F800000
000F800000
000F800000
000F800000
000F800000
000F800000
000F800000
000FD55554
000FFFFFF8
000FFFFFF8
ENDCHAR
STARTCHAR Etatonos
ENCODING 905
SWIDTH 811 0
DWIDTH 26 0
BBX 24 24 -1 0
BITMAP
1F8000000000
2F4BC000002E
2E0BC000002E
3D0BC000002E
780BC000002E
B40BC000002E
000BC000002E
000BC000002E
000BC000002E
000BC000002E
000BC000002E
000BFFFFFFFE
000BFFFFFFFE
000BD555557E
000BC000002E
000BC000002E
000BC000002E
000BC000002E
000BC000002E
000BC000002E
000BC000002E
000BC000002E
000BC000002E
000BC000002E
ENDCHAR
STARTCHAR Iotatonos
ENCODING 906
SWIDTH 361 0
DWIDTH 12 0
BBX 10 24 -1 0
BITMAP
0F8000
1F47D0
2F07D0
2E07D0
3C07D0
7407D0
0007D0
0007D0
0007D0
0007D0
0007D0
0007D0
0007D0
0007D0
0007D0
0007D0
0007D0
0007D0
0007D0
0007D0
0007D0
0007D0
0007D0
0007D0
ENDCHAR
STARTCHAR Omicrontonos
ENCODING 908
SWIDTH 812 0
DWIDTH 26 0
BBX 25 24 -1 0
BITMAP
0F800000000000
1F4006FFE40000
2F007FFFFF4000
2E02FF95BFE000
3C0BF40007F800
741FC00000FD00
002F4000007E00
007E0000002F40
00BD0000001F80
00BC0000000F80
00FC0000000FC0
00FC0000000FC0
00FC0000000BC0
00FC0000000FC0
00FC0000000FC0
00BC0000000F80
007D0000001F80
007E0000002F40
002F4000007E00
001FC00000BD00
000BF40007F800
0002FF95AFE000
00007FFFFF4000
000006FFE40000
ENDCHAR
STARTCHAR Upsilontonos
ENCODING 910
SWIDTH 689 0
DWIDTH 22 0
BBX 23 24 -1 0
BITMAP
1F8000000000
2F6F400000F8
2E0FC00002F4
3D0BD00003E0
7803F0000BD0
B401F4001F80
0000FC002F00
00007D007E00
00002F00BC00
00001F81F400
00000BC2F000
000007E7D000
000002FFC000
000000FF4000
000000BE0000
0000007D0000
0000007D0000
0000007D0000
0000007D0000
0000007D0000
0000007D0000
0000007D0000
0000007D0000
0000007D0000
ENDCHAR
STARTCHAR Omegatonos
ENCODING 911
SWIDTH 812 0
DWIDTH 26 0
BBX 26 24 -1 0
BITMAP
0F800000000000
1F4006FFE40000
2F00BFFFFF8000
2E02FE95AFE000
3C0BE40006F800
742F800000BE00
003F0000003F00
007E0000002F40
00BD0000001F80
00BC0000000F80
00FC0000000FC0
00FC0000000FC0
00FC0000000FC0
00BC0000000F80
00BD0000001F80
007D0000001F40
003F0000003F00
001F4000007D00
000FC00000FC00
0007E00002F400
0001F8000BD000
0155BE002F9550
02FFFF407FFFE0
02FFFF407FFFE0
ENDCHAR
STARTCHAR iotadieresistonos
ENCODING 912
SWIDTH 338 0
DWIDTH 11 0
BBX 12 27 -1 0
BITMAP
001F80
002F00
003D00
007800
3CA1E0
7D02F4
3C01E0
000000
000000
000000
01F400
01F400
01F400
01F400
01F400
01F400
01F400
01F400
01F400
01F400
01F400
01F400
01F400
01F800
00FD54
007FFD
001BF9
ENDCHAR
STARTCHAR Alpha
ENCODING 913
SWIDTH 632 0
DWIDTH 20 0
BBX 20 23 0 0
BITMAP
00003D0000
0000BF0000
0000FF4000
0001FB8000
0002E7C000
0003D3D000
000BC2E000
000F81F400
001F40F800
002E00BC00
003D003D00
007C002E00
00F8001F00
01FFFFFF80
02FFFFFFC0
03E5555BD0
07C00003E0
0F800002F0
1F400001F4
2F000000BC
3E0000007D
7D0000003E
BC0000002F
ENDCHAR
STARTCHAR Beta
ENCODING 914
SWIDTH 647 0
DWIDTH 21 0
BBX 16 23 3 0
BITMAP
FFFFE900
FFFFFFD0
FD556FF4
F80002F8
F80000FC
F80000BD
F80000BC
F80000BC
F80001F8
F8001BE0
FFFFFE40
FFFFFE40
FD555BF4
F80001FC
F800007E
F800003F
F800003F
F800003F
F800007E
F80001FD
FD555BF8
FFFFFFE0
FFFFFA00
ENDCHAR
STARTCHAR Gamma
ENCODING 915
SWIDTH 520 0
DWIDTH 17 0
BBX 13 23 3 0
BITMAP
FFFFFFC0
FFFFFFC0
FD555540
F8000000
F8000000
F8000000
F8000000
F8000000
F8000000
F8000000
F8000000
F8000000
F8000000
F8000000
F8000000
F8000000
F8000000
F8000000
F8000000
F8000000
F8000000
F8000000
F8000000
ENDCHAR
STARTCHAR uni0394
ENCODING 916
SWIDTH 571 0
DWIDTH 18 0
BBX 18 23 0 0
BITMAP
0001F80000
0002FC0000
0003FD0000
0007EE0000
000BAF0000
000F5F4000
001F0F8000
002F0BC000
003E07D000
007D03E000
00BC02F000
00F801F400
01F400F800
02F000BC00
03E0007D00
07D0003E00
0BC0002F00
0F80001F40
1F40000F80
2F00000BC0
3E55555BD0
7FFFFFFFE0
7FFFFFFFE0
ENDCHAR
STARTCHAR Epsilon
ENCODING 917
SWIDTH 556 0
DWIDTH 18 0
BBX 13 23 3 0
BITMAP
FFFFFFC0
FFFFFFC0
FD555540
F8000000
F8000000
F8000000
F8000000
F8000000
F8000000
F8000000
FFFFFF40
FFFFFF40
FD555500
F8000000
F8000000
F8000000
F8000000
F8000000
F8000000
F8000000
FD555540
FFFFFFC0
FFFFFFC0
ENDCHAR
STARTCHAR Zeta
ENCODING 918
SWIDTH 570 0
DWIDTH 18 0
BBX 16 23 1 0
BITMAP
7FFFFFFE
7FFFFFFE
155555FD
000001F8
000003F0
00000BD0
00001F80
00003F00
0000BD00
0001F800
0003F000
000BD000
001F8000
003F4000
00BE0000
01F80000
02F40000
07E00000
1FC00000
2F400000
7E555555
BFFFFFFF
BFFFFFFF
ENDCHAR
STARTCHAR Eta
ENCODING 919
SWIDTH 737 0
DWIDTH 24 0
BBX 18 23 3 0
BITMAP
F8000007D0
F8000007D0
F8000007D0
F8000007D0
F8000007D0
F8000007D0
F8000007D0
F8000007D0
F8000007D0
F8000007D0
FFFFFFFFD0
FFFFFFFFD0
FD555557D0
F8000007D0
F8000007D0
F8000007D0
F8000007D0
F8000007D0
F8000007D0
F8000007D0
F8000007D0
F8000007D0
F8000007D0
ENDCHAR
STARTCHAR Theta
ENCODING 920
SWIDTH 778 0
DWIDTH 25 0
BBX 21 23 2 0
BITMAP
0006FFE40000
007FFFFF4000
02FF95BFE000
0BF40007F800
1FC00000FD00
3F4000007E00
7E0000002F40
BD0000001F40
BC0000000F80
FC0000000F80
F81FFFFD0FC0
F81FFFFD0FC0
F80555540FC0
FC0000000F80
BC0000000F80
BD0000001F40
7E0000002F40
3F4000007E00
1FC00000FD00
0BF40007F800
02FE95AFE000
007FFFFF4000
0006FFE40000
ENDCHAR
STARTCHAR Iota
ENCODING 921
SWIDTH 278 0
DWIDTH 9 0
BBX 3 23 3 0
BITMAP
F8
F8
F8
F8
F8
F8
F8
F8
F8
F8
F8
F8
F8
F8
F8
F8
F8
F8
F8
F8
F8
F8
F8
ENDCHAR
STARTCHAR Kappa
ENCODING 922
SWIDTH 613 0
DWIDTH 20 0
BBX 17 23 3 0
BITMAP
F800007E00
F80001FC00
F80007F000
F8000FC000
F8003F4000
F800BD0000
F802F40000
F80BD00000
F82F400000
F87E000000
F9FD000000
FFFF400000
FF5FC00000
FD0BE00000
F802F40000
F800FD0000
F8007F0000
F8002F8000
F8000BD000
F80003F000
F80001F800
F80000BE00
F800002F40
ENDCHAR
STARTCHAR Lambda
ENCODING 923
SWIDTH 603 0
DWIDTH 19 0
BBX 19 23 0 0
BITMAP
0000FD0000
0001FE0000
0002FF0000
0003EF4000
0007DF8000
000BCBC000
000F87D000
001F43E000
002F02F000
003E01F400
00BD00F800
00FC00BC00
01F8007E00
02F4003F00
03E0002F40
07D0001F80
0BC0000FC0
0F800007D0
1F400003E0
2F000002F0
3E000001F4
7D000000F8
BC000000BC
ENDCHAR
STARTCHAR Mu
ENCODING 924
SWIDTH 902 0
DWIDTH 29 0
BBX 23 23 3 0
BITMAP
FF40000007F8
FF8000000BF8
FFC000000FF8
FBD000002FB8
F6F000003DB8
F9F400007CB8
F8F80000B8F8
F8BC0000F4F8
F87D0001F0F8
F83E0003E0F8
F82F0007D0F8
F80F800B80F8
F80BC00F40F8
F807D01F00F8
F803E02E00F8
F802F07D00F8
F801F4BC00F8
F800F8F800F8
F8007EF000F8
F8003FE000F8
F8002FD000F8
F8001FC000F8
F8000F8000F8
ENDCHAR
STARTCHAR Nu
ENCODING 925
SWIDTH 753 0
DWIDTH 24 0
BBX 18 23 3 0
BITMAP
FD000002F0
FF000002F0
FF800002F0
FFD00002F0
F7F00002F0
F5F80002F0
F8BD0002F0
F83F0002F0
F81F8002F0
F80BD002F0
F803F002F0
F801F802F0
F800BD02F0
F8007F02F0
F8002F81F0
F8000FD1F0
F80007E1F0
F80002F5F0
F80000FDF0
F800007FF0
F800002FF0
F800000FF0
F8000007F0
ENDCHAR
STARTCHAR Xi
ENCODING 926
SWIDTH 553 0
DWIDTH 18 0
BBX 16 23 1 0
BITMAP
7FFFFFFC
7FFFFFFC
15555554
00000000
00000000
00000000
00000000
00000000
00000000
00000000
0FFFFFE0
0FFFFFE0
05555550
00000000
00000000
00000000
00000000
00000000
00000000
00000000
55555555
FFFFFFFE
FFFFFFFE
ENDCHAR
STARTCHAR Omicron
ENCODING 927
SWIDTH 778 0
DWIDTH 25 0
BBX 21 23 2 0
BITMAP
0006FFE40000
007FFFFF4000
02FF95BFE000
0BF40007F800
1FC00000FD00
3F4000007E00
7E0000002F40
BD0000001F40
BC0000000F80
FC0000000F80
F80000000FC0
F80000000FC0
F80000000FC0
FC0000000F80
BC0000000F80
BD0000001F40
7E0000002F40
3F4000007E00
1FC00000FD00
0BF40007F800
02FE95AFE000
007FFFFF4000
0006FFE40000
ENDCHAR
STARTCHAR Pi
ENCODING 928
SWIDTH 729 0
DWIDTH 23 0
BBX 18 23 3 0
BITMAP
FFFFFFFFD0
FFFFFFFFD0
FD55555BD0
F8000007D0
F8000007D0
F8000007D0
F8000007D0
F8000007D0
F8000007D0
F8000007D0
F8000007D0
F8000007D0
F8000007D0
F8000007D0
F8000007D0
F8000007D0
F8000007D0
F8000007D0
F8000007D0
F8000007D0
F8000007D0
F8000007D0
F8000007D0
ENDCHAR
STARTCHAR Rho
ENCODING 929
SWIDTH 602 0
DWIDTH 19 0
BBX 15 23 3 0
BITMAP
FFFFA400
FFFFFF40
FD55BFD0
F8000BF0
F80002F4
F80001F8
F80000F8
F80001F8
F80001F4
F80002F4
F80007E0
F8016FC0
FFFFFE40
FFFFE400
FD540000
F8000000
F8000000
F8000000
F8000000
F8000000
F8000000
F8000000
F8000000
ENDCHAR
STARTCHAR Sigma
ENCODING 931
SWIDTH 566 0
DWIDTH 18 0
BBX 17 23 1 0
BITMAP
BFFFFFFE00
BFFFFFFE00
7E55555500
2F40000000
0BD0000000
03F0000000
00FC000000
007E000000
001F800000
000BD00000
0002F40000
0002F40000
0007D00000
001F800000
003F000000
00BC000000
02F4000000
07E0000000
0F80000000
2F00000000
BE55555500
FFFFFFFF40
FFFFFFFF40
ENDCHAR
STARTCHAR Tau
ENCODING 932
SWIDTH 553 0
DWIDTH 18 0
BBX 18 23 0 0
BITMAP
BFFFFFFFD0
BFFFFFFFD0
5556F55540
0001F40000
0001F40000
0001F40000
0001F40000
0001F40000
0001F40000
0001F40000
0001F40000
0001F40000
0001F40000
0001F40000
0001F40000
0001F40000
0001F40000
0001F40000
0001F40000
0001F40000
0001F40000
0001F40000
0001F40000
ENDCHAR
STARTCHAR Upsilon
ENCODING 933
SWIDTH 560 0
DWIDTH 18 0
BBX 18 23 0 0
BITMAP
BD000007E0
7E00000BC0
2F40001F80
0F80002F00
0BD0007D00
03E000FC00
02F401F400
00FC03F000
007D07D000
003F0F8000
001F6F4000
000BFE0000
0007FC0000
0002F80000
0001F40000
0001F40000
0001F40000
0001F40000
0001F40000
0001F40000
0001F40000
0001F40000
0001F40000
ENDCHAR
STARTCHAR Phi
ENCODING 934
SWIDTH 797 0
DWIDTH 26 0
BBX 23 23 1 0
BITMAP
00000BC00000
00000BC00000
00000BC00000
001BFFFF9000
00BFFFFFFD00
03FE5BD5BF80
0BE00BC00FD0
1F800BC003F0
3F000BC001F4
3E000BC000F8
7D000BC000F8
7D000BC000FC
7E000BC000F8
3E000BC001F8
3F000BC002F4
1F800BC007F0
0BE00BC01FD0
03FE5BD5BF40
00BFFFFFFD00
001AFFFE9000
00000BC00000
00000BC00000
00000BC00000
ENDCHAR
STARTCHAR Chi
ENCODING 935
SWIDTH 577 0
DWIDTH 18 0
BBX 18 23 0 0
BITMAP
3F000007D0
1F80000F80
0BC0002F40
03E0007E00
01F400FC00
00BC01F400
007E03E000
002F4BC000
000FDF4000
0007FE0000
0002FC0000
0002FC0000
0007FE0000
000F9F4000
002F4BC000
003E07E000
00BC02F400
01F400FC00
03E0007E00
0BC0002F00
1F40001F80
3F00000BD0
BD000003F0
ENDCHAR
STARTCHAR Psi
ENCODING 936
SWIDTH 795 0
DWIDTH 25 0
BBX 23 23 1 0
BITMAP
7D000BC000F8
7D000BC000F8
7D000BC000F8
7D000BC000F8
7D000BC000F8
7D000BC000F8
7D000BC000F8
7D000BC000F8
7D000BC000F8
3E000BC000F8
3F000BC001F4
2F400BC003F0
0FD00BC00BE0
07F90BC17F80
01FFFFFFFE00
002FFFFFE400
00005BD40000
00000BC00000
00000BC00000
00000BC00000
00000BC00000
00000BC00000
00000BC00000
ENDCHAR
STARTCHAR uni03A9
ENCODING 937
SWIDTH 782 0
DWIDTH 25 0
BBX 23 23 1 0
BITMAP
0001BFF90000
002FFFFFE000
00BFA56BF800
02F90001BE00
07E000002F80
0FC000000FC0
1F80000007D0
2F40000007E0
2F00000003F0
3F00000003F0
3F00000003F0
3F00000003F0
2F00000003E0
2F40000007E0
1F80000007D0
0FC000000FC0
07D000001F80
03F000003F00
01F80000BD00
007E0002F400
556F800BE554
BFFFD01FFFF8
BFFFD01FFFF8
ENDCHAR
STARTCHAR Iotadieresis
ENCODING 938
SWIDTH 278 0
DWIDTH 9 0
BBX 9 28 0 0
BITMAP
B80B40
FC0FC0
B80B40
000000
000000
03E000
03E000
03E000
03E000
03E000
03E000
03E000
03E000
03E000
03E000
03E000
03E000
03E000
03E000
03E000
03E000
03E000
03E000
03E000
03E000
03E000
03E000
03E000
ENDCHAR
STARTCHAR Upsilondieresis
ENCODING 939
SWIDTH 560 0
DWIDTH 18 0
BBX 18 28 0 0
BITMAP
003C07C000
007D07D000
003C07C000
0000000000
0000000000
BD000007E0
7E00000BC0
2F40001F80
0F80002F00
0BD0007D00
03E000FC00
02F401F400
00FC03F000
007D07D000
003F0F8000
001F6F4000
000BFE0000
0007FC0000
0002F80000
0001F40000
0001F40000
0001F40000
0001F40000
0001F40000
0001F40000
0001F40000
0001F40000
0001F40000
ENDCHAR
STARTCHAR alphatonos
ENCODING 940
SWIDTH 610 0
DWIDTH 20 0
BBX 18 25 1 0
BITMAP
00007E0000
00007D0000
0000BC0000
0000F40000
0001F00000
0002D00000
0000000000
0000000000
006FF90B40
02FFFF4F40
07F55BEF00
0FC001FF00
2F40007F00
3F00003F00
3E00003F00
3E00002E00
7D00002E00
3E00002E00
3E00003E00
3F00003E00
2F40007E00
1F8000FF00
0BF55BEF50
02FFFF5FF0
006FF807E0
ENDCHAR
STARTCHAR epsilontonos
ENCODING 941
SWIDTH 475 0
DWIDTH 15 0
BBX 13 25 1 0
BITMAP
0002F400
0002F000
0003E000
0007C000
000B8000
000F0000
00000000
00000000
01BFF900
0BFFFFC0
2F955B80
3E000000
3E000000
2E000000
1F900000
06FFF400
06FFF400
1F955000
7E000000
7C000000
BC000000
7D000040
3F945BC0
0BFFFFC0
01BFF900
ENDCHAR
STARTCHAR etatonos
ENCODING 942
SWIDTH 613 0
DWIDTH 20 0
BBX 15 33 2 -8
BITMAP
0000BC00
0000F800
0001F400
0001F000
0002D000
00038000
00000000
00000000
7C1BFE40
7CBFFFD0
7FF55BF4
7F8001F8
7F0000BC
7E0000BC
7D0000BC
7D0000BC
7D0000BC
7D0000BC
7D0000BC
7D0000BC
7D0000BC
7D0000BC
7D0000BC
7D0000BC
7D0000BC
000000BC
000000BC
000000BC
000000BC
000000BC
000000BC
000000BC
000000BC
ENDCHAR
STARTCHAR iotatonos
ENCODING 943
SWIDTH 338 0
DWIDTH 11 0
BBX 9 25 2 0
BITMAP
0BD000
0FC000
0F4000
1F0000
2D0000
3C0000
000000
000000
7D0000
7D0000
7D0000
7D0000
7D0000
7D0000
7D0000
7D0000
7D0000
7D0000
7D0000
7D0000
7D0000
7E0000
3F5500
1FFF40
06FE40
ENDCHAR
STARTCHAR upsilondieresistonos
ENCODING 944
SWIDTH 608 0
DWIDTH 19 0
BBX 16 27 2 0
BITMAP
0000BD00
0000F800
0001F000
0002D000
01E38780
02F00BC0
01E00780
00000000
00000000
00000000
7C0000BC
7C00007C
7C00007D
7C00003D
7C00003E
7C00003E
7C00003E
7C00003E
7C00003E
7D00003E
7D00003E
7D00007D
3F0000BC
2F8002F8
0FE55BF0
07FFFF80
006FF900
ENDCHAR
STARTCHAR alpha
ENCODING 945
SWIDTH 610 0
DWIDTH 20 0
BBX 18 17 1 0
BITMAP
006FF90B40
02FFFF4F40
07F55BEF00
0FC001FF00
2F40007F00
3F00003F00
3E00003F00
3E00002E00
7D00002E00
3E00002E00
3E00003E00
3F00003E00
2F40007E00
1F8000FF00
0BF55BEF50
02FFFF5FF0
006FF807E0
ENDCHAR
STARTCHAR beta
ENCODING 946
SWIDTH 627 0
DWIDTH 20 0
BBX 17 32 2 -8
BITMAP
006FFA0000
02FFFFE000
0BE55BF800
1F8000FC00
2F00007D00
3E00003E00
7D00003E00
7D00007D00
7D0000FC00
7D0007F400
7D07FF9000
7D07FE4000
7D0157F400
7D00007D00
7D00002F00
7D00001F40
7D00000F80
7D00000F80
7D00000F80
7D00001F40
7E00007F00
7FE516FD00
7FFFFFF400
7D6FFE4000
7D00000000
7D00000000
7D00000000
7D00000000
7D00000000
7D00000000
7D00000000
7D00000000
ENDCHAR
STARTCHAR gamma
ENCODING 947
SWIDTH 512 0
DWIDTH 16 0
BBX 16 25 0 -8
BITMAP
BC00002F
7D00003E
2E00007D
1F4000BC
0F8000F8
0BC001F0
07D002E0
02E007D0
01F40BC0
00F80F80
00BC1F40
003D2F00
002E3E00
001F7C00
000FB800
0007F400
0003F000
0003E000
0007D000
000BC000
000FC000
000F8000
001F8000
001F4000
001F4000
ENDCHAR
STARTCHAR delta
ENCODING 948
SWIDTH 580 0
DWIDTH 19 0
BBX 17 24 1 0
BITMAP
000BFE9000
007FFFF900
00FD56FD00
01F4001800
01F4000000
01F8000000
00FD000000
007F800000
000BF80000
0007FF4000
006FEFE000
02F902F800
0BD000BD00
1F80003F00
2F00001F40
3E00001F40
7E00001F40
7E00001F40
3E00001F40
2F00003F00
1F8000BD00
0BF957F800
02FFFFE000
002BFA4000
ENDCHAR
STARTCHAR epsilon
ENCODING 949
SWIDTH 475 0
DWIDTH 15 0
BBX 13 17 1 0
BITMAP
01BFF900
0BFFFFC0
2F955B80
3E000000
3E000000
2E000000
1F900000
06FFF400
06FFF400
1F955000
7E000000
7C000000
BC000000
7D000040
3F945BC0
0BFFFFC0
01BFF900
ENDCHAR
STARTCHAR zeta
ENCODING 950
SWIDTH 482 0
DWIDTH 15 0
BBX 14 30 1 -6
BITMAP
1FFFFFE0
1FFFFFE0
05555F80
00007E00
0001F800
0007E000
001F8000
007E0000
00F80000
02F00000
07D00000
0F800000
1F400000
2F000000
3E000000
3E000000
7E000000
3E000000
3E000000
2F400000
1FD00000
0BFE5000
01FFFE00
001AFFC0
00001FD0
000007D0
000007D0
00000BC0
00000F80
00002E00
ENDCHAR
STARTCHAR eta
ENCODING 951
SWIDTH 613 0
DWIDTH 20 0
BBX 15 25 2 -8
BITMAP
7C1BFE40
7CBFFFD0
7FF55BF4
7F8001F8
7F0000BC
7E0000BC
7D0000BC
7D0000BC
7D0000BC
7D0000BC
7D0000BC
7D0000BC
7D0000BC
7D0000BC
7D0000BC
7D0000BC
7D0000BC
000000BC
000000BC
000000BC
000000BC
000000BC
000000BC
000000BC
000000BC
ENDCHAR
STARTCHAR theta
ENCODING 952
SWIDTH 591 0
DWIDTH 19 0
BBX 16 24 1 0
BITMAP
001BF900
00BFFF80
03F95BE0
0BD002F4
0F8000BC
1F40007D
2F00003E
3E00003E
3E00002F
3E00002F
3D00002F
7FFFFFFF
7FFFFFFF
3E55556F
3D00002F
3E00002F
2E00002E
2F00003E
1F40007D
0F8000BC
0BD001F8
02F95BE0
00BFFF80
001BF900
ENDCHAR
STARTCHAR iota
ENCODING 953
SWIDTH 338 0
DWIDTH 11 0
BBX 9 17 2 0
BITMAP
7D0000
7D0000
7D0000
7D0000
7D0000
7D0000
7D0000
7D0000
7D0000
7D0000
7D0000
7D0000
7D0000
7E0000
3F5500
1FFF40
06FE40
ENDCHAR
STARTCHAR kappa
ENCODING 954
SWIDTH 518 0
DWIDTH 17 0
BBX 14 17 2 0
BITMAP
7E000BE0
7E002F80
7E007E00
7E01FC00
7E03F000
7E0FD000
7D2F4000
7DBE0000
7EFF4000
7FDFC000
7F47E000
7E02F400
7E00FD00
7E007F00
7E002F80
7E000BD0
7E0003F0
ENDCHAR
STARTCHAR lambda
ENCODING 955
SWIDTH 534 0
DWIDTH 17 0
BBX 17 24 0 0
BITMAP
1FE0000000
2FFD000000
157E000000
001F400000
000F800000
000BC00000
0007D00000
0003F00000
0007F40000
000BF80000
000FBC0000
002E7D0000
003D3E0000
00BC2F0000
00F81F4000
01F40BC000
03E007D000
07D003E000
0BC002F000
1F4001F400
2F0000F800
3E0000BD40
BC00003FC0
F800001F80
ENDCHAR
STARTCHAR uni03BC
ENCODING 956
SWIDTH 619 0
DWIDTH 20 0
BBX 15 25 2 -8
BITMAP
7D0000BC
7D0000BC
7D0000BC
7D0000BC
7D0000BC
7D0000BC
7D0000BC
7D0000BC
7D0000BC
7D0000BC
7D0000BC
7D0000FC
7E0001FC
7F4003FC
7FE56FFC
7EFFFE7C
7D6FE43C
7D000000
7D000000
7D000000
7D000000
7D000000
7D000000
7D000000
7D000000
ENDCHAR
STARTCHAR nu
ENCODING 957
SWIDTH 541 0
DWIDTH 17 0
BBX 16 17 0 0
BITMAP
BC00002F
7D00002F
3E00002F
2F00002E
1F40003E
0F80003E
0BC0007D
07D0007C
02F000B8
01F400F4
00F802F0
00BC07D0
007D0BC0
003E2F40
002FBD00
001FF800
000BE000
ENDCHAR
STARTCHAR xi
ENCODING 958
SWIDTH 475 0
DWIDTH 15 0
BBX 14 30 1 -6
BITMAP
1FFFFF80
1FFFFF80
056F9000
02F40000
07D00000
0F800000
0F400000
0F400000
0BC00000
07F50000
01BFFF40
00BFFF40
07F90000
0FD00000
2F400000
3E000000
7E000000
7E000000
3E000000
3F400000
1FD00000
0BFF9000
01FFFE00
0016FFC0
00001BD0
000003D0
000003D0
000007C0
00000F80
00001F00
ENDCHAR
STARTCHAR omicron
ENCODING 959
SWIDTH 604 0
DWIDTH 19 0
BBX 17 17 1 0
BITMAP
001BFA0000
01FFFFD000
07F957F800
0FD000BD00
1F40003E00
2F00002F00
3E00001F40
3E00001F40
7D00001F80
3E00001F40
3E00001F40
2F00002F00
1F40003E00
0FD000BD00
07F957F800
01FFFFE000
001BFA0000
ENDCHAR
STARTCHAR pi
ENCODING 960
SWIDTH 649 0
DWIDTH 21 0
BBX 20 17 0 0
BITMAP
1FFFFFFFFE
BFFFFFFFFE
15F9555F95
00F4000F40
00F4000F40
00F4000F40
00F4000F40
00F4000F40
00F4000F40
00F4000F40
00F4000F40
00F4000F40
00F4000F40
00F4000F80
00F4000FD4
00F4000BFD
00F40002FD
ENDCHAR
STARTCHAR rho
ENCODING 961
SWIDTH 604 0
DWIDTH 19 0
BBX 16 25 2 -8
BITMAP
006FF900
02FFFF80
0BE55BE0
1F8002F4
2F0000FC
3E0000BC
7D00007D
7D00007D
7D00007E
7D00007D
7D00007D
7D0000BC
7D0000FC
7E0002F4
7FE55BE0
7EFFFF80
7C6FF900
7D000000
7D000000
7D000000
7D000000
7D000000
7D000000
7D000000
7D000000
ENDCHAR
STARTCHAR sigma1
ENCODING 962
SWIDTH 481 0
DWIDTH 15 0
BBX 14 23 1 -6
BITMAP
001BFE40
01FFFFD0
07F956C0
0FD00000
1F400000
2F000000
3E000000
3E000000
7E000000
7D000000
3E000000
3E000000
2F400000
1FD00000
07FE5000
01FFFE00
001BFFC0
00001FD0
000003D0
000003D0
000007C0
00000B80
00001F00
ENDCHAR
STARTCHAR sigma
ENCODING 963
SWIDTH 612 0
DWIDTH 20 0
BBX 18 17 1 0
BITMAP
001AFFFFF0
00BFFFFFF0
07FE56F550
0FD000F800
1F80007D00
2F00003F00
3E00002F40
3E00001F40
7E00001F40
3E00001F40
3E00001F40
3F00002F00
2F40003E00
0FD000BD00
07F957F800
01FFFFD000
001BFA0000
ENDCHAR
STARTCHAR tau
ENCODING 964
SWIDTH 473 0
DWIDTH 15 0
BBX 15 17 0 0
BITMAP
1FFFFFF4
BFFFFFF4
157E5550
003E0000
003E0000
003E0000
003E0000
003E0000
003E0000
003E0000
003E0000
003E0000
003E0000
003F0000
002FD550
000FFFD0
0001BF90
ENDCHAR
STARTCHAR upsilon
ENCODING 965
SWIDTH 608 0
DWIDTH 19 0
BBX 16 17 2 0
BITMAP
7C0000BC
7C00007C
7C00007D
7C00003D
7C00003E
7C00003E
7C00003E
7C00003E
7C00003E
7D00003E
7D00003E
7D00007D
3F0000BC
2F8002F8
0FE55BF0
07FFFF80
006FF900
ENDCHAR
STARTCHAR phi
ENCODING 966
SWIDTH 717 0
DWIDTH 23 0
BBX 20 25 1 -8
BITMAP
018001BE40
03E00BFFE0
0BD01F96F8
0F802F00BD
2F403E003E
2F003E002F
3E003E002F
3D003E002F
7D003E002F
3D003E002F
3E003E002F
2F003E007E
1F803E00BD
0FD03E02F8
07F97E6FE0
01BFFFFF80
001AFFE400
00003E0000
00003E0000
00003E0000
00003E0000
00003E0000
00003E0000
00003E0000
00003E0000
ENDCHAR
STARTCHAR chi
ENCODING 967
SWIDTH 545 0
DWIDTH 17 0
BBX 18 25 0 -8
BITMAP
3F40002F40
3FD0003E00
17F000BD00
01F400F800
00F802F000
00BC03E000
003E0BC000
002F0F4000
001F6F0000
000FFD0000
000BF80000
0007F40000
0007F00000
000FF40000
002FF80000
003EBC0000
00BC3E0000
01F82F0000
02F01F4000
07D00F8000
0BC00BC000
1F4007E000
3E0002F940
7D0000FFD0
F800002FD0
ENDCHAR
STARTCHAR psi
ENCODING 968
SWIDTH 752 0
DWIDTH 24 0
BBX 20 32 2 -8
BITMAP
00003D0000
00003D0000
00003D0000
00003D0000
00003D0000
00003D0000
00003D0000
7C003D007D
7C003D003D
7C003D003E
7C003D002E
7C003D002F
7C003D002F
7C003D002F
7C003D002F
7D003D002F
7D003D002F
7D003D003E
3E003D007E
2F403D00BC
1FD03D02F8
07F97E6FE0
01FFFFFF80
001BFFE400
00003D0000
00003D0000
00003D0000
00003D0000
00003D0000
00003D0000
00003D0000
00003D0000
ENDCHAR
STARTCHAR omega
ENCODING 969
SWIDTH 772 0
DWIDTH 25 0
BBX 22 17 1 0
BITMAP
07D000001F40
0F8000000F80
1F4000000BC0
2F00000007D0
2F00000003E0
3E00000003E0
3E000F8003E0
3E000F8002F0
7D000F8002F0
3D000F8002F0
3E000F8003E0
3E000F8003E0
2F000FC007D0
1F802FD00FC0
0BE5BEF56F40
03FFF4BFFE00
00BF901BE400
ENDCHAR
STARTCHAR iotadieresis
ENCODING 970
SWIDTH 338 0
DWIDTH 11 0
BBX 11 23 0 0
BITMAP
780B80
BC0FC0
780B80
000000
000000
000000
07D000
07D000
07D000
07D000
07D000
07D000
07D000
07D000
07D000
07D000
07D000
07D000
07D000
07E000
03F550
01FFF4
006FE4
ENDCHAR
STARTCHAR upsilondieresis
ENCODING 971
SWIDTH 608 0
DWIDTH 19 0
BBX 16 23 2 0
BITMAP
00B40F40
01F81F40
00B40F40
00000000
00000000
00000000
7C0000BC
7C00007C
7C00007D
7C00003D
7C00003E
7C00003E
7C00003E
7C00003E
7C00003E
7D00003E
7D00003E
7D00007D
3F0000BC
2F8002F8
0FE55BF0
07FFFF80
006FF900
ENDCHAR
STARTCHAR omicrontonos
ENCODING 972
SWIDTH 604 0
DWIDTH 19 0
BBX 17 25 1 0
BITMAP
00007E0000
00007D0000
0000BC0000
0000F40000
0001F00000
0001D00000
0000000000
0000000000
001BFA0000
01FFFFD000
07F957F800
0FD000BD00
1F40003E00
2F00002F00
3E00001F40
3E00001F40
7D00001F80
3E00001F40
3E00001F40
2F00002F00
1F40003E00
0FD000BD00
07F957F800
01FFFFE000
001BFA0000
ENDCHAR
STARTCHAR upsilontonos
ENCODING 973
SWIDTH 608 0
DWIDTH 19 0
BBX 16 25 2 0
BITMAP
0000F800
0001F400
0002F000
0002E000
0003C000
00074000
00000000
00000000
7C0000BC
7C00007C
7C00007D
7C00003D
7C00003E
7C00003E
7C00003E
7C00003E
7C00003E
7D00003E
7D00003E
7D00007D
3F0000BC
2F8002F8
0FE55BF0
07FFFF80
006FF900
ENDCHAR
STARTCHAR omegatonos
ENCODING 974
SWIDTH 772 0
DWIDTH 25 0
BBX 22 25 1 0
BITMAP
000002F40000
000002F00000
000003E00000
000007C00000
00000B800000
00000F000000
000000000000
000000000000
07D000001F40
0F8000000F80
1F4000000BC0
2F00000007D0
2F00000003E0
3E00000003E0
3E000F8003E0
3E000F8002F0
7D000F8002F0
3D000F8002F0
3E000F8003E0
3E000F8003E0
2F000FC007D0
1F802FD00FC0
0BE5BEF56F40
03FFF4BFFE00
00BF901BE400
ENDCHAR
STARTCHAR uni03D1
ENCODING 977
SWIDTH 622 0
DWIDTH 20 0
BBX 20 24 0 0
BITMAP
0006FE4000
003FFFE000
00BE56F800
00F800BD00
00F4003F00
00F8001F40
00BC000F80
007F400BC0
001FE50BC0
0002FFFFFD
00001AFFFD
6F800007D0
BFE00007D0
17E00007D0
02E00007D0
03E00007D0
03D0000BC0
07D0000B80
07D0001F40
07D0002F00
03E0007D00
02F916F800
00FFFFE000
001BFE4000
ENDCHAR
STARTCHAR uni03D2
ENCODING 978
SWIDTH 564 0
DWIDTH 18 0
BBX 18 23 0 0
BITMAP
BD000006E0
7E00001FF0
2F40003F50
1F80007D00
0BD000F800
03E001F400
02F403E000
00F807D000
00BD0B8000
003E0F4000
001F6E0000
000FBD0000
0007FC0000
0003F80000
0002F40000
0002F00000
0002F00000
0002F00000
0002F00000
0002F00000
0002F00000
0002F00000
0002F00000
ENDCHAR
STARTCHAR uni03D6
ENCODING 982
SWIDTH 839 0
DWIDTH 27 0
BBX 26 17 0 0
BITMAP
2FFFFFFFFFFFF0
BFFFFFFFFFFFF0
15BD555556F550
00F8000000F400
01F4000000BC00
02F00000007C00
03E00000007D00
03E00000003E00
07D000F4003E00
07D000F4003E00
07D000F4003E00
07D000F8003E00
03E001F8007D00
02F002FD00BD00
01FD5BEF56F800
00BFFF4FFFE000
001BF902FE4000
ENDCHAR
STARTCHAR uni0400
ENCODING 1024
SWIDTH 556 0
DWIDTH 18 0
BBX 13 30 3 0
BITMAP
07F00000
02F80000
00BC0000
002E0000
000B8000
00000000
00000000
FFFFFFC0
FFFFFFC0
FD555540
F8000000
F8000000
F8000000
F8000000
F8000000
F8000000
F8000000
FFFFFF40
FFFFFF40
FD555500
F8000000
F8000000
F8000000
F8000000
F8000000
F8000000
F8000000
FD555540
FFFFFFC0
FFFFFFC0
ENDCHAR
STARTCHAR afii10023
ENCODING 1025
SWIDTH 556 0
DWIDTH 18 0
BBX 13 28 3 0
BITMAP
07807800
0BD0BD00
07807800
00000000
00000000
FFFFFFC0
FFFFFFC0
FD555540
F8000000
F8000000
F8000000
F8000000
F8000000
F8000000
F8000000
FFFFFF40
FFFFFF40
FD555500
F8000000
F8000000
F8000000
F8000000
F8000000
F8000000
F8000000
FD555540
FFFFFFC0
FFFFFFC0
ENDCHAR
STARTCHAR afii10051
ENCODING 1026
SWIDTH 733 0
DWIDTH 23 0
BBX 21 23 0 0
BITMAP
BFFFFFFC0000
BFFFFFFC0000
556F55540000
001F40000000
001F40000000
001F40000000
001F40000000
001F40000000
001F40000000
001FFFFFA000
001FFFFFFD00
001F5555BF40
001F40001F80
001F40000FC0
001F40000BC0
001F40000BC0
001F40000BC0
001F40000BC0
001F40000FC0
001F40001F80
001F4025BF00
001F403FFD00
001F402FE400
ENDCHAR
STARTCHAR afii10052
ENCODING 1027
SWIDTH 520 0
DWIDTH 17 0
BBX 13 30 3 0
BITMAP
0002F800
0007E000
000F8000
002E0000
00780000
00000000
00000000
FFFFFFC0
FFFFFFC0
FD555540
F8000000
F8000000
F8000000
F8000000
F8000000
F8000000
F8000000
F8000000
F8000000
F8000000
F8000000
F8000000
F8000000
F8000000
F8000000
F8000000
F8000000
F8000000
F8000000
F8000000
ENDCHAR
STARTCHAR afii10053
ENCODING 1028
SWIDTH 639 0
DWIDTH 20 0
BBX 18 23 2 0
BITMAP
0006BFE900
006FFFFFD0
01FFA5AFC0
07F8000140
1FD0000000
2F40000000
7E00000000
BD00000000
BC00000000
FC00000000
FFFFFFF000
FFFFFFF000
FD55555000
FC00000000
BC00000000
BD00000000
7E00000000
3F40000000
1FC0000000
0BF4000000
02FF956B80
007FFFFF80
0006FFE900
ENDCHAR
STARTCHAR afii10054
ENCODING 1029
SWIDTH 548 0
DWIDTH 18 0
BBX 15 23 1 0
BITMAP
006FFA40
02FFFFF4
0FF95BF0
2F800010
3F000000
3E000000
3E000000
2F000000
1F800000
0BF80000
02FF9000
006FFE00
0002FFD0
00001FF0
000002F8
000000FC
000000BC
000000BC
000000F8
500002F4
7E956FE0
7FFFFF80
1AFFE400
ENDCHAR
STARTCHAR afii10055
ENCODING 1030
SWIDTH 278 0
DWIDTH 9 0
BBX 3 23 3 0
BITMAP
F8
F8
F8
F8
F8
F8
F8
F8
F8
F8
F8
F8
F8
F8
F8
F8
F8
F8
F8
F8
F8
F8
F8
ENDCHAR
STARTCHAR afii10056
ENCODING 1031
SWIDTH 278 0
DWIDTH 9 0
BBX 9 28 0 0
BITMAP
B80B40
FC0FC0
B80B40
000000
000000
03E000
03E000
03E000
03E000
03E000
03E000
03E000
03E000
03E000
03E000
03E000
03E000
03E000
03E000
03E000
03E000
03E000
03E000
03E000
03E000
03E000
03E000
03E000
ENDCHAR
STARTCHAR afii10057
ENCODING 1032
SWIDTH 267 0
DWIDTH 9 0
BBX 9 29 -3 -6
BITMAP
000F80
000F80
000F80
000F80
000F80
000F80
000F80
000F80
000F80
000F80
000F80
000F80
000F80
000F80
000F80
000F80
000F80
000F80
000F80
000F80
000F80
000F80
000F80
000F80
001F40
002F40
55BE00
BFFC00
7F9000
ENDCHAR
STARTCHAR afii10058
ENCODING 1033
SWIDTH 929 0
DWIDTH 30 0
BBX 29 23 0 0
BITMAP
0003FFFFE0000000
0003FFFFE0000000
0007E557E0000000
0007D003E0000000
0007C003E0000000
000BC003E0000000
000B8003E0000000
000F8003E0000000
000F8003E0000000
001F4003E0000000
001F4003FFFA4000
002F0003FFFFF400
002F0003E55BFD00
003E0003E000BF00
003E0003E0002F40
007D0003E0001F40
007D0003E0001F80
00BC0003E0001F40
00F80003E0002F40
01F40003E000BE00
57F00003E55BFD00
FFD00003FFFFF400
BE400003FFFA4000
ENDCHAR
STARTCHAR afii10059
ENCODING 1034
SWIDTH 953 0
DWIDTH 31 0
BBX 27 23 3 0
BITMAP
F800003E000000
F800003E000000
F800003E000000
F800003E000000
F800003E000000
F800003E000000
F800003E000000
F800003E000000
F800003E000000
F800003E000000
FFFFFFFFFF9400
FFFFFFFFFFFE00
FD55557E56BFC0
F800003E000BE0
F800003E0003F0
F800003E0002F4
F800003E0001F4
F800003E0002F4
F800003E0003F0
F800003E000BE0
F800003E55BFC0
F800003FFFFE00
F800003FFFA400
ENDCHAR
STARTCHAR afii10060
ENCODING 1035
SWIDTH 733 0
DWIDTH 23 0
BBX 21 23 0 0
BITMAP
BFFFFFFF0000
BFFFFFFF0000
556F55550000
001F40000000
001F40000000
001F40000000
001F40000000
001F40000000
001F40000000
001FFFFFA000
001FFFFFFD00
001F5555BF40
001F40001F80
001F40000FC0
001F40000BC0
001F40000BC0
001F40000BC0
001F40000BC0
001F40000BC0
001F40000BC0
001F40000BC0
001F40000BC0
001F40000BC0
ENDCHAR
STARTCHAR afii10061
ENCODING 1036
SWIDTH 611 0
DWIDTH 20 0
BBX 17 30 3 0
BITMAP
0000BE0000
0001F80000
0002F00000
000BC00000
001F000000
0000000000
0000000000
F800007E00
F80001F800
F80007E000
F8001FC000
F8003F0000
F800FD0000
F803F40000
F80BD00000
F82F400000
F8BE000000
FAF8000000
FFF4000000
F9FD000000
F87F400000
F81FC00000
F807E00000
F802F80000
F800BE0000
F8002F8000
F8000BD000
F80003F400
F80000FD00
F800003F40
ENDCHAR
STARTCHAR uni040D
ENCODING 1037
SWIDTH 762 0
DWIDTH 24 0
BBX 19 30 3 0
BITMAP
003F400000
001F800000
0007D00000
0001F00000
0000780000
0000000000
0000000000
B8000003F4
B800000BF4
B800001FF4
B800003FF4
B80000BDF4
B80001F8F4
B80003F0F4
B8000BD0F4
B8001F81F4
B8003F01F4
B800BD01F4
B801F801F4
B803F001F4
B80BD001F4
B81F8001F4
B83F0001F4
B8BD0001F4
B9F80001F4
BBF00001F4
BFD00001F4
BF800001F4
BF000001F4
BD000001F4
ENDCHAR
STARTCHAR afii10062
ENCODING 1038
SWIDTH 621 0
DWIDTH 20 0
BBX 20 30 0 0
BITMAP
007C002F00
007D002E00
003E40BD00
001FFFF800
0006FF9000
0000000000
0000000000
7E0000003E
2F000000BD
1F800000F8
0BD00001F4
07E00003F0
02F40007D0
01F8000BC0
00BD001F80
003E002F00
002F403E00
000FC0BC00
000BD0F800
0003F1F400
0001F7E000
0000FFD000
00007FC000
00003F4000
00003F0000
0000BD0000
0001FC0000
196BF40000
1FFFD00000
1BF9000000
ENDCHAR
STARTCHAR afii10145
ENCODING 1039
SWIDTH 729 0
DWIDTH 23 0
BBX 18 29 3 -6
BITMAP
F8000007D0
F8000007D0
F8000007D0
F8000007D0
F8000007D0
F8000007D0
F8000007D0
F8000007D0
F8000007D0
F8000007D0
F8000007D0
F8000007D0
F8000007D0
F8000007D0
F8000007D0
F8000007D0
F8000007D0
F8000007D0
F8000007D0
F8000007D0
FD55555BD0
FFFFFFFFD0
FFFFFFFFD0
0002F00000
0002F00000
0002F00000
0002F00000
0002F00000
0002F00000
ENDCHAR
STARTCHAR afii10017
ENCODING 1040
SWIDTH 632 0
DWIDTH 20 0
BBX 20 23 0 0
BITMAP
00003D0000
0000BF0000
0000FF4000
0001FB8000
0002E7C000
0003D3D000
000BC2E000
000F81F400
001F40F800
002E00BC00
003D003D00
007C002E00
00F8001F00
01FFFFFF80
02FFFFFFC0
03E5555BD0
07C00003E0
0F800002F0
1F400001F4
2F000000BC
3E0000007D
7D0000003E
BC0000002F
ENDCHAR
STARTCHAR afii10018
ENCODING 1041
SWIDTH 612 0
DWIDTH 20 0
BBX 15 23 3 0
BITMAP
FFFFFFE0
FFFFFFE0
FD555550
F8000000
F8000000
F8000000
F8000000
F8000000
F8000000
F8000000
FFFFE900
FFFFFF80
FD55AFE0
F80003F4
F80001F8
F80000FC
F80000BC
F80000FC
F80001F8
F80003F4
FD556FE0
FFFFFF80
FFFFE900
ENDCHAR
STARTCHAR afii10019
ENCODING 1042
SWIDTH 647 0
DWIDTH 21 0
BBX 16 23 3 0
BITMAP
FFFFE900
FFFFFFD0
FD556FF4
F80002F8
F80000FC
F80000BD
F80000BC
F80000BC
F80001F8
F8001BE0
FFFFFE40
FFFFFE40
FD555BF4
F80001FC
F800007E
F800003F
F800003F
F800003F
F800007E
F80001FD
FD555BF8
FFFFFFE0
FFFFFA00
ENDCHAR
STARTCHAR afii10020
ENCODING 1043
SWIDTH 520 0
DWIDTH 17 0
BBX 13 23 3 0
BITMAP
FFFFFFC0
FFFFFFC0
FD555540
F8000000
F8000000
F8000000
F8000000
F8000000
F8000000
F8000000
F8000000
F8000000
F8000000
F8000000
F8000000
F8000000
F8000000
F8000000
F8000000
F8000000
F8000000
F8000000
F8000000
ENDCHAR
STARTCHAR afii10021
ENCODING 1044
SWIDTH 683 0
DWIDTH 22 0
BBX 21 29 0 -6
BITMAP
0000FFFFF400
0000FFFFF400
0001F956F400
0001F401F400
0001F001F400
0002F001F400
0003E001F400
0003E001F400
0007D001F400
000BC001F400
000F8001F400
001F8001F400
001F4001F400
002F0001F400
007E0001F400
00BC0001F400
00F80001F400
01F40001F400
03F00001F400
07D00001F400
5FD55556F940
BFFFFFFFFFC0
BFFFFFFFFFC0
B800000007C0
B800000007C0
B800000007C0
B800000007C0
B800000007C0
B800000007C0
ENDCHAR
STARTCHAR afii10022
ENCODING 1045
SWIDTH 556 0
DWIDTH 18 0
BBX 13 23 3 0
BITMAP
FFFFFFC0
FFFFFFC0
FD555540
F8000000
F8000000
F8000000
F8000000
F8000000
F8000000
F8000000
FFFFFF40
FFFFFF40
FD555500
F8000000
F8000000
F8000000
F8000000
F8000000
F8000000
F8000000
FD555540
FFFFFFC0
FFFFFFC0
ENDCHAR
STARTCHAR afii10024
ENCODING 1046
SWIDTH 844 0
DWIDTH 27 0
BBX 27 23 0 0
BITMAP
7E0000B80002F4
1F8000B8000BD0
0BD000B8001F80
02F400B8003E00
00FC00B800FC00
007E00B802F400
001F80B80BD000
000BD0B81F8000
0002F0B83E0000
0000FCB8FC0000
00007EBAF40000
00003FFFF00000
0000BDB9F80000
0001F8B8BE0000
0007E0B82F4000
000FC0B80FC000
002F40B807E000
00BD00B801F800
01F800B800BD00
07E000B8002F40
0FC000B8000FC0
2F4000B80007E0
BE0000B80002F8
ENDCHAR
STARTCHAR afii10025
ENCODING 1047
SWIDTH 581 0
DWIDTH 19 0
BBX 16 23 1 0
BITMAP
01AFF900
1FFFFFD0
7F955BF4
380001FC
000000BD
0000007D
000000BD
000000FC
000002F4
00006FD0
07FFFA00
07FFFE40
01556FF0
000001FC
000000BD
0000003E
0000003E
0000003E
000000BD
400001FC
FE556FF4
BFFFFF90
1AFFE900
ENDCHAR
STARTCHAR afii10026
ENCODING 1048
SWIDTH 762 0
DWIDTH 24 0
BBX 19 23 3 0
BITMAP
B8000003F4
B800000BF4
B800001FF4
B800003FF4
B80000BDF4
B80001F8F4
B80003F0F4
B8000BD0F4
B8001F81F4
B8003F01F4
B800BD01F4
B801F801F4
B803F001F4
B80BD001F4
B81F8001F4
B83F0001F4
B8BD0001F4
B9F80001F4
BBF00001F4
BFD00001F4
BF800001F4
BF000001F4
BD000001F4
ENDCHAR
STARTCHAR afii10027
ENCODING 1049
SWIDTH 762 0
DWIDTH 24 0
BBX 19 30 3 0
BITMAP
00F4003D00
00F8007D00
00BD01FC00
002FFFF400
0006FE8000
0000000000
0000000000
B8000003F4
B800000BF4
B800001FF4
B800003FF4
B80000BDF4
B80001F8F4
B80003F0F4
B8000BD0F4
B8001F81F4
B8003F01F4
B800BD01F4
B801F801F4
B803F001F4
B80BD001F4
B81F8001F4
B83F0001F4
B8BD0001F4
B9F80001F4
BBF00001F4
BFD00001F4
BF800001F4
BF000001F4
BD000001F4
ENDCHAR
STARTCHAR afii10028
ENCODING 1050
SWIDTH 611 0
DWIDTH 20 0
BBX 17 23 3 0
BITMAP
F800007E00
F80001F800
F80007E000
F8001FC000
F8003F0000
F800FD0000
F803F40000
F80BD00000
F82F400000
F8BE000000
FAF8000000
FFF4000000
F9FD000000
F87F400000
F81FC00000
F807E00000
F802F80000
F800BE0000
F8002F8000
F8000BD000
F80003F400
F80000FD00
F800003F40
ENDCHAR
STARTCHAR afii10029
ENCODING 1051
SWIDTH 704 0
DWIDTH 23 0
BBX 20 23 0 0
BITMAP
0003FFFFFD
0003FFFFFD
0007E555BD
0007C0007D
0007C0007D
000BC0007D
000B80007D
000F80007D
000F80007D
001F40007D
001F40007D
002F00007D
002F00007D
002E00007D
003E00007D
007D00007D
007D00007D
00BC00007D
00F800007D
01F400007D
57F000007D
FFD000007D
BE4000007D
ENDCHAR
STARTCHAR afii10030
ENCODING 1052
SWIDTH 902 0
DWIDTH 29 0
BBX 23 23 3 0
BITMAP
FF40000007F8
FF8000000BF8
FFC000000FF8
FBD000002FB8
F6F000003DB8
F9F400007CB8
F8F80000B8F8
F8BC0000F4F8
F87D0001F0F8
F83E0003E0F8
F82F0007D0F8
F80F800B80F8
F80BC00F40F8
F807D01F00F8
F803E02E00F8
F802F07D00F8
F801F4BC00F8
F800F8F800F8
F8007EF000F8
F8003FE000F8
F8002FD000F8
F8001FC000F8
F8000F8000F8
ENDCHAR
STARTCHAR afii10031
ENCODING 1053
SWIDTH 737 0
DWIDTH 24 0
BBX 18 23 3 0
BITMAP
F8000007D0
F8000007D0
F8000007D0
F8000007D0
F8000007D0
F8000007D0
F8000007D0
F8000007D0
F8000007D0
F8000007D0
FFFFFFFFD0
FFFFFFFFD0
FD555557D0
F8000007D0
F8000007D0
F8000007D0
F8000007D0
F8000007D0
F8000007D0
F8000007D0
F8000007D0
F8000007D0
F8000007D0
ENDCHAR
STARTCHAR afii10032
ENCODING 1054
SWIDTH 778 0
DWIDTH 25 0
BBX 21 23 2 0
BITMAP
0006FFE40000
007FFFFF4000
02FF95BFE000
0BF40007F800
1FC00000FD00
3F4000007E00
7E0000002F40
BD0000001F40
BC0000000F80
FC0000000F80
F80000000FC0
F80000000FC0
F80000000FC0
FC0000000F80
BC0000000F80
BD0000001F40
7E0000002F40
3F4000007E00
1FC00000FD00
0BF40007F800
02FE95AFE000
007FFFFF4000
0006FFE40000
ENDCHAR
STARTCHAR afii10033
ENCODING 1055
SWIDTH 729 0
DWIDTH 23 0
BBX 18 23 3 0
BITMAP
FFFFFFFFD0
FFFFFFFFD0
FD55555BD0
F8000007D0
F8000007D0
F8000007D0
F8000007D0
F8000007D0
F8000007D0
F8000007D0
F8000007D0
F8000007D0
F8000007D0
F8000007D0
F8000007D0
F8000007D0
F8000007D0
F8000007D0
F8000007D0
F8000007D0
F8000007D0
F8000007D0
F8000007D0
ENDCHAR
STARTCHAR afii10034
ENCODING 1056
SWIDTH 602 0
DWIDTH 19 0
BBX 15 23 3 0
BITMAP
FFFFA400
FFFFFF40
FD55BFD0
F8000BF0
F80002F4
F80001F8
F80000F8
F80001F8
F80001F4
F80002F4
F80007E0
F8016FC0
FFFFFE40
FFFFE400
FD540000
F8000000
F8000000
F8000000
F8000000
F8000000
F8000000
F8000000
F8000000
ENDCHAR
STARTCHAR afii10035
ENCODING 1057
SWIDTH 630 0
DWIDTH 20 0
BBX 17 23 2 0
BITMAP
0006BFE900
006FFFFFC0
01FFA5AF80
07F8000100
1FD0000000
2F40000000
7F00000000
BD00000000
BC00000000
FC00000000
FC00000000
F800000000
FC00000000
FC00000000
BC00000000
BD00000000
7E00000000
3F40000000
1FD0000000
0BF4000000
02FF956B40
007FFFFF40
0006FFE900
ENDCHAR
STARTCHAR afii10036
ENCODING 1058
SWIDTH 553 0
DWIDTH 18 0
BBX 18 23 0 0
BITMAP
BFFFFFFFD0
BFFFFFFFD0
5556F55540
0001F40000
0001F40000
0001F40000
0001F40000
0001F40000
0001F40000
0001F40000
0001F40000
0001F40000
0001F40000
0001F40000
0001F40000
0001F40000
0001F40000
0001F40000
0001F40000
0001F40000
0001F40000
0001F40000
0001F40000
ENDCHAR
STARTCHAR afii10037
ENCODING 1059
SWIDTH 621 0
DWIDTH 20 0
BBX 20 23 0 0
BITMAP
7E0000003E
2F000000BD
1F800000F8
0BD00001F4
07E00003F0
02F40007D0
01F8000BC0
00BD001F80
003E002F00
002F403E00
000FC0BC00
000BD0F800
0003F1F400
0001F7E000
0000FFD000
00007FC000
00003F4000
00003F0000
0000BD0000
0001FC0000
196BF40000
1FFFD00000
1BF9000000
ENDCHAR
STARTCHAR afii10038
ENCODING 1060
SWIDTH 797 0
DWIDTH 26 0
BBX 23 23 1 0
BITMAP
00000BC00000
00000BC00000
00000BC00000
001BFFFF9000
00BFFFFFFD00
03FE5BD5BF80
0BE00BC00FD0
1F800BC003F0
3F000BC001F4
3E000BC000F8
7D000BC000F8
7D000BC000FC
7E000BC000F8
3E000BC001F8
3F000BC002F4
1F800BC007F0
0BE00BC01FD0
03FE5BD5BF40
00BFFFFFFD00
001AFFFE9000
00000BC00000
00000BC00000
00000BC00000
ENDCHAR
STARTCHAR afii10039
ENCODING 1061
SWIDTH 577 0
DWIDTH 18 0
BBX 18 23 0 0
BITMAP
3F000007D0
1F80000F80
0BC0002F40
03E0007E00
01F400FC00
00BC01F400
007E03E000
002F4BC000
000FDF4000
0007FE0000
0002FC0000
0002FC0000
0007FE0000
000F9F4000
002F4BC000
003E07E000
00BC02F400
01F400FC00
03E0007E00
0BC0002F00
1F40001F80
3F00000BD0
BD000003F0
ENDCHAR
STARTCHAR afii10040
ENCODING 1062
SWIDTH 736 0
DWIDTH 24 0
BBX 20 29 3 -6
BITMAP
F8000007D0
F8000007D0
F8000007D0
F8000007D0
F8000007D0
F8000007D0
F8000007D0
F8000007D0
F8000007D0
F8000007D0
F8000007D0
F8000007D0
F8000007D0
F8000007D0
F8000007D0
F8000007D0
F8000007D0
F8000007D0
F8000007D0
F8000007D0
FD55555BE5
FFFFFFFFFF
FFFFFFFFFF
000000002F
000000002F
000000002F
000000002F
000000002F
000000002F
ENDCHAR
STARTCHAR afii10041
ENCODING 1063
SWIDTH 694 0
DWIDTH 22 0
BBX 17 23 2 0
BITMAP
7D00000BC0
7D00000BC0
7D00000BC0
7D00000BC0
7D00000BC0
7D00000BC0
7D00000BC0
7D00000BC0
7D00000BC0
7D00000BC0
7E00000BC0
3F40001BC0
1FE56AFFC0
0BFFFFFFC0
01BFF94BC0
0000000BC0
0000000BC0
0000000BC0
0000000BC0
0000000BC0
0000000BC0
0000000BC0
0000000BC0
ENDCHAR
STARTCHAR afii10042
ENCODING 1064
SWIDTH 1032 0
DWIDTH 33 0
BBX 27 23 3 0
BITMAP
F80000B80000BC
F80000B80000BC
F80000B80000BC
F80000B80000BC
F80000B80000BC
F80000B80000BC
F80000B80000BC
F80000B80000BC
F80000B80000BC
F80000B80000BC
F80000B80000BC
F80000B80000BC
F80000B80000BC
F80000B80000BC
F80000B80000BC
F80000B80000BC
F80000B80000BC
F80000B80000BC
F80000B80000BC
F80000B80000BC
FD5555FD5555FC
FFFFFFFFFFFFFC
FFFFFFFFFFFFFC
ENDCHAR
STARTCHAR afii10043
ENCODING 1065
SWIDTH 1033 0
DWIDTH 33 0
BBX 29 29 3 -6
BITMAP
F80000F80001F400
F80000F80001F400
F80000F80001F400
F80000F80001F400
F80000F80001F400
F80000F80001F400
F80000F80001F400
F80000F80001F400
F80000F80001F400
F80000F80001F400
F80000F80001F400
F80000F80001F400
F80000F80001F400
F80000F80001F400
F80000F80001F400
F80000F80001F400
F80000F80001F400
F80000F80001F400
F80000F80001F400
F80000F80001F400
FD5555F95556F940
FFFFFFFFFFFFFFC0
FFFFFFFFFFFFFFC0
00000000000007C0
00000000000007C0
00000000000007C0
00000000000007C0
00000000000007C0
00000000000007C0
ENDCHAR
STARTCHAR afii10044
ENCODING 1066
SWIDTH 687 0
DWIDTH 22 0
BBX 21 23 0 0
BITMAP
BFFF40000000
BFFF40000000
556F40000000
001F40000000
001F40000000
001F40000000
001F40000000
001F40000000
001F40000000
001F40000000
001FFFFA4000
001FFFFFE400
001F555BFC00
001F4000BE00
001F40002F00
001F40002F40
001F40001F40
001F40002F40
001F40003F00
001F4000BE00
001F555BFC00
001FFFFFE400
001FFFFE4000
ENDCHAR
STARTCHAR afii10045
ENCODING 1067
SWIDTH 853 0
DWIDTH 27 0
BBX 21 23 3 0
BITMAP
F80000000BC0
F80000000BC0
F80000000BC0
F80000000BC0
F80000000BC0
F80000000BC0
F80000000BC0
F80000000BC0
F80000000BC0
F80000000BC0
FFFFE4000BC0
FFFFFF800BC0
FD55AFE00BC0
F80007F40BC0
F80001F80BC0
F80000F80BC0
F80000FC0BC0
F80000F80BC0
F80001F80BC0
F80007F40BC0
FD556FE00BC0
FFFFFF800BC0
FFFFE8000BC0
ENDCHAR
STARTCHAR afii10046
ENCODING 1068
SWIDTH 643 0
DWIDTH 21 0
BBX 16 23 3 0
BITMAP
F8000000
F8000000
F8000000
F8000000
F8000000
F8000000
F8000000
F8000000
F8000000
F8000000
FFFFF900
FFFFFFD0
FD556BF8
F80001FD
F800007E
F800003E
F800003F
F800003E
F800007E
F80001FD
FD555BF8
FFFFFFD0
FFFFF900
ENDCHAR
STARTCHAR afii10047
ENCODING 1069
SWIDTH 629 0
DWIDTH 20 0
BBX 17 23 1 0
BITMAP
1AFFA40000
BFFFFF4000
7E95BFE000
100007F800
000001FD00
0000007F00
0000002F40
0000001F80
0000000FC0
0000000BC0
03FFFFFFC0
03FFFFFFC0
0155555BC0
0000000BC0
0000000F80
0000001F80
0000002F40
0000007F00
000000FD00
000007F800
FA55BFE000
FFFFFF4000
6BFFA40000
ENDCHAR
STARTCHAR afii10048
ENCODING 1070
SWIDTH 1049 0
DWIDTH 34 0
BBX 29 23 3 0
BITMAP
F8000006FFA40000
F800007FFFFE4000
F80002FF95BFD000
F80007F40007F400
F8000FD00001FC00
F8002F400000BD00
F8003F0000003F00
F8007E0000002F00
F8007D0000001F40
F800BD0000001F40
FFFFFC0000001F80
FFFFFC0000001F80
FD55BC0000001F80
F800BD0000001F40
F8007D0000001F40
F8007E0000002F00
F8003F0000003F00
F8002F400000BD00
F8000FD00001FC00
F80007F40007F400
F80002FF95BFD000
F800007FFFFE4000
F8000006FFA40000
ENDCHAR
STARTCHAR afii10049
ENCODING 1071
SWIDTH 636 0
DWIDTH 20 0
BBX 17 23 1 0
BITMAP
001AFFFF40
01FFFFFF40
07FE556F40
0FD0001F40
1F80001F40
2F40001F40
2F40001F40
1F40001F40
1F80001F40
0FE0001F40
07FE556F40
01BFFFFF40
001FFFFF40
001F801F40
003F001F40
00BD001F40
01F8001F40
02F4001F40
07E0001F40
0FC0001F40
2F40001F40
7E00001F40
FD00001F40
ENDCHAR
STARTCHAR afii10065
ENCODING 1072
SWIDTH 556 0
DWIDTH 18 0
BBX 15 17 1 0
BITMAP
006FF900
07FFFF80
07E55BE0
010003F0
000002F0
000001F4
000001F4
006AFFF4
07FFFFF4
2FD401F4
7E0001F4
7D0002F4
BD0003F4
7E000BF4
3F917FF4
1FFFF8F4
06FF90B4
ENDCHAR
STARTCHAR afii10066
ENCODING 1073
SWIDTH 596 0
DWIDTH 19 0
BBX 16 24 2 0
BITMAP
000005A8
0006FFFC
00BFFE94
07F94000
0FD00000
2F400000
3E000000
7D000000
BC1BF900
BCBFFFC0
FAF95BF0
FF8002F4
FD0000FC
F80000BC
F80000BD
F800007D
F800007D
BC0000BC
7D0000BC
3E0000F8
2F4002F4
0FE55FD0
02FFFF40
006FE800
ENDCHAR
STARTCHAR afii10067
ENCODING 1074
SWIDTH 568 0
DWIDTH 18 0
BBX 15 17 2 0
BITMAP
7FFFFA40
7FFFFFE0
7E555BF4
7D0001F8
7D0000F8
7D0000F4
7D0007E0
7FFFFE40
7FFFFF80
7D5557F4
7D0000BC
7D00007C
7D00007C
7D0000FC
7D5557F8
7FFFFFE0
7FFFFA40
ENDCHAR
STARTCHAR afii10068
ENCODING 1075
SWIDTH 428 0
DWIDTH 14 0
BBX 11 17 2 0
BITMAP
7FFFFC
7FFFFC
7D5554
7D0000
7D0000
7D0000
7D0000
7D0000
7D0000
7D0000
7D0000
7D0000
7D0000
7D0000
7D0000
7D0000
7D0000
ENDCHAR
STARTCHAR afii10069
ENCODING 1076
SWIDTH 571 0
DWIDTH 18 0
BBX 18 23 0 -6
BITMAP
000BFFFD00
000BFFFD00
000B807D00
000B807D00
000F807D00
000F407D00
001F007D00
002F007D00
003E007D00
007D007D00
00BC007D00
00F8007D00
02F0007D00
07E0007D00
1FD5557D40
7FFFFFFFE0
7FFFFFFFE0
7C000003E0
7C000003E0
7C000003E0
7C000003E0
7C000003E0
7C000003E0
ENDCHAR
STARTCHAR afii10070
ENCODING 1077
SWIDTH 561 0
DWIDTH 18 0
BBX 16 17 1 0
BITMAP
001BF900
01FFFF80
07F55BE0
0FC002F4
1F4000F8
2F0000BC
3E0000BD
3FFFFFFD
7FFFFFFD
3E000000
3E000000
2F000000
1F400000
0FD00004
07F956B8
01FFFFF8
001BFE90
ENDCHAR
STARTCHAR afii10072
ENCODING 1078
SWIDTH 735 0
DWIDTH 24 0
BBX 23 17 0 0
BITMAP
3F0007C001F4
0F8007C007E0
07E007C01F80
01F807C03E00
007D07C0BC00
002F47C2F000
000BC7CBD000
0002FBDF4000
0001FBFF0000
0007E7CF8000
001F87C7E000
003E07C1F800
00FC07C07D00
02F007C02F40
0BD007C00BD0
2F4007C002F4
7D0007C000FC
ENDCHAR
STARTCHAR afii10073
ENCODING 1079
SWIDTH 482 0
DWIDTH 15 0
BBX 13 17 1 0
BITMAP
1AFF9000
BFFFFD00
7A55BF00
00001F40
00001F40
00001F00
0001BE00
03FFE400
03FFF800
0155BF00
00001F80
00000BC0
00000BC0
40001F80
F941BF40
FFFFFD00
1BFF9000
ENDCHAR
STARTCHAR afii10074
ENCODING 1080
SWIDTH 633 0
DWIDTH 20 0
BBX 16 17 2 0
BITMAP
7D0000FE
7D0002FE
7D0007FE
7D000FAE
7D002F3E
7D007D3E
7D00F83E
7D02F03E
7D03D03E
7D0B803E
7D1F003E
7C3E003E
7CBC003E
7DF4003E
7FE0003E
7FC0003E
7F40003E
ENDCHAR
STARTCHAR afii10075
ENCODING 1081
SWIDTH 633 0
DWIDTH 20 0
BBX 16 24 2 0
BITMAP
0BC002F0
07C003E0
03E00BD0
01FFFF80
006FF900
00000000
00000000
7D0000FE
7D0002FE
7D0007FE
7D000FAE
7D002F3E
7D007D3E
7D00F83E
7D02F03E
7D03D03E
7D0B803E
7D1F003E
7C3E003E
7CBC003E
7DF4003E
7FE0003E
7FC0003E
7F40003E
ENDCHAR
STARTCHAR afii10076
ENCODING 1082
SWIDTH 519 0
DWIDTH 17 0
BBX 14 17 2 0
BITMAP
7D000BD0
7D002F40
7D00BD00
7D01F400
7D07E000
7D1F8000
7D3E0000
7DF80000
7EF40000
7DBD0000
7D2F4000
7D0BD000
7D03F000
7D00FC00
7D007F00
7D001F80
7D0007E0
ENDCHAR
STARTCHAR afii10077
ENCODING 1083
SWIDTH 570 0
DWIDTH 18 0
BBX 16 17 0 0
BITMAP
002FFFFE
002FFFFE
002E557E
002E003E
003E003E
003D003E
007D003E
007D003E
00BC003E
00BC003E
00F8003E
01F4003E
02F0003E
03E0003E
0BD0003E
BF80003E
BD00003E
ENDCHAR
STARTCHAR afii10078
ENCODING 1084
SWIDTH 734 0
DWIDTH 24 0
BBX 19 17 2 0
BITMAP
7F000002F8
7F800007F8
7FC0000BF8
7ED0000FB8
7DE0001FB8
7CF4003DB8
7CB8007CB8
7C7C00B8B8
7C3D00F4B8
7C1F01F0B8
7C0F43D0B8
7C0B87C0B8
7C07CB80B8
7C02DF40B8
7C01FE00B8
7C00FD00B8
7C00BC00B8
ENDCHAR
STARTCHAR afii10079
ENCODING 1085
SWIDTH 633 0
DWIDTH 20 0
BBX 16 17 2 0
BITMAP
7D00003E
7D00003E
7D00003E
7D00003E
7D00003E
7D00003E
7D00003E
7FFFFFFE
7FFFFFFE
7D55557E
7D00003E
7D00003E
7D00003E
7D00003E
7D00003E
7D00003E
7D00003E
ENDCHAR
STARTCHAR afii10080
ENCODING 1086
SWIDTH 604 0
DWIDTH 19 0
BBX 17 17 1 0
BITMAP
001BFA0000
01FFFFD000
07F957F800
0FD000BD00
1F40003E00
2F00002F00
3E00001F40
3E00001F40
7D00001F80
3E00001F40
3E00001F40
2F00002F00
1F40003E00
0FD000BD00
07F957F800
01FFFFE000
001BFA0000
ENDCHAR
STARTCHAR afii10081
ENCODING 1087
SWIDTH 621 0
DWIDTH 20 0
BBX 15 17 2 0
BITMAP
7FFFFFFC
7FFFFFFC
7E5555BC
7D0000BC
7D0000BC
7D0000BC
7D0000BC
7D0000BC
7D0000BC
7D0000BC
7D0000BC
7D0000BC
7D0000BC
7D0000BC
7D0000BC
7D0000BC
7D0000BC
ENDCHAR
STARTCHAR afii10082
ENCODING 1088
SWIDTH 612 0
DWIDTH 20 0
BBX 16 25 2 -8
BITMAP
7C1BF900
7CBFFFD0
7EE55BF4
7F8001F8
7F0000BD
7E00007D
7D00003E
7D00003E
7D00003E
7D00003E
7D00003E
7E00007D
7F0000BD
7F8001F8
7FF55BF0
7DBFFFD0
7D1BF900
7D000000
7D000000
7D000000
7D000000
7D000000
7D000000
7D000000
7D000000
ENDCHAR
STARTCHAR afii10083
ENCODING 1089
SWIDTH 476 0
DWIDTH 15 0
BBX 13 17 1 0
BITMAP
001BFE40
01FFFFC0
07F95B80
0FD00000
1F400000
2F000000
3E000000
3E000000
7D000000
3E000000
3E000000
3F000000
2F400000
0FD00000
07F956C0
01FFFFC0
001BFA40
ENDCHAR
STARTCHAR afii10084
ENCODING 1090
SWIDTH 466 0
DWIDTH 15 0
BBX 15 17 0 0
BITMAP
7FFFFFF4
7FFFFFF4
155F9550
000F8000
000F8000
000F8000
000F8000
000F8000
000F8000
000F8000
000F8000
000F8000
000F8000
000F8000
000F8000
000F8000
000F8000
ENDCHAR
STARTCHAR afii10085
ENCODING 1091
SWIDTH 503 0
DWIDTH 16 0
BBX 16 25 0 -8
BITMAP
BC00003F
7D00007E
3E0000BC
2F0000F8
1F8001F4
0BC002F0
07D003E0
03E007D0
02F00BC0
01F40F80
00B81F00
007C2E00
003D3D00
002E7C00
001FB800
000BF400
0007F000
0007E000
000BC000
000F8000
001F4000
003F0000
55FD0000
BFF40000
BF900000
ENDCHAR
STARTCHAR afii10086
ENCODING 1092
SWIDTH 714 0
DWIDTH 23 0
BBX 20 32 1 -8
BITMAP
00002E0000
00002E0000
00002E0000
00002E0000
00002E0000
00002E0000
00002E0000
0006FFE400
00BFFFFF40
03FD6E6FE0
0BD02E02F8
1F802E00BD
2F002E003E
3E002E003F
3E002E002F
7D002E002F
3E002E002F
3E002E002F
2F002E003E
1F802E00BD
0BD02E02F8
02F96E6FE0
00BFFFFF80
0006FFE400
00003E0000
00003E0000
00003E0000
00003E0000
00003E0000
00003E0000
00003E0000
00003E0000
ENDCHAR
STARTCHAR afii10087
ENCODING 1093
SWIDTH 523 0
DWIDTH 17 0
BBX 15 17 1 0
BITMAP
BD0001F4
3F0007E0
1F800BC0
0BD02F40
02F07E00
01F8F800
007EF400
002FD000
001FC000
003FE000
00BDF400
01F4BD00
07E03F00
0FC01F80
2F400BD0
7E0002F0
FC0001F8
ENDCHAR
STARTCHAR afii10088
ENCODING 1094
SWIDTH 625 0
DWIDTH 20 0
BBX 18 23 2 -6
BITMAP
7D0000BC00
7D0000BC00
7D0000BC00
7D0000BC00
7D0000BC00
7D0000BC00
7D0000BC00
7D0000BC00
7D0000BC00
7D0000BC00
7D0000BC00
7D0000BC00
7D0000BC00
7D0000BC00
7D5555BD40
7FFFFFFFD0
7FFFFFFFD0
00000003D0
00000003D0
00000003D0
00000003D0
00000003D0
00000003D0
ENDCHAR
STARTCHAR afii10089
ENCODING 1095
SWIDTH 607 0
DWIDTH 19 0
BBX 15 17 2 0
BITMAP
BC0000F8
BC0000F8
BC0000F8
BC0000F8
BC0000F8
BC0000F8
BC0000F8
7D0002F8
3F406FF8
1FFFFDF8
06FFE0F8
000000F8
000000F8
000000F8
000000F8
000000F8
000000F8
ENDCHAR
STARTCHAR afii10090
ENCODING 1096
SWIDTH 890 0
DWIDTH 28 0
BBX 24 17 2 0
BITMAP
7D0003E0003E
7D0003E0003E
7D0003E0003E
7D0003E0003E
7D0003E0003E
7D0003E0003E
7D0003E0003E
7D0003E0003E
7D0003E0003E
7D0003E0003E
7D0003E0003E
7D0003E0003E
7D0003E0003E
7D0003E0003E
7D5557E5557E
7FFFFFFFFFFE
7FFFFFFFFFFE
ENDCHAR
STARTCHAR afii10091
ENCODING 1097
SWIDTH 896 0
DWIDTH 29 0
BBX 26 23 2 -6
BITMAP
7D0003E0003E00
7D0003E0003E00
7D0003E0003E00
7D0003E0003E00
7D0003E0003E00
7D0003E0003E00
7D0003E0003E00
7D0003E0003E00
7D0003E0003E00
7D0003E0003E00
7D0003E0003E00
7D0003E0003E00
7D0003E0003E00
7D0003E0003E00
7D5557E5557E50
7FFFFFFFFFFFF0
7FFFFFFFFFFFF0
000000000001F0
000000000001F0
000000000001F0
000000000001F0
000000000001F0
000000000001F0
ENDCHAR
STARTCHAR afii10092
ENCODING 1098
SWIDTH 694 0
DWIDTH 22 0
BBX 21 17 0 0
BITMAP
7FFF80000000
7FFF80000000
155F80000000
000F80000000
000F80000000
000F80000000
000F80000000
000FFFFF9000
000FFFFFFD00
000F9555BF00
000F80002F40
000F80001F40
000F80001F40
000F80002F40
000F9555BE00
000FFFFFF800
000FFFFF9000
ENDCHAR
STARTCHAR afii10093
ENCODING 1099
SWIDTH 770 0
DWIDTH 25 0
BBX 20 17 2 0
BITMAP
7D0000002F
7D0000002F
7D0000002F
7D0000002F
7D0000002F
7D0000002F
7D0000002F
7FFFF9002F
7FFFFFD02F
7D555BF02F
7D0002F42F
7D0001F42F
7D0001F42F
7D0002F42F
7D555BE02F
7FFFFF802F
7FFFF9002F
ENDCHAR
STARTCHAR afii10094
ENCODING 1100
SWIDTH 591 0
DWIDTH 19 0
BBX 15 17 2 0
BITMAP
7D000000
7D000000
7D000000
7D000000
7D000000
7D000000
7D000000
7FFFFE40
7FFFFFE0
7D5557F8
7D0000BC
7D00007C
7D00007C
7D0000FC
7D5557F4
7FFFFFE0
7FFFFA40
ENDCHAR
STARTCHAR afii10095
ENCODING 1101
SWIDTH 492 0
DWIDTH 16 0
BBX 13 17 1 0
BITMAP
6BFE4000
BFFFF000
7956FC00
00007E00
00002F40
00000F80
00000F80
1FFFFFC0
1FFFFFC0
05555BC0
00000F80
00001F80
00002F40
0000BE00
E55BFC00
FFFFE000
6FFA4000
ENDCHAR
STARTCHAR afii10096
ENCODING 1102
SWIDTH 831 0
DWIDTH 27 0
BBX 23 17 2 0
BITMAP
7D0000AFE400
7D0007FFFE00
7D001FD56FC0
7D003F0007E0
7D00BD0002F0
7D00FC0001F4
7D00F80000F8
7FFFF80000F8
7FFFF80000F8
7D55F80000F8
7D00F80000F8
7D00BC0001F4
7D00BD0002F0
7D003F0007E0
7D001FD56FC0
7D0007FFFE00
7D0000AFE400
ENDCHAR
STARTCHAR afii10097
ENCODING 1103
SWIDTH 555 0
DWIDTH 18 0
BBX 14 17 1 0
BITMAP
02BFFFF0
1FFFFFF0
3F9556F0
7D0002F0
BC0002F0
BC0002F0
7D0002F0
3F9556F0
0BFFFFF0
01BFFFF0
00F802F0
02F002F0
07D002F0
0F8002F0
2F4002F0
7E0002F0
FC0002F0
ENDCHAR
STARTCHAR uni0450
ENCODING 1104
SWIDTH 561 0
DWIDTH 18 0
BBX 16 24 1 0
BITMAP
00BD0000
003F0000
001F8000
0007D000
0001F000
00000000
00000000
001BF900
01FFFF80
07F55BE0
0FC002F4
1F4000F8
2F0000BC
3E0000BD
3FFFFFFD
7FFFFFFD
3E000000
3E000000
2F000000
1F400000
0FD00004
07F956B8
01FFFFF8
001BFE90
ENDCHAR
STARTCHAR afii10071
ENCODING 1105
SWIDTH 561 0
DWIDTH 18 0
BBX 16 23 1 0
BITMAP
00B40B40
00F80F80
00B40B40
00000000
00000000
00000000
001BF900
01FFFF80
07F55BE0
0FC002F4
1F4000F8
2F0000BC
3E0000BD
3FFFFFFD
7FFFFFFD
3E000000
3E000000
2F000000
1F400000
0FD00004
07F956B8
01FFFFF8
001BFE90
ENDCHAR
STARTCHAR afii10099
ENCODING 1106
SWIDTH 613 0
DWIDTH 20 0
BBX 17 32 0 -8
BITMAP
07D0000000
07D0000000
07D0000000
BFFFFE0000
BFFFFE0000
07D0000000
07D0000000
07D0BFE400
07D7FFFD00
07EF95BF40
07F8001F80
07F0000BC0
07E0000BC0
07E0000BC0
07D0000BC0
07D0000BC0
07D0000BC0
07D0000BC0
07D0000BC0
07D0000BC0
07D0000BC0
07D0000BC0
07D0000BC0
07D0000BC0
0000000BC0
0000000BC0
0000000BC0
0000000BC0
0000000BC0
0000016F80
000007FF00
000007F800
ENDCHAR
STARTCHAR afii10100
ENCODING 1107
SWIDTH 428 0
DWIDTH 14 0
BBX 11 24 2 0
BITMAP
0007F0
000FD0
002F40
007D00
00F400
000000
000000
7FFFFC
7FFFFC
7D5554
7D0000
7D0000
7D0000
7D0000
7D0000
7D0000
7D0000
7D0000
7D0000
7D0000
7D0000
7D0000
7D0000
7D0000
ENDCHAR
STARTCHAR afii10101
ENCODING 1108
SWIDTH 492 0
DWIDTH 16 0
BBX 14 17 1 0
BITMAP
001BFE80
01FFFFD0
07F956C0
0FD00000
1F400000
2E000000
3E000000
3FFFFF00
7FFFFF00
3E555500
3E000000
3F000000
2F400000
0FD00000
07F956D0
01FFFFD0
001BFE40
ENDCHAR
STARTCHAR afii10102
ENCODING 1109
SWIDTH 477 0
DWIDTH 15 0
BBX 13 17 1 0
BITMAP
01BFE900
0FFFFF40
3F956F00
7D000000
7D000000
3E000000
2FD00000
0BFE4000
00BFF400
0006FE00
00007F40
00000F80
00000B80
00000F80
69557F40
7FFFFD00
1BFF9000
ENDCHAR
STARTCHAR afii10103
ENCODING 1110
SWIDTH 252 0
DWIDTH 8 0
BBX 4 24 2 0
BITMAP
14
7D
7E
3D
00
00
00
7D
7D
7D
7D
7D
7D
7D
7D
7D
7D
7D
7D
7D
7D
7D
7D
7D
ENDCHAR
STARTCHAR afii10104
ENCODING 1111
SWIDTH 252 0
DWIDTH 8 0
BBX 10 23 -1 0
BITMAP
3D03D0
7E07D0
2D03C0
000000
000000
000000
01F400
01F400
01F400
01F400
01F400
01F400
01F400
01F400
01F400
01F400
01F400
01F400
01F400
01F400
01F400
01F400
01F400
ENDCHAR
STARTCHAR afii10105
ENCODING 1112
SWIDTH 252 0
DWIDTH 8 0
BBX 8 32 -2 -8
BITMAP
0014
007D
007E
003D
0000
0000
0000
007D
007D
007D
007D
007D
007D
007D
007D
007D
007D
007D
007D
007D
007D
007D
007D
007D
007D
007D
007D
007D
00BD
55FC
BFF4
BF90
ENDCHAR
STARTCHAR afii10106
ENCODING 1113
SWIDTH 836 0
DWIDTH 27 0
BBX 25 17 0 0
BITMAP
002FFFF8000000
002FFFF8000000
002E55F8000000
002E01F8000000
003E01F8000000
003D01F8000000
007D01F8000000
007C01FFFFE400
00BC01FFFFFE00
00B801F955BF40
00F801F4000FC0
01F401F4000BC0
02F001F4000BC0
03E001F4000F80
0BD001F955BF40
BF8001FFFFFE00
BD0001FFFFA400
ENDCHAR
STARTCHAR afii10107
ENCODING 1114
SWIDTH 886 0
DWIDTH 28 0
BBX 25 17 2 0
BITMAP
7D0002F0000000
7D0002F0000000
7D0002F0000000
7D0002F0000000
7D0002F0000000
7D0002F0000000
7D0002F0000000
7FFFFFFFFFE000
7FFFFFFFFFFD00
7E5556F005BF00
7D0002F0001F40
7D0002F0000F80
7D0002F0000F40
7D0002F0002F40
7D0002F555BF00
7D0002FFFFFC00
7D0002FFFF9000
ENDCHAR
STARTCHAR afii10108
ENCODING 1115
SWIDTH 613 0
DWIDTH 20 0
BBX 17 24 0 0
BITMAP
07D0000000
07D0000000
07D0000000
BFFFFF4000
BFFFFF4000
07D0000000
07D0000000
07D0BFE400
07D7FFFD00
07EF55BF40
07F8001F80
07F0000BC0
07E0000BC0
07D0000BC0
07D0000BC0
07D0000BC0
07D0000BC0
07D0000BC0
07D0000BC0
07D0000BC0
07D0000BC0
07D0000BC0
07D0000BC0
07D0000BC0
ENDCHAR
STARTCHAR afii10109
ENCODING 1116
SWIDTH 519 0
DWIDTH 17 0
BBX 14 24 2 0
BITMAP
0001FC00
0003F400
000BD000
001F4000
003D0000
00000000
00000000
7D000BD0
7D002F40
7D00BD00
7D01F400
7D07E000
7D1F8000
7D3E0000
7DF80000
7EF40000
7DBD0000
7D2F4000
7D0BD000
7D03F000
7D00FC00
7D007F00
7D001F80
7D0007E0
ENDCHAR
STARTCHAR uni045D
ENCODING 1117
SWIDTH 633 0
DWIDTH 20 0
BBX 16 24 2 0
BITMAP
01FC0000
00BE0000
002F4000
000B8000
0002E000
00000000
00000000
7D0000FE
7D0002FE
7D0007FE
7D000FAE
7D002F3E
7D007D3E
7D00F83E
7D02F03E
7D03D03E
7D0B803E
7D1F003E
7C3E003E
7CBC003E
7DF4003E
7FE0003E
7FC0003E
7F40003E
ENDCHAR
STARTCHAR afii10110
ENCODING 1118
SWIDTH 503 0
DWIDTH 16 0
BBX 16 32 0 -8
BITMAP
0B8002E0
07C003E0
03E00BD0
02FFFF80
006FF900
00000000
00000000
BC00003F
7D00007E
3E0000BC
2F0000F8
1F8001F4
0BC002F0
07D003E0
03E007D0
02F00BC0
01F40F80
00B81F00
007C2E00
003D3D00
002E7C00
001FB800
000BF400
0007F000
0007E000
000BC000
000F8000
001F4000
003F0000
55FD0000
BFF40000
BF900000
ENDCHAR
STARTCHAR afii10193
ENCODING 1119
SWIDTH 621 0
DWIDTH 20 0
BBX 15 23 2 -6
BITMAP
7D0000BC
7D0000BC
7D0000BC
7D0000BC
7D0000BC
7D0000BC
7D0000BC
7D0000BC
7D0000BC
7D0000BC
7D0000BC
7D0000BC
7D0000BC
7D0000BC
7D5555BC
7FFFFFFC
7FFFFFFC
0007D000
0007D000
0007D000
0007D000
0007D000
0007D000
ENDCHAR
STARTCHAR uni0460
ENCODING 1120
SWIDTH 1011 0
DWIDTH 32 0
BBX 29 23 2 0
BITMAP
006FE4001BF90000
02FFFE007FFF8000
0BF96D003E6FF000
1FD004001002F800
2F4000000000FC00
3E00000000007D00
7D00000000003E00
BD00000000003F00
BC00000000002F00
FC00000000002F40
FC00000000002F40
FC00000000002F40
FC00000000002F40
BC00007D00002F00
BD00007D00003F00
7D00007D00003E00
7E00007D00007E00
3F40007D0000FD00
1F80007D0001F800
0FE0007E0007F400
07FE56FFE56FD000
01FFFFFBFFFF4000
001BFE41AFE80000
ENDCHAR
STARTCHAR uni0461
ENCODING 1121
SWIDTH 818 0
DWIDTH 26 0
BBX 25 17 0 0
BITMAP
BC003E00000F40
7D002F00001F40
3E001F80001F40
2F000FC0001F40
1F4007D0001F00
0F8003E0002F00
0BC002F0002E00
07D002F4003E00
03E003F8007D00
02F00BFC00BC00
01F40FBD01F400
00F82F3E02F000
00BC3D1F07D000
007D7C0F4F8000
003EF80BBF0000
002FF007FD0000
000FE003F40000
ENDCHAR
STARTCHAR uni0462
ENCODING 1122
SWIDTH 674 0
DWIDTH 22 0
BBX 20 24 0 0
BITMAP
002F000000
002F000000
002F000000
002F000000
BFFFFFF800
BFFFFFF800
556F555400
002F000000
002F000000
002F000000
002F000000
002FFFF900
002FFFFFE0
002F556BF8
002F0001FD
002F00007E
002F00003F
002F00003F
002F00003F
002F00007E
002F0001FD
002F555BF8
002FFFFFE0
002FFFF900
ENDCHAR
STARTCHAR uni0463
ENCODING 1123
SWIDTH 631 0
DWIDTH 20 0
BBX 19 20 0 0
BITMAP
00F8000000
00F8000000
00F8000000
BFFFFF0000
BFFFFF0000
15F9550000
00F8000000
00F8000000
00F8000000
00F8000000
00FFFFF900
00FFFFFFC0
00F9555BF0
00F80002F4
00F80001F4
00F80001F4
00F80002F4
00F9555BE0
00FFFFFF80
00FFFFF900
ENDCHAR
STARTCHAR uni0464
ENCODING 1124
SWIDTH 918 0
DWIDTH 29 0
BBX 26 23 3 0
BITMAP
F8000001BFE900
F800002FFFFFD0
F80001FFA56FC0
F80003F8000140
F8000BE0000000
F8001F80000000
F8002F00000000
F8003E00000000
F8007D00000000
F800BD00000000
FFFFFFFFFFF000
FFFFFFFFFFF000
FD55BD55555000
F800BD00000000
F800BD00000000
F8007E00000000
F8003F00000000
F8002F40000000
F8001FD0000000
F80007F8000000
F80002FF956B80
F800007FFFFF80
F8000006BFE900
ENDCHAR
STARTCHAR uni0465
ENCODING 1125
SWIDTH 735 0
DWIDTH 24 0
BBX 21 17 2 0
BITMAP
7D00006FF900
7D0007FFFF40
7D001FE55B00
7D003F400000
7D00BD000000
7D00F8000000
7D00F8000000
7FFFFFFFFC00
7FFFFFFFFC00
7D55F9555400
7D00F8000000
7D00BC000000
7D00BD000000
7D003F400000
7D001FE55B40
7D0007FFFF40
7D00006FF900
ENDCHAR
STARTCHAR uni0466
ENCODING 1126
SWIDTH 678 0
DWIDTH 22 0
BBX 22 23 0 0
BITMAP
00002F400000
00003F800000
00007FC00000
0000FBE00000
0001F6F00000
0002F1F40000
0003E0F80000
000BD0BD0000
000FC03E0000
001F402F0000
002FFFFF4000
007FFFFFC000
00BD6F5BD000
00F81F03E000
01F41F02F000
03F01F01F800
07E01F00FC00
0BC01F007D00
0F801F003E00
2F401F002F40
3F001F001F80
7D001F000BC0
BC001F0007D0
ENDCHAR
STARTCHAR uni0467
ENCODING 1127
SWIDTH 563 0
DWIDTH 18 0
BBX 18 17 0 0
BITMAP
0002FC0000
0007FD0000
000BAE0000
000F5F0000
002F0F8000
003E07C000
007C03D000
00BFFFE000
01FFFFF400
02F5F5F800
03E0F47C00
07C0F43E00
0F80F42F00
1F40F41F40
2F00F40B80
7D00F407D0
BC00F403E0
ENDCHAR
STARTCHAR uni0468
ENCODING 1128
SWIDTH 920 0
DWIDTH 29 0
BBX 27 23 3 0
BITMAP
F800000BC00000
F800001FD00000
F800002FF00000
F800003EF40000
F800007CF80000
F80000F8BC0000
F80001F47E0000
F80002F03F0000
F80003E01F4000
F80007D00FC000
FFFFFFFFFFD000
FFFFFFFFFFE000
FD557F5BD7F000
F8007E0BC1F800
F800BD0BC0FC00
F800F80BC0BD00
F801F40BC07E00
F803F00BC02F40
F807E00BC01F80
F80BC00BC00FC0
F80F800BC00BD0
F82F400BC003F0
F83F000BC002F4
ENDCHAR
STARTCHAR uni0469
ENCODING 1129
SWIDTH 766 0
DWIDTH 25 0
BBX 22 17 2 0
BITMAP
7D0001FD0000
7D0002FE0000
7D0007DF0000
7D000B8B8000
7D000F47C000
7D002F03D000
7D003E02F000
7FFFFFFFF400
7FFFFFFFF800
7D55F9B9BC00
7D02F0B83E00
7D03E0B82F00
7D0BC0B81F40
7D0F80B80B80
7D1F40B807D0
7D2F00B803E0
7D7D00B802F0
ENDCHAR
STARTCHAR uni046A
ENCODING 1130
SWIDTH 721 0
DWIDTH 23 0
BBX 23 23 0 0
BITMAP
0BFFFFFFFF80
0BFFFFFFFF80
07F555557F40
01F400007D00
00BD0001F800
002F0003E000
000FC00FC000
0007E02F4000
0001F8BD0000
0000BEF40000
000AFFFE8000
007FFFFFF400
00FD4BC1FD00
02F40BC07E00
03E00BC02F00
07D00BC01F40
0BC00BC00F80
0F800BC00BC0
1F800BC007D0
2F400BC003E0
3F000BC002F0
7E000BC001F4
BD000BC000F8
ENDCHAR
STARTCHAR uni046B
ENCODING 1131
SWIDTH 642 0
DWIDTH 21 0
BBX 20 17 0 0
BITMAP
0BFFFFFFF4
0BFFFFFFF0
02F5555BD0
00B8001F40
002E007D00
000B81F400
0002E7D000
002BFFF900
00FFFFFF40
02F43D0BD0
07E03D03E0
0BC03D02F0
0F803D00F8
1F403D00BC
3F003D007D
7D003D003E
BC003D002F
ENDCHAR
STARTCHAR uni046C
ENCODING 1132
SWIDTH 974 0
DWIDTH 31 0
BBX 28 23 3 0
BITMAP
F801FFFFFFFFF0
F801FFFFFFFFF0
F800BE55555BE0
F8003E00000F80
F8001F80003F00
F80007D000BD00
F80002F401F400
F80000BC07E000
F800003E0F8000
F800001FAF0000
FFFFFFFFFFA000
FFFFFFFFFFFE00
FD556F96F56F40
F8007E01F40BC0
F800BC01F407D0
F800F801F403E0
F801F401F402F0
F802F001F401F4
F803E001F400F8
F807D001F400BC
F80BD001F4007D
F80FC001F4003E
F81F8001F4002F
ENDCHAR
STARTCHAR uni046D
ENCODING 1133
SWIDTH 846 0
DWIDTH 27 0
BBX 25 17 2 0
BITMAP
7D03FFFFFFF800
7D03FFFFFFF800
7D01F95557F000
7D007E000BC000
7D001F402F0000
7D0007D0BC0000
7D0001F6F00000
7FFFFFFFFE0000
7FFFFFFFFFD000
7D55F81F07E000
7D02F01F01F400
7D03E01F00F800
7D07D01F00BC00
7D0F801F003E00
7D1F401F002F00
7D2F001F001F40
7D3E001F000F80
ENDCHAR
STARTCHAR uni046E
ENCODING 1134
SWIDTH 582 0
DWIDTH 19 0
BBX 16 34 1 -7
BITMAP
07D007E0
02F42FE0
00BDBD00
002FF000
01BFFE00
2FFFFFD0
7F941BF4
280001FC
000000BD
0000007D
000000BD
000000FC
000002F4
00006FD0
07FFF900
07FFFE40
01556FE0
000001FC
000000BD
0000003E
0000003E
0000003E
000000BD
000001FC
00056FF4
06FFFFD0
3FFFE900
BE400000
FC000000
FC000000
BE555550
7FFFFFFD
0AFFFFFD
00000019
ENDCHAR
STARTCHAR uni046F
ENCODING 1135
SWIDTH 482 0
DWIDTH 15 0
BBX 14 27 0 -6
BITMAP
0B800BD0
03E07FD0
00F9F800
007FE000
06FFE400
2FFFFF40
0E506FC0
000007D0
000007D0
000007C0
00006F80
00FFF900
00FFFD00
00556F80
000007E0
000002F0
000002F0
000007E0
00006FD0
06FFFF40
2FFFE400
7E400000
BC000000
BC000000
7E55BFE0
2FFFFFF0
06FE9020
ENDCHAR
STARTCHAR uni0470
ENCODING 1136
SWIDTH 795 0
DWIDTH 25 0
BBX 23 23 1 0
BITMAP
7D000BC000F8
7D000BC000F8
7D000BC000F8
7D000BC000F8
7D000BC000F8
7D000BC000F8
7D000BC000F8
7D000BC000F8
7D000BC000F8
3E000BC000F8
3F000BC001F4
2F400BC003F0
0FD00BC00BE0
07F90BC17F80
01FFFFFFFE00
002FFFFFE400
00005BD40000
00000BC00000
00000BC00000
00000BC00000
00000BC00000
00000BC00000
00000BC00000
ENDCHAR
STARTCHAR uni0471
ENCODING 1137
SWIDTH 752 0
DWIDTH 24 0
BBX 20 32 2 -8
BITMAP
00003D0000
00003D0000
00003D0000
00003D0000
00003D0000
00003D0000
00003D0000
7C003D007D
7C003D003D
7C003D003E
7C003D002E
7C003D002F
7C003D002F
7C003D002F
7C003D002F
7D003D002F
7D003D002F
7D003D003E
3E003D007E
2F403D00BC
1FD03D02F8
07F97E6FE0
01FFFFFF80
001BFFE400
00003D0000
00003D0000
00003D0000
00003D0000
00003D0000
00003D0000
00003D0000
00003D0000
ENDCHAR
STARTCHAR uni0472
ENCODING 1138
SWIDTH 779 0
DWIDTH 25 0
BBX 21 23 2 0
BITMAP
0006FFE40000
007FFFFF4000
02FF95BFE000
0BF40007F800
1F800000FD00
3F0000007E00
7E0000002F40
BD0000001F40
BC0000000F80
FC0000000F80
FFFFFFFFFFC0
FFFFFFFFFFC0
FD5555555FC0
FC0000000F80
BC0000000F80
BD0000001F40
7E0000002F40
3F4000007E00
1FC00000FD00
0BF40007F800
02FE95AFE000
007FFFFF4000
0006FFE40000
ENDCHAR
STARTCHAR uni0473
ENCODING 1139
SWIDTH 604 0
DWIDTH 19 0
BBX 17 17 1 0
BITMAP
001BFA0000
01FFFFD000
07F957F800
0FC000BD00
1F40003E00
2E00001F00
3E00001F40
3FFFFFFF40
7FFFFFFF80
3E55555F40
3E00001F40
2F00002F00
1F40003E00
0FC000BD00
07F957F800
01FFFFE000
001BFA0000
ENDCHAR
STARTCHAR uni0474
ENCODING 1140
SWIDTH 625 0
DWIDTH 20 0
BBX 21 23 0 0
BITMAP
BC0000002F80
7D000000FFC0
3E000002F940
2F000003E000
1F400007D000
0F80000FC000
0BC0000F8000
07D0001F4000
03F0002F0000
02F4003E0000
01F8007D0000
00FC00BC0000
00BD00F80000
003E01F40000
002F02F00000
001F43E00000
000F87D00000
000BCBC00000
0007DB800000
0003EF400000
0002FF000000
0001FE000000
0000FE000000
ENDCHAR
STARTCHAR uni0475
ENCODING 1141
SWIDTH 505 0
DWIDTH 16 0
BBX 17 17 0 0
BITMAP
BC00001FC0
7D00007FC0
3E0000FC00
2F0001F400
1F4002F000
0F8003E000
0BC007D000
07D00BC000
02F00F8000
01F41F4000
00F82F0000
00BC2E0000
007D3D0000
003E7C0000
002FB80000
001FF40000
000FF00000
ENDCHAR
STARTCHAR uni0476
ENCODING 1142
SWIDTH 625 0
DWIDTH 20 0
BBX 21 30 0 0
BITMAP
03F07E000000
01F82F400000
007D0B800000
001E02D00000
000740B00000
000000000000
000000000000
BC0000002F80
7D000000FFC0
3E000002F940
2F000003E000
1F400007D000
0F80000FC000
0BC0000F8000
07D0001F4000
03F0002F0000
02F4003E0000
01F8007D0000
00FC00BC0000
00BD00F80000
003E01F40000
002F02F00000
001F43E00000
000F87D00000
000BCBC00000
0007DB800000
0003EF400000
0002FF000000
0001FE000000
0000FE000000
ENDCHAR
STARTCHAR uni0477
ENCODING 1143
SWIDTH 505 0
DWIDTH 16 0
BBX 17 24 0 0
BITMAP
2F43F00000
0F81F40000
07D0BC0000
01F02E0000
00780B4000
0000000000
0000000000
BC00001FC0
7D00007FC0
3E0000FC00
2F0001F400
1F4002F000
0F8003E000
0BC007D000
07D00BC000
02F00F8000
01F41F4000
00F82F0000
00BC2E0000
007D3D0000
003E7C0000
002FB80000
001FF40000
000FF00000
ENDCHAR
STARTCHAR uni0478
ENCODING 1144
SWIDTH 1208 0
DWIDTH 39 0
BBX 37 31 2 -8
BITMAP
001AFF90000000000000
00BFFFF9000000000000
03FE56FF400000000000
0FE0001FC00000000000
2F800007E00000000000
3F000002F40000000000
7E000001F87D00001F40
BD000000FC3F00002F00
BC000000BC2F40003E00
FC000000BD0F80007D00
F8000000BD0BC000FC00
F8000000BD07D001F400
F8000000BD03F002F000
FC000000BD02F403E000
BC000000BC00F807D000
BD000000FC00BC0BC000
7E000001F8007D0F8000
3F000002F4003E1F4000
2F800007E0002F2F0000
0BE0001FC0000F7D0000
03FE56FF40000BFC0000
00BFFFF9000007F80000
001AFE90000003F40000
00000000000002F00000
00000000000003E00000
00000000000007D00000
0000000000000FC00000
0000000000002F400000
000000000015BE000000
00000000007FF8000000
00000000007F90000000
ENDCHAR
STARTCHAR uni0479
ENCODING 1145
SWIDTH 1061 0
DWIDTH 34 0
BBX 33 25 1 -8
BITMAP
001BFA003E00000F80
01FFFFD02F40001F40
07F957F80F80002F00
0FD000BD0BC0003E00
1F40003E07D0007D00
2F00002F03E000BC00
3E00001F42F001F400
3E00001F40F402F000
7D00001F80BC03E000
3E00001F407D07D000
3E00001F403E0BC000
2F00002F002F0F8000
1F40003E001F5F4000
0FD000BD000BAF0000
07F957F80007FD0000
01FFFFE00003FC0000
001BFA000002F80000
000000000001F40000
000000000002F00000
000000000003E00000
00000000000BD00000
00000000001F800000
00000000157F000000
000000003FFD000000
000000002FE0000000
ENDCHAR
STARTCHAR uni047A
ENCODING 1146
SWIDTH 818 0
DWIDTH 26 0
BBX 23 27 2 -2
BITMAP
00001A400000
00003FD00000
0006FFF90000
007FFFFFD000
02FFBFEBF800
0BF41A41FE00
1FC000002F40
2F4000000FC0
7E0000000BD0
BD00000003E0
BC00000003F0
FC00000002F0
F800000002F4
F800000002F4
F800000002F4
FC00000002F0
BC00000003F0
BD00000003E0
7E0000000BD0
2F4000000FC0
1FC000002F40
07F41A41FE00
02FFBFEBF800
007FFFFFD000
0006FFF90000
00003FD00000
00001A400000
ENDCHAR
STARTCHAR uni047B
ENCODING 1147
SWIDTH 657 0
DWIDTH 21 0
BBX 19 21 1 -2
BITMAP
0000640000
0001FD0000
001BFF9000
01FFFFFD00
07F9FDBF40
0FD0541FC0
1F400007D0
2F000003E0
3E000002F0
3E000002F0
7D000001F4
3E000002F0
3E000002F0
2F000003E0
1F400007D0
0FD0541FC0
07F9FDBF40
01FFFFFD00
001BFF9000
0001FD0000
0000640000
ENDCHAR
STARTCHAR uni047C
ENCODING 1148
SWIDTH 999 0
DWIDTH 32 0
BBX 28 33 2 0
BITMAP
000007F9000000
00001FFF900000
00003D06FF4000
00003C006B8000
0000003D000000
0000003F000000
0000000F000000
0000002D000000
000000A0000000
00000000000000
006FE4001BF900
02FFFE00BFFF80
0BF9BD007A6FE0
1FC004001007F4
3F4000000001F8
7E0000000000BD
BD00000000007D
BC00000000003E
FC00000000003F
F800000000003F
F800000000003F
F800000000003F
FC00000000003F
FC00000000003F
BC00000000003E
BD00000000007E
7E0000000000BD
3F0000000000FC
2F8000000002F4
0FE0007D000BF0
07FE5AFF95BFD0
01FFFFFFFFFF40
001BFE41BFE400
ENDCHAR
STARTCHAR uni047D
ENCODING 1149
SWIDTH 808 0
DWIDTH 26 0
BBX 23 28 1 0
BITMAP
0001BE400000
0003FFF90000
000781BFF000
000B4006F000
00000B800000
00000BD00000
000002D00000
000007800000
000019000000
000000000000
000000000000
006FA00AF900
02FFF01FFF80
0BE5A00A5BE0
1F80000002F0
2F00000001F8
3E00000000F8
3E00000000BC
3E00000000BC
7D00000000BC
3E00000000BC
3E00000000BC
3F00000000F8
2F40000001F4
0FC0010007F0
07F95BE56FD0
01FFFFFFFF40
002FF96FE800
ENDCHAR
STARTCHAR uni047E
ENCODING 1150
SWIDTH 983 0
DWIDTH 31 0
BBX 29 28 1 0
BITMAP
0000BFFFFFC00000
00007AAEAB800000
0000240902400000
0000000000000000
0000000000000000
002BF90006FE4000
01FFFF402FFFE000
07FA6E001E5BF800
0FE001000401FD00
1F80000000007F00
2F40000000002F40
3F00000000001F80
7E00000000000F80
7D00000000000FC0
7D00000000000FC0
BD00000000000FC0
BD00000000000FC0
7D00000000000FC0
7D00002F00000FC0
7E00002F00000F80
3F00002F00001F80
2F00002F00002F40
1F80002F00003F00
0FD0002F0000BE00
07F4002F4002FC00
02FE56FFE56FF400
00BFFFFBFFFFD000
001BFE806FF90000
ENDCHAR
STARTCHAR uni047F
ENCODING 1151
SWIDTH 818 0
DWIDTH 26 0
BBX 25 22 0 0
BITMAP
000FFFFFF80000
000BAAEAB40000
000300C0600000
00000000000000
00000000000000
BC003E00000F40
7D002F00001F40
3E001F80001F40
2F000FC0001F40
1F4007D0001F00
0F8003E0002F00
0BC002F0002E00
07D002F4003E00
03E003F8007D00
02F00BFC00BC00
01F40FBD01F400
00F81F3E02F000
00BC3D1F07D000
007D7C0F4F8000
003EF80BBF0000
002FF007FD0000
000FE003F40000
ENDCHAR
STARTCHAR uni0480
ENCODING 1152
SWIDTH 639 0
DWIDTH 20 0
BBX 18 31 2 -8
BITMAP
0001BFF900
002FFFFFD0
01FFA56FC0
07F8000140
0FD0000000
2F80000000
3F00000000
7D00000000
BD00000000
FC00000000
FC00000000
F800000000
FC00000000
FC00000000
BC00000000
BD00000000
7E00000000
3F40000000
1FD0000000
0BF4000000
02FFA59000
007FFFE000
0006FFE000
000003E000
000003E000
000003E000
000003E000
000003E000
000003E000
000003E000
000003E000
ENDCHAR
STARTCHAR uni0481
ENCODING 1153
SWIDTH 487 0
DWIDTH 16 0
BBX 14 25 1 -8
BITMAP
001BFE40
01FFFFD0
07F956C0
0FD00000
1F400000
2F000000
3E000000
3E000000
7D000000
3E000000
3E000000
3F000000
2F400000
0FD00000
07F95600
01FFFE00
001BFE00
00002E00
00002E00
00002E00
00002E00
00002E00
00002E00
00002E00
00002E00
ENDCHAR
STARTCHAR uni0482
ENCODING 1154
SWIDTH 608 0
DWIDTH 19 0
BBX 16 20 2 0
BITMAP
00000090
000002F0
005003D0
00B90B80
007F9F40
000BFE00
0001FF40
0000FFE4
0002F1FD
0007D02D
B40B8000
FE5F0000
1FFE0000
02FE0000
01FFD000
02E7F800
07D07D00
0F800400
1F000000
09000000
ENDCHAR
STARTCHAR uni0483
ENCODING 1155
SWIDTH 557 0
DWIDTH 18 0
BBX 12 5 3 18
BITMAP
000014
00007E
BFFFFE
BEAAA8
B80000
ENDCHAR
STARTCHAR uni0484
ENCODING 1156
SWIDTH 577 0
DWIDTH 18 0
BBX 12 4 4 20
BITMAP
001BE0
06FFFC
FFE43D
E9002D
ENDCHAR
STARTCHAR uni0485
ENCODING 1157
SWIDTH 577 0
DWIDTH 18 0
BBX 5 5 7 19
BITMAP
2E00
7E00
7400
2D00
0640
ENDCHAR
STARTCHAR uni0486
ENCODING 1158
SWIDTH 577 0
DWIDTH 18 0
BBX 5 5 7 19
BITMAP
2E00
3F40
0B00
1D00
6400
ENDCHAR
STARTCHAR uni0488
ENCODING 1160
SWIDTH 988 0
DWIDTH 32 0
BBX 31 27 0 -5
BITMAP
0000001BD0000000
0000007AB4000000
000000A01C000000
0000000000000000
006F80000006F800
00EAE000000FAE00
0180700000180700
0000000000000000
0000000000000000
0000000000000000
0000000000000000
0000000000000000
1BE0000000001BD0
3EB8000000007AB8
701C00000000601C
0000000000000000
0000000000000000
0000000000000000
0000000000000000
0000000000000000
006F80000006F800
00EAE000000FAE00
0180700000180700
0000000000000000
0000001BD0000000
0000007AB4000000
000000A01C000000
ENDCHAR
STARTCHAR uni0489
ENCODING 1161
SWIDTH 956 0
DWIDTH 31 0
BBX 30 29 0 -6
BITMAP
00000002C0000000
0000000380000000
0000000B40000000
0004000F40000000
0028001F00000000
002D00050001B800
000F4000001FE000
000B8000003F4000
0003800000180000
0001000000000000
0000000000000000
0000000000000000
0000000000000000
7A5000000000B900
2FF000000000BFD0
01B00000000016F0
0000000000000000
0000000000000000
0000000000000000
0000000000000000
0000000000050000
0002C000001E0000
001FE000000F4000
00BE400140078000
00A400078002D000
0000000B8000D000
0000000F00000000
0000000E00000000
0000001D00000000
ENDCHAR
STARTCHAR uni048A
ENCODING 1162
SWIDTH 770 0
DWIDTH 25 0
BBX 21 36 3 -6
BITMAP
01F000BC0000
01F400B80000
00F902F40000
007FFFE00000
001BFE400000
000000000000
000000000000
F8000003F400
F800000BF400
F800001FF400
F800003FF400
F80000BDF400
F80001F8F400
F80003F0F400
F8000BD1F400
F8001F81F400
F8003F01F400
F800BD01F400
F801F801F400
F803F001F400
F80BD001F400
F81F8001F400
F83F0001F400
F8BD0001F400
F9F80001F400
FBF00001F400
FFD00001F400
FF800001F940
FF000001FFC0
FD000001FF80
000000000F40
000000001F00
000000002E00
000000007E00
00000000BD00
00000000FC00
ENDCHAR
STARTCHAR uni048B
ENCODING 1163
SWIDTH 643 0
DWIDTH 21 0
BBX 18 30 2 -6
BITMAP
07D001F400
03D002F000
02F407E000
00FFFFC000
002BF90000
0000000000
0000000000
7D0000FE00
7D0002FE00
7D0007FE00
7D000FAE00
7D002F3E00
7D007D3E00
7D00F83E00
7D02F03E00
7D03D03E00
7D0B803E00
7D1F003E00
7C3D003E00
7CB8003E00
7DF4003E00
7FE0003E50
7FC0003FF0
7F40003FF0
00000002E0
00000003D0
00000007C0
0000000BC0
0000000F80
0000001F40
ENDCHAR
STARTCHAR uni048C
ENCODING 1164
SWIDTH 612 0
DWIDTH 20 0
BBX 18 23 0 0
BITMAP
03E0000000
03E0000000
03E0000000
7FFFFC0000
7FFFFC0000
17F5540000
03E0000000
03E0000000
03E0000000
03E0000000
03FFFE9000
03FFFFFD00
03F556BF80
03E0001FD0
03E00007E0
03E00003F0
03E00003F0
03E00003F0
03E00007E0
03E0001FD0
03F555BF80
03FFFFFE00
03FFFF9000
ENDCHAR
STARTCHAR uni048D
ENCODING 1165
SWIDTH 591 0
DWIDTH 19 0
BBX 17 24 0 0
BITMAP
07D0000000
07D0000000
07D0000000
07D0000000
BFFFF00000
BFFFF00000
07D0000000
07D0000000
07D0000000
07D0000000
07D0000000
07D0000000
07D0000000
07D0000000
07FFFFE400
07FFFFFE00
07D5557F80
07D0000BC0
07D00007C0
07D00007C0
07D0000FC0
07D5557F40
07FFFFFE00
07FFFFA400
ENDCHAR
STARTCHAR uni048E
ENCODING 1166
SWIDTH 610 0
DWIDTH 20 0
BBX 15 23 3 0
BITMAP
FFFFE400
FFFFFF40
FD55BFD0
F80007F4
F80001F8
F80000F8
F80000FC
F80000F8
F80240F8
F80BC2F4
F802E7E0
FD56FFC0
FFFFFE00
FFFFAF00
F8000F80
F80003C0
F8000100
F8000000
F8000000
F8000000
F8000000
F8000000
F8000000
ENDCHAR
STARTCHAR uni048F
ENCODING 1167
SWIDTH 612 0
DWIDTH 20 0
BBX 16 25 2 -8
BITMAP
7C1BF900
7CBFFFD0
7EE55BF4
7F8001F8
7F0000BD
7E00007D
7D00003E
7D00003E
7D00003E
7D00003E
7D00003E
7E00607D
7F00F8BD
7F807EF8
7FF56FF4
7DBFFFD0
7D1BFBE0
7D0001F4
7D000074
7D000000
7D000000
7D000000
7D000000
7D000000
7D000000
ENDCHAR
STARTCHAR afii10050
ENCODING 1168
SWIDTH 526 0
DWIDTH 17 0
BBX 13 28 3 0
BITMAP
000007C0
000007C0
000007C0
000007C0
000007C0
FFFFFFC0
FFFFFFC0
FD555540
F8000000
F8000000
F8000000
F8000000
F8000000
F8000000
F8000000
F8000000
F8000000
F8000000
F8000000
F8000000
F8000000
F8000000
F8000000
F8000000
F8000000
F8000000
F8000000
F8000000
ENDCHAR
STARTCHAR afii10098
ENCODING 1169
SWIDTH 428 0
DWIDTH 14 0
BBX 11 22 2 0
BITMAP
0000BC
0000BC
0000BC
0000BC
0000BC
7FFFFC
7FFFFC
7D0000
7D0000
7D0000
7D0000
7D0000
7D0000
7D0000
7D0000
7D0000
7D0000
7D0000
7D0000
7D0000
7D0000
7D0000
ENDCHAR
STARTCHAR uni0492
ENCODING 1170
SWIDTH 526 0
DWIDTH 17 0
BBX 16 23 0 0
BITMAP
03FFFFFF
03FFFFFF
03F55555
03E00000
03E00000
03E00000
03E00000
03E00000
03E00000
03E00000
7FFFFF40
7FFFFF40
17F55500
03E00000
03E00000
03E00000
03E00000
03E00000
03E00000
03E00000
03E00000
03E00000
03E00000
ENDCHAR
STARTCHAR uni0493
ENCODING 1171
SWIDTH 428 0
DWIDTH 14 0
BBX 13 17 0 0
BITMAP
07FFFFC0
07FFFFC0
07D55540
07D00000
07D00000
07D00000
07D00000
BFFFF800
BFFFF800
07D00000
07D00000
07D00000
07D00000
07D00000
07D00000
07D00000
07D00000
ENDCHAR
STARTCHAR uni0494
ENCODING 1172
SWIDTH 642 0
DWIDTH 21 0
BBX 17 31 3 -8
BITMAP
FFFFFFD000
FFFFFFD000
FD55554000
F800000000
F800000000
F800000000
F800000000
F800000000
F800000000
F800000000
FFFFA40000
FFFFFF4000
FD55BFD000
F8000BF400
F80001FC00
F80000BE00
F800003F00
F800002F00
F800002F40
F800001F40
F800001F40
F800001F40
F800002F40
0000002F00
0000003F00
0000007E00
000000FD00
000002F800
01E56FE000
01FFFF8000
00AFF90000
ENDCHAR
STARTCHAR uni0495
ENCODING 1173
SWIDTH 524 0
DWIDTH 17 0
BBX 14 25 2 -8
BITMAP
7FFFFC00
7FFFFC00
7D555400
7D000000
7D000000
7D000000
7D000000
7FFF9000
7FFFF800
7E56FF00
7D002F80
7D000BC0
7D0007D0
7D0003E0
7D0003E0
7D0003F0
7D0002F0
000003E0
000003E0
000007E0
00000BD0
00001F80
0295BF40
02FFFD00
00AFE000
ENDCHAR
STARTCHAR uni0496
ENCODING 1174
SWIDTH 890 0
DWIDTH 28 0
BBX 28 29 0 -6
BITMAP
7E0000B80002F4
1F8000B8000BD0
0BD000B8001F80
02F400B8003E00
00FC00B800FC00
007E00B802F400
001F80B80BD000
000BD0B81F8000
0002F0B83E0000
0000FCB8FC0000
00007EBAF40000
00003FFFF00000
0000BDB9F80000
0001F8B8BE0000
0007E0B82F4000
000FC0B80FC000
002F40B807E000
00BD00B801F800
01F800B800BD00
07E000B8002F40
0FC000B8000FD5
2F4000B80007FF
BE0000B80002FF
0000000000002F
0000000000002F
0000000000002F
0000000000002F
0000000000002F
0000000000002F
ENDCHAR
STARTCHAR uni0497
ENCODING 1175
SWIDTH 779 0
DWIDTH 25 0
BBX 25 23 0 -6
BITMAP
3F0007C001F400
0F8007C007E000
07E007C01F8000
01F807C03E0000
007D07C0BC0000
002F47C2F00000
000BC7CBD00000
0002FBDF400000
0001FBFF000000
0007E7CF800000
001F87C7E00000
003E07C1F80000
00FC07C07D0000
02F007C02F4000
0BD007C00BD500
2F4007C002FF40
7D0007C000FF40
00000000000F40
00000000000F40
00000000000F40
00000000000F40
00000000000F40
00000000000F40
ENDCHAR
STARTCHAR uni0498
ENCODING 1176
SWIDTH 581 0
DWIDTH 19 0
BBX 16 30 1 -7
BITMAP
01AFF900
1FFFFFD0
7F955BF4
380001FC
000000BD
0000007D
000000BD
000000FC
000002F4
00006FD0
07FFFA00
07FFFE40
01556FF0
000001FC
000000BD
0000003E
0000003E
0000003E
000000BD
400001FC
FE556FF4
BFFFFF90
1AFFE900
000B4000
0003C000
0001E000
0001F000
0001F000
002BE000
002F8000
ENDCHAR
STARTCHAR uni0499
ENCODING 1177
SWIDTH 482 0
DWIDTH 15 0
BBX 13 24 1 -7
BITMAP
1AFF9000
BFFFFD00
7A55BF00
00001F40
00001F40
00001F00
0001BE00
03FFE400
03FFF800
0155BF00
00001F80
00000BC0
00000BC0
40001F80
F941BF40
FFFFFD00
1BFF9000
00780000
001E0000
000B4000
00078000
000B8000
00FF4000
00FE0000
ENDCHAR
STARTCHAR uni049A
ENCODING 1178
SWIDTH 661 0
DWIDTH 21 0
BBX 18 29 3 -6
BITMAP
F800007E00
F80001FC00
F80007F000
F8000FC000
F8003F4000
F800BD0000
F802F40000
F80BD00000
F82F400000
F87E000000
F9FD000000
FFFF400000
FF5FC00000
FD0BE00000
F802F40000
F800FD0000
F8007F0000
F8002F8000
F8000BD000
F80003F400
F80001FD50
F80000BFE0
F800002FE0
00000003E0
00000003E0
00000003E0
00000003E0
00000003E0
00000003E0
ENDCHAR
STARTCHAR uni049B
ENCODING 1179
SWIDTH 544 0
DWIDTH 17 0
BBX 15 23 2 -6
BITMAP
7D000BD0
7D002F40
7D00BD00
7D01F400
7D07E000
7D1F8000
7D3E0000
7DF80000
7EF40000
7DBD0000
7D2F4000
7D0BD000
7D03F400
7D00FC00
7D007F54
7D001FFC
7D0007FC
000000BC
000000BC
000000BC
000000BC
000000BC
000000BC
ENDCHAR
STARTCHAR uni049C
ENCODING 1180
SWIDTH 613 0
DWIDTH 20 0
BBX 17 23 3 0
BITMAP
F800007E00
F80001FC00
F80007F000
F8100FC000
F8783F4000
F878BD0000
F87AF40000
F87FD00000
F87F400000
F87E000000
F9FD000000
FFFF400000
FFBFC00000
FD7FE00000
F87AF40000
F878BD0000
F8787F0000
F8781F8000
F8140BD000
F80003F000
F80001F800
F80000BE00
F800002F40
ENDCHAR
STARTCHAR uni049D
ENCODING 1181
SWIDTH 533 0
DWIDTH 17 0
BBX 15 17 2 0
BITMAP
7D0003E0
7D290F80
7D2D2F00
7D2DBC00
7D2FF000
7D2FC000
7D3F0000
7DBD0000
7EFD0000
7DBE0000
7D2F8000
7D2FE000
7D2EF800
7D2D7E00
7D2D2F80
7D180BD0
7D0002F4
ENDCHAR
STARTCHAR uni049E
ENCODING 1182
SWIDTH 613 0
DWIDTH 20 0
BBX 20 23 0 0
BITMAP
03E00001F8
03E00007F0
03E0000FC0
7FFFD03F40
7FFFD0BD00
17F542F400
03E00BD000
03E02F4000
03E07E0000
03E1F80000
03E7F40000
03FFFC0000
03FE7E0000
03F42F8000
03E00FD000
03E007F000
03E001F800
03E000BE00
03E0003F40
03E0001FC0
03E00007E0
03E00002F8
03E00000FD
ENDCHAR
STARTCHAR uni049F
ENCODING 1183
SWIDTH 517 0
DWIDTH 17 0
BBX 16 24 0 0
BITMAP
07D00000
07D00000
07D00000
BFFFFD00
BFFFFD00
07D00000
07D00000
07D000BD
07D002F8
07D00BE0
07D01F80
07D07E00
07D1F800
07D7E000
07DFD000
07FFF000
07F9F800
07E0BD00
07D02F40
07D00FC0
07D007E0
07D002F8
07D000BD
07D0003F
ENDCHAR
STARTCHAR uni04A0
ENCODING 1184
SWIDTH 688 0
DWIDTH 22 0
BBX 22 23 0 0
BITMAP
BFFF40000FD0
BFFF40002F40
556F4000BD00
001F4002F400
001F400BE000
001F401F8000
001F407E0000
001F41F80000
001F47E00000
001F4FC00000
001F7FC00000
001FFFE00000
001FE3F40000
001F81FC0000
001F407E0000
001F402F8000
001F400FD000
001F4007F000
001F4001F800
001F4000BD00
001F40003F40
001F40001FC0
001F400007E0
ENDCHAR
STARTCHAR uni04A1
ENCODING 1185
SWIDTH 615 0
DWIDTH 20 0
BBX 19 17 0 0
BITMAP
7FFF8001F4
7FFF8007E0
155F801F80
000F803E00
000F80F800
000F82F000
000F8BD000
000FAF4000
000FBE0000
000F9F8000
000F87E000
000F81F800
000F80BD00
000F802F40
000F800BD0
000F8002F4
000F8000FC
ENDCHAR
STARTCHAR uni04A2
ENCODING 1186
SWIDTH 746 0
DWIDTH 24 0
BBX 20 29 3 -6
BITMAP
F8000007D0
F8000007D0
F8000007D0
F8000007D0
F8000007D0
F8000007D0
F8000007D0
F8000007D0
F8000007D0
F8000007D0
FFFFFFFFD0
FFFFFFFFD0
FD555557D0
F8000007D0
F8000007D0
F8000007D0
F8000007D0
F8000007D0
F8000007D0
F8000007D0
F8000007E5
F8000007FF
F8000007FF
000000002F
000000002F
000000002F
000000002F
000000002F
000000002F
ENDCHAR
STARTCHAR uni04A3
ENCODING 1187
SWIDTH 647 0
DWIDTH 21 0
BBX 18 23 2 -6
BITMAP
7D00003E00
7D00003E00
7D00003E00
7D00003E00
7D00003E00
7D00003E00
7D00003E00
7FFFFFFE00
7FFFFFFE00
7D55557E00
7D00003E00
7D00003E00
7D00003E00
7D00003E00
7D00003E50
7D00003FF0
7D00003FF0
00000002F0
00000002F0
00000002F0
00000002F0
00000002F0
00000002F0
ENDCHAR
STARTCHAR uni04A4
ENCODING 1188
SWIDTH 812 0
DWIDTH 26 0
BBX 23 23 3 0
BITMAP
F8000007FFF8
F8000007FFF8
F8000007E554
F8000007D000
F8000007D000
F8000007D000
F8000007D000
F8000007D000
F8000007D000
F8000007D000
FFFFFFFFD000
FFFFFFFFD000
FD55555BD000
F8000007D000
F8000007D000
F8000007D000
F8000007D000
F8000007D000
F8000007D000
F8000007D000
F8000007D000
F8000007D000
F8000007D000
ENDCHAR
STARTCHAR uni04A5
ENCODING 1189
SWIDTH 735 0
DWIDTH 24 0
BBX 21 17 2 0
BITMAP
7D00003FFFC0
7D00003FFFC0
7D00003E5540
7D00003E0000
7D00003E0000
7D00003E0000
7D00003E0000
7FFFFFFE0000
7FFFFFFE0000
7D55557E0000
7D00003E0000
7D00003E0000
7D00003E0000
7D00003E0000
7D00003E0000
7D00003E0000
7D00003E0000
ENDCHAR
STARTCHAR uni04A6
ENCODING 1190
SWIDTH 1066 0
DWIDTH 34 0
BBX 30 31 3 -8
BITMAP
FFFFFFFF40000000
FFFFFFFF40000000
FD55556F40000000
F800001F40000000
F800001F40000000
F800001F40000000
F800001F40000000
F800001F40000000
F800001F40000000
F800001F40000000
F800001FFFE90000
F800001FFFFFD000
F800001F956FF400
F800001F4001FD00
F800001F40007F00
F800001F40001F80
F800001F40000FC0
F800001F40000BC0
F800001F40000BD0
F800001F400007D0
F800001F400007D0
F800001F400007D0
F800001F40000BD0
0000000000000BD0
0000000000000FC0
0000000000001F80
0000000000002F40
000000000000BE00
00000000795BFC00
000000007FFFE000
000000001BFE4000
ENDCHAR
STARTCHAR uni04A7
ENCODING 1191
SWIDTH 865 0
DWIDTH 28 0
BBX 25 25 2 -8
BITMAP
7FFFFFF4000000
7FFFFFF4000000
7E5555F4000000
7D0000F4000000
7D0000F4000000
7D0000F4000000
7D0000F4000000
7D0000FFFA4000
7D0000FFFFE000
7D0000F95BF800
7D0000F400BD00
7D0000F4003E00
7D0000F4002F40
7D0000F4001F40
7D0000F4000F80
7D0000F4000F80
7D0000F4000F80
00000000000F80
00000000001F40
00000000001F40
00000000002F00
00000000007E00
0000000796FC00
00000007FFF400
00000001BF8000
ENDCHAR
STARTCHAR uni04A8
ENCODING 1192
SWIDTH 778 0
DWIDTH 25 0
BBX 22 24 2 -1
BITMAP
0006FF900000
00BFFFC00000
02FE96800000
0BE000000000
1F80006F9000
3F0002FFF800
7E0007E5BE00
BD000FC03F00
BC001F801F40
FC002F400F80
F8002F000F80
F8002F000FC0
F8002F000FC0
FC002F000F80
BC002F400F80
BD001F401F40
7E000F802F00
3F400BD07E00
1FC007E0FD00
0BF402FBF400
02FE96FFE000
007FFFFFE990
0006FFABFFE0
00000001AFD0
ENDCHAR
STARTCHAR uni04A9
ENCODING 1193
SWIDTH 640 0
DWIDTH 20 0
BBX 19 18 1 -1
BITMAP
002BF80000
01FFF80000
07F5500000
0F80000000
2F4006F900
2F002FFF80
3E007E5BD0
3E00BC07E0
7D00F803E0
3E00F803E0
3E00F803E0
2F00BC07D0
1F407E0BC0
0FC02F6F80
07F95FFE00
01FFFFFD10
001BFABFF4
0000001BF4
ENDCHAR
STARTCHAR uni04AA
ENCODING 1194
SWIDTH 630 0
DWIDTH 20 0
BBX 17 30 2 -7
BITMAP
0006BFE900
006FFFFFC0
01FFA5AF80
07F8000100
1FD0000000
2F40000000
7F00000000
BD00000000
BC00000000
FC00000000
FC00000000
F800000000
FC00000000
FC00000000
BC00000000
BD00000000
7E00000000
3F40000000
1FD0000000
0BF4000000
02FF956B40
007FFFFF40
0006FFE900
0000B40000
00002D0000
00001F0000
00000F4000
00000F4000
0002BF0000
0002F90000
ENDCHAR
STARTCHAR uni04AB
ENCODING 1195
SWIDTH 476 0
DWIDTH 15 0
BBX 13 24 1 -7
BITMAP
001BFE40
01FFFFC0
07F95B80
0FD00000
1F400000
2F000000
3E000000
3E000000
7D000000
3E000000
3E000000
3F000000
2F400000
0FD00000
07F956C0
01FFFFC0
001BFA40
00078000
0001E000
0000B400
0000B800
0000B800
001BF400
000FD000
ENDCHAR
STARTCHAR uni04AC
ENCODING 1196
SWIDTH 553 0
DWIDTH 18 0
BBX 18 29 0 -6
BITMAP
BFFFFFFFD0
BFFFFFFFD0
5556F55540
0002F40000
0002F40000
0002F40000
0002F40000
0002F40000
0002F40000
0002F40000
0002F40000
0002F40000
0002F40000
0002F40000
0002F40000
0002F40000
0002F40000
0002F40000
0002F40000
0002F40000
0002F94000
0002FF8000
0002FF8000
00000B8000
00000B8000
00000B8000
00000B8000
00000B8000
00000B8000
ENDCHAR
STARTCHAR uni04AD
ENCODING 1197
SWIDTH 466 0
DWIDTH 15 0
BBX 15 23 0 -6
BITMAP
7FFFFFF4
7FFFFFF4
155F9550
000F8000
000F8000
000F8000
000F8000
000F8000
000F8000
000F8000
000F8000
000F8000
000F8000
000F8000
000F9400
000FFC00
000FFC00
0000BC00
0000BC00
0000BC00
0000BC00
0000BC00
0000BC00
ENDCHAR
STARTCHAR uni04AE
ENCODING 1198
SWIDTH 560 0
DWIDTH 18 0
BBX 18 23 0 0
BITMAP
BD000007E0
7E00000BC0
2F40001F80
0F80002F00
0BD0007D00
03E000FC00
02F401F400
00FC03F000
007D07D000
003F0F8000
001F6F4000
000BFE0000
0007FC0000
0002F80000
0001F40000
0001F40000
0001F40000
0001F40000
0001F40000
0001F40000
0001F40000
0001F40000
0001F40000
ENDCHAR
STARTCHAR uni04AF
ENCODING 1199
SWIDTH 500 0
DWIDTH 16 0
BBX 16 25 0 -8
BITMAP
BC00003E
7D00007D
3E0000BC
2F0000F8
1F4001F4
0B8002F0
07D003D0
03E00BC0
02F00F80
01F41F40
00F82F00
007C3D00
003D7C00
002EB800
001FF400
000FF000
0007E000
0007D000
0007D000
0007D000
0007D000
0007D000
0007D000
0007D000
0007D000
ENDCHAR
STARTCHAR uni04B0
ENCODING 1200
SWIDTH 560 0
DWIDTH 18 0
BBX 18 23 0 0
BITMAP
BD000007E0
7E00000BC0
2F40001F80
0F80002F00
0BD0007D00
03E000FC00
02F401F400
00FC03F000
007D07D000
003F0F8000
001F6F4000
000BFE0000
0007FC0000
0002F80000
0001F40000
03FFFFFC00
03FFFFFC00
0156F95400
0001F40000
0001F40000
0001F40000
0001F40000
0001F40000
ENDCHAR
STARTCHAR uni04B1
ENCODING 1201
SWIDTH 500 0
DWIDTH 16 0
BBX 16 25 0 -8
BITMAP
BC00003F
7D00007D
3E0000BC
2F0000F8
1F4001F4
0F8002F0
07D003D0
03E00BC0
02F00F80
01F41F40
00F82F00
007C3E00
003D7C00
002EB800
001FF400
000FF000
000BE000
0BFFFFE0
0BFFFFE0
0007D000
0007D000
0007D000
0007D000
0007D000
0007D000
ENDCHAR
STARTCHAR uni04B2
ENCODING 1202
SWIDTH 619 0
DWIDTH 20 0
BBX 20 29 0 -6
BITMAP
3F000007D0
1F80000F80
0BC0002F40
03E0007E00
01F400FC00
00BC01F400
007E03E000
002F4BC000
000FDF4000
0007FE0000
0002FC0000
0002FC0000
0007FE0000
000F9F4000
002F4BC000
003E07E000
00BC02F400
01F400FC00
03E0007D00
0BC0002F00
1F40001F94
3F00000BFD
BD000003FD
000000007D
000000007D
000000007D
000000007D
000000007D
000000007D
ENDCHAR
STARTCHAR uni04B3
ENCODING 1203
SWIDTH 541 0
DWIDTH 17 0
BBX 16 23 1 -6
BITMAP
BD0001F4
3F0007E0
1F800BC0
0BD02F40
02F07E00
01F8F800
007EF400
002FD000
001FC000
003FE000
00BDF400
01F4BD00
07E03F00
0FC01F80
2F400BD5
7E0002FF
FC0001FF
0000002F
0000002F
0000002F
0000002F
0000002F
0000002F
ENDCHAR
STARTCHAR uni04B4
ENCODING 1204
SWIDTH 854 0
DWIDTH 27 0
BBX 27 29 0 -6
BITMAP
BFFFFFFFC02F00
BFFFFFFFC02F00
5557E555402F00
0003E000002F00
0003E000002F00
0003E000002F00
0003E000002F00
0003E000002F00
0003E000002F00
0003E000002F00
0003E000002F00
0003E000002F00
0003E000002F00
0003E000002F00
0003E000002F00
0003E000002F00
0003E000002F00
0003E000002F00
0003E000002F00
0003E000002F00
0003E555556F54
0003FFFFFFFFF8
0003FFFFFFFFF8
000000000000F8
000000000000F8
000000000000F8
000000000000F8
000000000000F8
000000000000F8
ENDCHAR
STARTCHAR uni04B5
ENCODING 1205
SWIDTH 716 0
DWIDTH 23 0
BBX 23 23 0 -6
BITMAP
7FFFFFF02F00
7FFFFFF02F00
155F55402F00
001F40002F00
001F40002F00
001F40002F00
001F40002F00
001F40002F00
001F40002F00
001F40002F00
001F40002F00
001F40002F00
001F40002F00
001F40002F00
001F55556F50
001FFFFFFFF4
001FFFFFFFF4
0000000001F4
0000000001F4
0000000001F4
0000000001F4
0000000001F4
0000000001F4
ENDCHAR
STARTCHAR uni04B6
ENCODING 1206
SWIDTH 691 0
DWIDTH 22 0
BBX 20 29 2 -6
BITMAP
7D00000BC0
7D00000BC0
7D00000BC0
7D00000BC0
7D00000BC0
7D00000BC0
7D00000BC0
7D00000BC0
7D00000BC0
7D00000BC0
7D00000BC0
3F00000BC0
2F9005BFC0
0FFFFFFFC0
02FFFF9BC0
0015500BC0
0000000BC0
0000000BC0
0000000BC0
0000000BC0
0000000BD5
0000000BFE
0000000BFE
000000003E
000000003E
000000003E
000000003E
000000003E
000000003E
ENDCHAR
STARTCHAR uni04B7
ENCODING 1207
SWIDTH 608 0
DWIDTH 19 0
BBX 17 23 2 -6
BITMAP
BC0000F800
BC0000F800
BC0000F800
BC0000F800
BC0000F800
BC0000F800
BC0000F800
7D0002F800
3F406FF800
1FFFFDF800
06FFE0F800
000000F800
000000F800
000000F800
000000F940
000000FFC0
000000FFC0
0000000BC0
0000000BC0
0000000BC0
0000000BC0
0000000BC0
0000000BC0
ENDCHAR
STARTCHAR uni04B8
ENCODING 1208
SWIDTH 694 0
DWIDTH 22 0
BBX 17 23 2 0
BITMAP
7D00000BC0
7D00000BC0
7D00000BC0
7D00000BC0
7D00000BC0
7D00000BC0
7D00000BC0
7D01E00BC0
7D01E00BC0
7D01E00BC0
7D01E00BC0
3F01E00BC0
2F91E5BFC0
0BFFFFFFC0
02FFFF9BC0
0005F00BC0
0001E00BC0
0001E00BC0
0001E00BC0
0001E00BC0
0000000BC0
0000000BC0
0000000BC0
ENDCHAR
STARTCHAR uni04B9
ENCODING 1209
SWIDTH 600 0
DWIDTH 19 0
BBX 15 17 2 0
BITMAP
BC0000F4
BC0000F4
BC0000F4
BC0000F4
BC0000F4
BC0F00F4
BC0F00F4
7D0F02F4
3F4F6FF4
1FFFFDF4
06FF90F4
000F00F4
000F00F4
000F00F4
000F00F4
000000F4
000000F4
ENDCHAR
STARTCHAR uni04BA
ENCODING 1210
SWIDTH 694 0
DWIDTH 22 0
BBX 17 23 3 0
BITMAP
F800000000
F800000000
F800000000
F800000000
F800000000
F800000000
F800000000
F800000000
F81AFF9000
FEFFFFF800
FFFA56FE00
FD00003F40
F800001F40
F800001F80
F800000F80
F800000F80
F800000F80
F800000F80
F800000F80
F800000F80
F800000F80
F800000F80
F800000F80
ENDCHAR
STARTCHAR uni04BB
ENCODING 1211
SWIDTH 584 0
DWIDTH 19 0
BBX 15 17 2 0
BITMAP
7D000000
7D000000
7D000000
7D000000
7D000000
7D000000
7D1AFE40
7DBFFFE0
7FF957F4
7F4000FC
7D0000BC
7D0000BC
7D0000BC
7D0000BC
7D0000BC
7D0000BC
7D0000BC
ENDCHAR
STARTCHAR uni04BC
ENCODING 1212
SWIDTH 837 0
DWIDTH 27 0
BBX 24 23 1 0
BITMAP
000006BFE400
00002FFFFF40
0001FF95BFD0
0007F80007F0
000BD00001F8
001F800000BC
002F4000007D
B43F0000003E
F43E0000003E
F87D0000003F
BFFFFFFFFFFF
2FFFFFFFFFFF
01BE55555555
007E00000000
003E00000000
003F00000000
002F40000000
001FC0000000
000BE0000000
0003F9000014
0001FFA56AF8
00002FFFFFF8
000001BFFA50
ENDCHAR
STARTCHAR uni04BD
ENCODING 1213
SWIDTH 659 0
DWIDTH 21 0
BBX 20 17 0 0
BITMAP
00001BF900
0001FFFF80
0003F95BF0
000BC001F8
3D1F4000BC
7C2F00007D
3D3E00007D
2FFFFFFFFD
0BFFFFFFFD
003E000000
003E000000
002F000000
001F400000
000FD00004
0007F955B8
0001FFFFF8
00001BFF90
ENDCHAR
STARTCHAR uni04BE
ENCODING 1214
SWIDTH 837 0
DWIDTH 27 0
BBX 24 29 1 -6
BITMAP
000006BFE400
00002FFFFF40
0001FF95BFD0
0007F80007F0
000BD00001F8
001F800000BC
002F4000007D
B43F0000003E
F43E0000003E
F87D0000003F
BFFFFFFFFFFF
2FFFFFFFFFFF
01BE55555555
007E00000000
003E00000000
003F00000000
002F40000000
001F80000000
000BE0000000
0003F8000000
0001FF9556F8
00002FFFFFF8
000006BFFA50
0000002F0000
0000002F0000
0000002F0000
0000002F0000
0000002F0000
0000002F0000
ENDCHAR
STARTCHAR uni04BF
ENCODING 1215
SWIDTH 659 0
DWIDTH 21 0
BBX 20 23 0 -6
BITMAP
00001BF900
0001FFFF80
0003F95BF0
000BC001F8
3D1F4000BC
7C2F00007D
3D3E00007D
2FFFFFFFFD
0BFFFFFFFD
003E000000
003E000000
002F000000
001F400000
000FD00000
0007F905A8
0001FFFFF8
00001BFE90
000002F000
000002F000
000002F000
000002F000
000002F000
000002F000
ENDCHAR
STARTCHAR uni04C0
ENCODING 1216
SWIDTH 278 0
DWIDTH 9 0
BBX 3 23 3 0
BITMAP
F8
F8
F8
F8
F8
F8
F8
F8
F8
F8
F8
F8
F8
F8
F8
F8
F8
F8
F8
F8
F8
F8
F8
ENDCHAR
STARTCHAR uni04C1
ENCODING 1217
SWIDTH 844 0
DWIDTH 27 0
BBX 27 30 0 0
BITMAP
0001F4007C0000
0000F400BC0000
0000BD01F80000
00007FFFE00000
00000BFE400000
00000000000000
00000000000000
7E0000B80002F4
1F8000B8000BD0
0BD000B8001F80
02F400B8003E00
00FC00B800FC00
007E00B802F400
001F80B80BD000
000BD0B81F8000
0002F0B83E0000
0000FCB8FC0000
00007EBAF40000
00003FFFF00000
0000BDB9F80000
0001F8B8BE0000
0007E0B82F4000
000FC0B80FC000
002F40B807E000
00BD00B801F800
01F800B800BD00
07E000B8002F40
0FC000B8000FC0
2F4000B80007E0
BE0000B80002F8
ENDCHAR
STARTCHAR uni04C2
ENCODING 1218
SWIDTH 735 0
DWIDTH 24 0
BBX 23 24 0 0
BITMAP
000F4003D000
000B8007D000
0007D01FC000
0002FFFF4000
00006FF80000
000000000000
000000000000
3F0007C001F4
0F8007C007E0
07E007C01F80
01F807C03E00
007D07C0BC00
002F47C2F000
000BC7CBD000
0002FBDF4000
0001FBFF0000
0007E7CF8000
001F87C7E000
003E07C1F800
00FC07C07D00
02F007C02F40
0BD007C00BD0
2F4007C002F4
7D0007C000FC
ENDCHAR
STARTCHAR uni04C3
ENCODING 1219
SWIDTH 688 0
DWIDTH 22 0
BBX 18 31 3 -8
BITMAP
F80000BE00
F80001F800
F80007E000
F8001FC000
F8003F0000
F800FD0000
F802F40000
F80BD00000
F82F400000
F8BE000000
F9F8000000
FFFFE90000
FFFFFF9000
FE556FF800
F80002FD00
F800007F00
F800002F80
F800000FC0
F800000BD0
F8000007D0
F8000007D0
F8000007D0
F8000007D0
0000000BC0
0000000FC0
0000001F80
0000003F40
000000BE00
00A95BF800
00BFFFE000
006FFA4000
ENDCHAR
STARTCHAR uni04C4
ENCODING 1220
SWIDTH 548 0
DWIDTH 18 0
BBX 15 25 2 -8
BITMAP
7D000BD0
7D002F40
7D00BD00
7D02F400
7D0BD000
7D2F4000
7DBD0000
7EFFA000
7FFFFE00
7E55BF80
7D000FD0
7D0003E0
7D0002F0
7D0001F4
7D0001F4
7D0000F4
7D0000F4
000000F4
000001F4
000002F0
000003E0
00000BD0
00E56F80
00FFFE00
006FE400
ENDCHAR
STARTCHAR uni04C5
ENCODING 1221
SWIDTH 706 0
DWIDTH 23 0
BBX 22 29 0 -6
BITMAP
0003FFFFFD00
0003FFFFFD00
0007E555BD00
0007C0007D00
0007C0007D00
000BC0007D00
000B80007D00
000F80007D00
000F80007D00
001F40007D00
001F40007D00
002F00007D00
002F00007D00
002E00007D00
003E00007D00
007D00007D00
007D00007D00
00BC00007D00
00F800007D00
01F400007D00
57F000007E50
FFD000007FF0
BE4000007FE0
0000000002D0
0000000007D0
000000000BC0
000000000F80
000000001F40
000000003F00
ENDCHAR
STARTCHAR uni04C6
ENCODING 1222
SWIDTH 571 0
DWIDTH 18 0
BBX 18 23 0 -6
BITMAP
002FFFFD00
002FFFFD00
002E557D00
002E003D00
003E003D00
003D003D00
007D003D00
007C003D00
007C003D00
00B8003D00
00F8003D00
01F4003D00
02F0003D00
03E0003D00
1BD0003E50
BF80003FF0
BD00003FE0
00000002E0
00000003D0
00000007C0
0000000B80
0000000F80
0000001F40
ENDCHAR
STARTCHAR uni04C7
ENCODING 1223
SWIDTH 727 0
DWIDTH 23 0
BBX 18 31 3 -8
BITMAP
F8000007D0
F8000007D0
F8000007D0
F8000007D0
F8000007D0
F8000007D0
F8000007D0
F8000007D0
F8000007D0
F8000007D0
FFFFFFFFD0
FFFFFFFFD0
FD555557D0
F8000007D0
F8000007D0
F8000007D0
F8000007D0
F8000007D0
F8000007D0
F8000007D0
F8000007D0
F8000007D0
F8000007D0
00000007D0
0000000BC0
0000000F80
0000002F40
000000BE00
00795BFC00
007FFFE000
002BFE4000
ENDCHAR
ENDFONT
